<?xml version="1.0" encoding="utf-8"?>
<svg version="1.1" xmlns:xlink="http://www.w3.org/1999/xlink" width="12px" height="21px" xmlns="http://www.w3.org/2000/svg">
  <g transform="matrix(1 0 0 1 -34 -134 )">
    <path d="M 11.7215073529412 20.7166193181818  C 11.5629595588235 20.8657670454545  11.3538602941176 20.9403409090909  11.1470588235294 20.9403409090909  C 10.9402573529412 20.9403409090909  10.7311580882353 20.8657670454545  10.5726102941176 20.7166193181818  L 0.278492647058824 11.0406605113636  C -0.0386029411764706 10.7423650568182  -0.0386029411764706 10.2576349431818  0.278492647058824 9.95933948863637  L 10.5726102941176 0.283380681818182  C 10.8897058823529 -0.0149147727272727  11.4044117647059 -0.0149147727272727  11.7215073529412 0.283380681818182  C 12.0386029411765 0.581676136363636  12.0386029411765 1.06640625  11.7215073529412 1.36470170454545  L 2.00183823529412 10.5  L 11.7215073529412 19.6352982954545  C 12.0386029411765 19.93359375  12.0386029411765 20.4183238636364  11.7215073529412 20.7166193181818  Z " fill-rule="nonzero" fill="#ffffff" stroke="none" transform="matrix(1 0 0 1 34 134 )" />
  </g>
</svg>