<?xml version="1.0" encoding="utf-8"?>
<svg version="1.1" xmlns:xlink="http://www.w3.org/1999/xlink" width="15px" height="16px" xmlns="http://www.w3.org/2000/svg">
  <g transform="matrix(1 0 0 1 -27 -24 )">
    <path d="M 9.96855345297759 2.09181637350299  C 9.96855345297759 3.28942116392216  9.10377358490566 4.16766467065868  7.92452830188679 4.16766467065868  C 6.82389937721109 4.16766467065868  5.88050315079599 3.20958083832335  5.88050315079599 2.09181637350299  C 5.88050315079599 0.974051908682634  6.82389937721109 0.0159680763473048  7.92452830188679 0.0159680576347299  C 9.0251572265625 0.0159680576347299  9.96855345297759 0.974051889970059  9.96855345297759 2.09181637350299  Z M 5.4874213775059 3.92814371257485  C 5.4874213775059 4.96606787050898  4.62264150943396 5.84431137724551  3.60062892467571 5.84431137724551  C 2.57861635834316 5.84431137724551  1.71383647184552 4.96606787050898  1.71383647184552 3.92814371257485  C 1.71383647184552 2.89021955464072  2.57861633991745 2.01197604790419  3.60062892467571 2.01197604790419  C 4.62264150943396 2.01197604790419  5.4874213775059 2.89021955464072  5.4874213775059 3.92814371257485  Z M 3.36477986807193 8.47904191616766  C 3.36477986807193 9.35728542290419  2.65723269826061 10.1556886227545  1.71383647184552 10.1556886227545  C 0.849056603773584 10.1556886227545  0.0628930756191035 9.35728542290419  0.0628930756191035 8.47904191616766  C 0.0628930756191035 7.52095808383234  0.770440245430424 6.80239520958084  1.71383647184552 6.80239520958084  C 2.65723269826061 6.80239520958084  3.36477986807193 7.52095808383233  3.36477986807193 8.47904191616766  Z M 5.01572326429835 12.9500997941617  C 5.01572326429835 13.748502994012  4.38679245283019 14.3872255426647  3.60062892467571 14.3872255426647  C 2.81446539652123 14.3872255426647  2.18553458505307 13.748502994012  2.18553458505307 12.9500997941617  C 2.18553458505307 12.1516965943114  2.81446539652123 11.5129740456587  3.60062892467571 11.5129740456587  C 4.38679245283019 11.5129740456587  5.01572326429835 12.1516965943114  5.01572326429835 12.9500997941617  Z M 9.18238994324882 14.7065868263473  C 9.18238994324882 15.4251497005988  8.63207547169811 15.9840319423653  7.92452830188679 15.9840319423653  C 7.21698113207547 15.9840319423653  6.66666666052476 15.4251497005988  6.66666666052476 14.7065868263473  C 6.66666666052476 13.9880239520958  7.21698113207547 13.4291417103293  7.92452830188679 13.4291417103293  C 8.63207547169811 13.4291417103293  9.18238994324882 13.9880239520958  9.18238994324882 14.7065868263473  Z M 13.3490566037736 12.8702594872754  C 13.3490566037736 13.4291417290419  12.877358490566 13.9081836452096  12.3270440190153 13.908183626497  C 11.7767295474646 13.908183626497  11.3050314342571 13.4291417103293  11.3050314526828 12.8702594872754  C 11.3050314526828 12.311377245509  11.7767295658903 11.8323353293413  12.3270440190153 11.8323353293413  C 12.877358490566 11.8323353293413  13.3490566037736 12.311377245509  13.3490566037736 12.8702594872754  Z M 14.9213836416568 8.47904191616766  C 15 8.87824350673653  14.6069182267099 9.27744511601796  14.1352201319281 9.27744511601796  C 13.6635220187205 9.27744511601796  13.3490566037736 8.8782435254491  13.3490566037736 8.47904191616766  C 13.3490566037736 8  13.742138358638 7.68063871631736  14.1352201319281 7.68063871631736  C 14.6069182451356 7.68063871631736  14.9213836600825 8.07984030688623  14.9213836416568 8.47904191616766  Z M 12.3270440190153 3.36926147080838  C 12.0125786040684 3.36926145209581  11.6981132075472 3.60878242889221  11.6981132075472 4.00798403817365  C 11.6981132075472 4.32734532185629  12.0125786224941 4.64670658682634  12.3270440190153 4.64670658682634  C 12.6415094155366 4.64670658682634  12.9559748304835 4.32734530314371  12.9559748489092 4.00798403817365  C 12.9559748673349 3.68862277320359  12.6415094339623 3.36926148952096  12.3270440190153 3.36926147080838  Z " fill-rule="nonzero" fill="#c2c2c3" stroke="none" transform="matrix(1 0 0 1 27 24 )" />
  </g>
</svg>