<?xml version="1.0" encoding="utf-8"?>
<svg version="1.1" xmlns:xlink="http://www.w3.org/1999/xlink" width="40px" height="43px" xmlns="http://www.w3.org/2000/svg">
  <g transform="matrix(1 0 0 1 -84 -86 )">
    <path d="M 26.5828092079403 5.6217565037893  C 26.5828092079403 8.84031937804079  24.2767295597484 11.2005988023952  21.1320754716981 11.2005988023952  C 18.1970650058962 11.2005988023952  15.681341735456 8.62574850299401  15.681341735456 5.6217565037893  C 15.681341735456 2.61776450458458  18.1970650058962 0.0429142051833816  21.1320754716981 0.0429141548933366  C 24.0670859375 0.0429141548933366  26.5828092079403 2.61776445429453  26.5828092079403 5.6217565037893  Z M 14.6331236733491 10.5568862275449  C 14.6331236733491 13.3463074019929  12.3270440251572 15.7065868263473  9.60167713246855 15.7065868263473  C 6.87631028891509 15.7065868263473  4.57023059158805 13.3463074019929  4.57023059158805 10.5568862275449  C 4.57023059158805 7.76746505309693  6.87631023977987 5.40718562874251  9.60167713246856 5.40718562874251  C 12.3270440251572 5.40718562874251  14.6331236733491 7.76746505309693  14.6331236733491 10.5568862275449  Z M 8.97274631485849 22.7874251497006  C 8.97274631485849 25.147704574055  7.0859538620283 27.2934131736527  4.57023059158805 27.2934131736527  C 2.26415094339622 27.2934131736527  0.167714868317609 25.147704574055  0.167714868317609 22.7874251497006  C 0.167714868317609 20.2125748502994  2.0545073211478 18.2814371257485  4.57023059158805 18.2814371257485  C 7.0859538620283 18.2814371257485  8.97274631485849 20.2125748502994  8.97274631485849 22.7874251497006  Z M 13.3752620381289 34.8033931968095  C 13.3752620381289 36.9491017964072  11.6981132075472 38.6656686459113  9.60167713246855 38.6656686459113  C 7.50524105738994 38.6656686459113  5.82809222680818 36.9491017964072  5.82809222680818 34.8033931968095  C 5.82809222680818 32.6576845972118  7.50524105738994 30.9411177477077  9.60167713246855 30.9411177477077  C 11.6981132075472 30.9411177477077  13.3752620381289 32.6576845972118  13.3752620381289 34.8033931968095  Z M 24.4863731819969 39.5239520958084  C 24.4863731819969 41.4550898203593  23.0188679245283 42.9570858451067  21.1320754716981 42.9570858451067  C 19.2452830188679 42.9570858451067  17.7777777613994 41.4550898203593  17.7777777613994 39.5239520958084  C 17.7777777613994 37.5928143712575  19.2452830188679 36.0908183465101  21.1320754716981 36.0908183465101  C 23.0188679245283 36.0908183465101  24.4863731819969 37.5928143712575  24.4863731819969 39.5239520958084  Z M 35.5974842767296 34.5888223720528  C 35.5974842767296 36.0908183968001  34.3396226415094 37.3782435465007  32.8721173840409 37.3782434962107  C 31.4046121265723 37.3782434962107  30.1467504913522 36.0908183465101  30.1467505404874 34.5888223720528  C 30.1467505404874 33.0868263473054  31.4046121757075 31.7994011976048  32.8721173840409 31.7994011976048  C 34.3396226415094 31.7994011976048  35.5974842767296 33.0868263473054  35.5974842767296 34.5888223720528  Z M 39.7903563777516 22.7874251497006  C 40 23.8602794243544  38.9517819378931 24.9331337492983  37.6939203518082 24.9331337492983  C 36.436058716588 24.9331337492983  35.5974842767296 23.8602794746445  35.5974842767296 22.7874251497006  C 35.5974842767296 21.5  36.6457022897013 20.6417165501029  37.6939203518082 20.6417165501029  C 38.9517819870283 20.6417165501029  39.7903564268868 21.7145708247567  39.7903563777516 22.7874251497006  Z M 32.8721173840409 9.05489020279752  C 32.0335429441824 9.05489015250748  31.1949685534591 9.69860277764782  31.1949685534591 10.7714571025917  C 31.1949685534591 11.6297405524888  32.0335429933176 12.4880239520958  32.8721173840409 12.4880239520958  C 33.7106917747642 12.4880239520958  34.5492662146226 11.6297405021987  34.5492662637579 10.7714571025917  C 34.5492663128931 9.91317370298465  33.7106918238994 9.05489025308757  32.8721173840409 9.05489020279752  Z " fill-rule="nonzero" fill="#c2c2c3" stroke="none" transform="matrix(1 0 0 1 84 86 )" />
  </g>
</svg>