<?xml version="1.0" encoding="utf-8"?>
<svg version="1.1" xmlns:xlink="http://www.w3.org/1999/xlink" width="90px" height="90px" xmlns="http://www.w3.org/2000/svg">
  <g transform="matrix(1 0 0 1 -170 -160 )">
    <path d="M 89.5556386972403 45.1429078733766  C 89.5556386972403 20.382520799513  69.5150923295455 0.240843141233772  44.879692573052 0.240843141233766  C 20.2440645292208 0.240843141233766  0.203404017857148 20.3827490868506  0.203404017857148 45.1429078733766  C 0.203404017857148 69.9026100852273  20.2439503855519 89.5930778206169  44.879692573052 89.5930778206169  C 69.5148640422078 89.5930778206169  89.5556386972403 69.9024959415584  89.5556386972403 45.1429078733766  Z M 84.964552049513 44.9170175527597  C 84.964552049513 67.0552962662338  67.0178571428571 85.0018770292208  44.8795784293831 85.0018770292208  C 22.7412997159091 85.0018770292208  4.79471895292209 67.0551821225649  4.79471895292209 44.9170175527597  C 4.79471895292209 22.7788529829546  22.7414138595779 4.83204393262987  44.8795784293831 4.83204393262987  C 67.0177429991883 4.83204393262987  84.964552049513 22.7787388392857  84.964552049513 44.9170175527597  Z " fill-rule="nonzero" fill="#d9d9d9" stroke="none" transform="matrix(1 0 0 1 170 160 )" />
  </g>
</svg>