<?xml version="1.0" encoding="utf-8"?>
<svg version="1.1" xmlns:xlink="http://www.w3.org/1999/xlink" width="11px" height="14px" xmlns="http://www.w3.org/2000/svg">
  <g transform="matrix(1 0 0 1 -209 -204 )">
    <path d="M 0.292945772058818 3.95299479166667  C 0.292945772058818 5.48857421874999  1.43995863970587 6.81691080729166  3.10942095588235 7.459033203125  C 2.88471966911765 8.07347005208334  2.75543428308824 8.78725585937501  2.75543428308824 9.54923502604167  C 2.75543428308824 11.85009765625  3.92873391544117 13.715283203125  5.37640165441176 13.715283203125  C 6.82381663602941 13.715283203125  7.9973690257353 11.85009765625  7.9973690257353 9.54923502604167  C 7.9973690257353 8.78725585937501  7.86795726102942 8.07369791666667  7.64338235294118 7.459033203125  C 9.31271829044117 6.81691080729167  10.4597311580882 5.48846028645833  10.4597311580882 3.95299479166667  C 10.4597311580882 1.7896484375  8.1837775735294 0.03566080729167  5.37640165441175 0.03566080729167  C 2.56902573529411 0.03566080729167  0.292945772058818 1.7896484375  0.292945772058818 3.95299479166667  Z " fill-rule="nonzero" fill="#d9d9d9" stroke="none" transform="matrix(1 0 0 1 209 204 )" />
  </g>
</svg>