<?xml version="1.0" encoding="utf-8"?>
<svg version="1.1" xmlns:xlink="http://www.w3.org/1999/xlink" width="48px" height="59px" xmlns="http://www.w3.org/2000/svg">
  <g transform="matrix(1 0 0 1 -191 -172 )">
    <path d="M 39.3921686746988 22.6032808554293  C 39.3921686746988 10.2712239583333  32.4292545180723 0.274118134469693  23.8401731927711 0.274118134469693  C 15.2510918674699 0.274118134469693  8.28817771084337 10.2712239583333  8.28817771084337 22.6032808554293  C 8.28817771084337 22.6915108112374  8.28942018072289 22.7793915719697  8.29043674698795 22.8673887310606  L 0.450112951807221 22.8673887310606  L 1 27.5493963068182  L 1 53.1453953598485  C 0.459262048192765 56.1289180871212  2.81453313253011 58.5476759785353  5.71987951807229 58  L 42.728313253012 58  C 45.633546686747 58.5476759785353  47.9888177710843 56.1290344854798  48 53.1453953598485  L 48 27.5492799084596  L 47.9907379518072 27.5492799084596  L 47.9907379518072 22.867272332702  L 39.389796686747 22.867272332702  C 39.3909262048193 22.7793915719697  39.3920557228916 22.691627209596  39.3920557228916 22.6032808554293  Z M 12.831438253012 22.6032808554293  C 12.831438253012 12.8570134943182  17.7603162650602 4.95612571022727  23.8400602409639 4.95612571022727  C 29.9199171686747 4.95612571022727  34.8489081325301 12.8570134943182  34.8489081325301 22.6032808554293  C 34.8489081325301 22.6915108112374  34.8477786144578 22.7795079703283  34.846875 23  L 12.8335843373494 23  C 12.8324548192771 22.7795079703283  12.8315512048193 22.691627209596  12.8315512048193 22.6032808554293  Z M 43 28  L 43 48.4632713857323  C 43.4456701807229 51.4466777146465  41.098531626506 53.8655520044192  38.2033509036145 53  L 10.2448418674699 53  C 7.34977409638554 53.8655520044192  5.00252259036145 51.4467941130051  5 48.4632713857323  L 5 28  L 43 28  Z " fill-rule="nonzero" fill="#d9d9d9" stroke="none" transform="matrix(1 0 0 1 191 172 )" />
  </g>
</svg>