<?xml version="1.0" encoding="utf-8"?>
<svg version="1.1" xmlns:xlink="http://www.w3.org/1999/xlink" width="20px" height="4px" xmlns="http://www.w3.org/2000/svg">
  <g transform="matrix(1 0 0 1 -367 -170 )">
    <path d="M 4.35466609589041 2  C 4.35466609589041 3.0786865234375  3.39637735445205 3.953125  2.2142551369863 3.953125  C 1.03213291952055 3.953125  0.0738441780821918 3.0786865234375  0.0738441780821918 2  C 0.0738441780821918 0.921313476562499  1.03213291952055 0.046875  2.2142551369863 0.046875  C 3.39637735445205 0.046875  4.35466609589041 0.921313476562499  4.35466609589041 2  Z M 12.1404109589041 2  C 12.1404109589041 3.0786865234375  11.1821222174658 3.953125  10 3.953125  C 8.81787778253425 3.953125  7.85958904109589 3.0786865234375  7.85958904109589 2  C 7.85958904109589 0.921313476562499  8.81787778253425 0.046875  10 0.046875  C 11.1821222174658 0.046875  12.1404109589041 0.921313476562499  12.1404109589041 2  Z M 19.9261558219178 2  C 19.9261558219178 3.0786865234375  18.9678670804795 3.953125  17.7857448630137 3.953125  C 16.6036226455479 3.953125  15.6453339041096 3.0786865234375  15.6453339041096 2  C 15.6453339041096 0.921313476562499  16.6036226455479 0.046875  17.7857448630137 0.046875  C 18.9678670804795 0.046875  19.9261558219178 0.921313476562499  19.9261558219178 2  Z " fill-rule="nonzero" fill="#dbdbdb" stroke="none" transform="matrix(1 0 0 1 367 170 )" />
  </g>
</svg>