<?xml version="1.0" encoding="utf-8"?>
<svg version="1.1" xmlns:xlink="http://www.w3.org/1999/xlink" width="15px" height="9px" xmlns="http://www.w3.org/2000/svg">
  <g transform="matrix(1 0 0 1 -335 -148 )">
    <path d="M 7.59363296063027 8.96078430606618  C 7.68726592126053 8.96078430606618  7.59363296063027 8.96078430606618  7.59363296063027 8.96078430606618  C 6.84456929204705 8.96078430606618  6.1891385840941 8.66666665326287  5.6273408203125 8.0784313648897  L 0.290262179599719 1.80392157628676  C -0.0842696629213483 1.41176470588235  0.00936329770891868 0.823529417509191  0.383895123771067 0.431372547104779  C 0.758426966292135 0.0392156767003668  1.32022471361482 0.13725489430147  1.69475655613589 0.529411764705882  L 7.12546815747893 6.80392157054228  C 7.2191011181092 6.90196078814338  7.40636703936973 7.00000000574449  7.59363296063027 7.00000000574449  C 7.7808988818908 7.00000000574449  7.96816480315133 6.90196078814338  8.15543070795295 6.70588235294117  L 13.3052434438641 0.431372547104778  C 13.6797752863852 0.0392156767003662  14.2415730337079 -0.0588235236672804  14.6161048762289 0.333333329503675  C 14.99063671875 0.725490199908087  15.0842696629213 1.31372548828125  14.7097378204003 1.70588235868566  L 9.55992510094803 7.98039216452206  C 9.09176031425562 8.66666667049633  8.43632958984375 8.96078432329963  7.59363296063027 8.96078430606618  Z " fill-rule="nonzero" fill="#b4b4b3" stroke="none" transform="matrix(1 0 0 1 335 148 )" />
  </g>
</svg>