<?xml version="1.0" encoding="utf-8"?>
<svg version="1.1" xmlns:xlink="http://www.w3.org/1999/xlink" width="70px" height="70px" xmlns="http://www.w3.org/2000/svg">
  <g transform="matrix(1 0 0 1 -16 -7 )">
    <path d="M 51 7  C 70.6 7  86 22.4  86 42  C 86 61.6  70.6 77  51 77  C 31.4 77  16 61.6  16 42  C 16 22.4  31.4 7  51 7  Z " fill-rule="nonzero" fill="#ffffff" stroke="none" />
    <path d="M 51 7.5  C 70.32 7.5  85.5 22.68  85.5 42  C 85.5 61.32  70.32 76.5  51 76.5  C 31.68 76.5  16.5 61.32  16.5 42  C 16.5 22.68  31.68 7.5  51 7.5  Z " stroke-width="1" stroke="#797979" fill="none" />
  </g>
</svg>