<?xml version="1.0" encoding="utf-8"?>
<svg version="1.1" xmlns:xlink="http://www.w3.org/1999/xlink" width="25px" height="13px" xmlns="http://www.w3.org/2000/svg">
  <g transform="matrix(1 0 0 1 -269 -138 )">
    <path d="M 24.5536853684831 12.2899625963993  C 24.2720572055326 12.6414345435102  23.8214521452951 12.8757491750851  23.3708470845742 12.8757491748337  L 1.57282728259398 12.8757491748337  C 1.12222222211479 12.8757491748337  0.671617161635597 12.6414345435102  0.389988998926748 12.2899625963993  C 0.108360835976176 11.8799119913946  -0.00429042896232971 11.4112827284963  0.108360836217899 10.9426534653465  C 1.23487348753674 4.9676303629525  5.90990099009901 0.515652365292387  11.5424642464515 0.0470231023940238  C 13.4293729373743 0.0470231023940238  15.4711771177386 0.295982398379481  17.512981298103 1.16001760162051  C 18.1044004399366 1.40897689760597  18.3015401541228 1.57006820662515  18.6394939494218 1.7458041805577  C 21.9063806379564 3.67889989004486  24.1594059405941 7.01788338847849  24.8916391637821 10.9426534653465  C 25.0042904289623 11.4112827282449  24.8916391637821 11.8799119911433  24.5536853684831 12.2899625963993  Z " fill-rule="nonzero" fill="#606060" stroke="none" transform="matrix(1 0 0 1 269 138 )" />
  </g>
</svg>