<?xml version="1.0" encoding="utf-8"?>
<svg version="1.1" xmlns:xlink="http://www.w3.org/1999/xlink" width="23px" height="11px" xmlns="http://www.w3.org/2000/svg">
  <g transform="matrix(1 0 0 1 -270 -138 )">
    <path d="M 22.2877068557389 11  L 0.726212765957447 11  C 0.54525768318858 10.9538397933094  0.37822222235497 10.881074935456  0.280784870002909 10.75009819127  C 0.266865248306599 10.7355452197493  0.266865248306599 10.7209922479787  0.252945626610289 10.706439276458  C 0.113749409169298 10.5609095607513  0.0998297872340423 10.3135090438999  0.127669030865608 10.1679793281931  C 1.15772104045462 4.63785012908793  5.48672340425532 0.490253229946399  10.6648226951151 0.0973229973882608  L 11.0824113474381 0.0973229973882608  C 13.5740236406354 0.0973229973882608  15.9681985814806 0.912289405795781  17.1374468085106 1.68359689914153  C 20.1997635934072 3.60458914737009  22.245947990411 6.61705426364916  22.8862505910696 10.1679793281931  C 22.9140898347012 10.3717209302326  22.8723309693733 10.5609095607513  22.7331347516934 10.75009819127  C 22.6356973995803 10.881074935456  22.4686619385077 10.9538397933094  22.2877068557389 11  Z " fill-rule="nonzero" fill="#606060" stroke="none" transform="matrix(1 0 0 1 270 138 )" />
  </g>
</svg>