<?xml version="1.0" encoding="utf-8"?>
<svg version="1.1" xmlns:xlink="http://www.w3.org/1999/xlink" width="24px" height="24px" xmlns="http://www.w3.org/2000/svg">
  <g transform="matrix(1 0 0 1 -270 -125 )">
    <path d="M 11.1030604490771 13.5827275805044  C 11.2303972366418 13.5965888325666  11.3718825561043 13.5827275805044  11.5133678755667 13.5827275805044  C 13.9752124352332 13.5827275805044  16.3380172711302 14.3312351947176  17.4840483592131 15.0381590525063  L 17.4981968911108 15.0381590525063  C 20.5259827286269 16.798538071066  22.5350742658679 19.5846497462722  23.157609671794 22.8836277494448  C 23.1717582036917 22.9529340099937  23.1717582036917 23.0499627749048  23.0585699482675 23.1747140439404  C 23.0444214163698 23.2024365483027  22.9736787566386 23.230159052427  22.8887875647668 23  L 0.986860103626943 23  C 0.901968911998057 23.230159052427  0.831226252023964 23.2024365480647  0.817077720126295 23.1747140439404  C 0.802929188228627 23.146991539578  0.774632124190414 23.1192690354537  0.746335060395078 23.1054077833915  C 0.718037996356865 23.0776852790292  0.689740932561528 22.9945177664181  0.718037996599741 22.8974890017449  C 1.73673229711788 17.7826869712881  5.99544041458873 13.956981387611  11.1030604490771 13.5827275805044  Z M 17.8660587219074 14.4559864637532  C 16.6634335059909 13.7213401016022  14.2015889465674 12.8896649747779  11.5133678755667 12.88966497454  C 11.3718825561043 12.88966497454  11.2162487045013 12.88966497454  11.0747633852817 12.9035262266022  C 5.64172711568977 13.2916412860089  1.11419689119171 17.3391269036326  0.0389084628400259 22.7727377327094  C -0.0176856649935233 23.0499627751428  0.0389084628400259 23.3826328258249  0.265284974174223 23.6044128595336  C 0.435067357674871 23.8261928932424  0.718037996599741 23.9370829102157  1.00100863552461 24  L 22.9029360966645 24  C 23.1859067358323 23.9370829104537  23.4688773747571 23.8261928934803  23.6386597582578 23.6044128595336  C 23.8084421417584 23.3826328258249  23.9216303974255 23.1054077833915  23.8650362693491 22.7727377327094  C 23.1859067355894 19.2242571912278  21.035329878886 16.313394247224  17.8660587219074 14.4559864637532  Z M 18.4461485318977 6.47190524547906  C 18.4461485318977 9.96494077871193  15.5032538860104 12.8480812183534  11.9378238341969 12.8480812183534  C 8.37239378238342 12.8480812183534  5.42949913649611 9.96494077847398  5.42949913649611 6.47190524547906  C 5.42949913649611 2.97886971248414  8.37239378238342 0.0957292723667513  11.9378238341969 0.0957292723667513  C 15.5032538860104 0.0957292723667513  18.4461485318977 2.97886971224619  18.4461485318977 6.47190524547906  Z " fill-rule="nonzero" fill="#606060" stroke="none" transform="matrix(1 0 0 1 270 125 )" />
  </g>
</svg>