<?xml version="1.0" encoding="utf-8"?>
<svg version="1.1" xmlns:xlink="http://www.w3.org/1999/xlink" width="12px" height="12px" xmlns="http://www.w3.org/2000/svg">
  <g transform="matrix(1 0 0 1 -276 -126 )">
    <path d="M 0.737777777832031 6.01544444458008  C 0.737777777832031 3.11411111132812  3.09866666674805 0.753222222412109  6 0.753222222167969  C 8.90133333325196 0.753222222167969  11.262222222168 3.11411111108398  11.262222222168 6.01544444458008  C 11.262222222168 8.91677777807617  8.90133333325196 11.277666666748  6 11.277666666748  C 3.09866666674804 11.277666666748  0.737777777832031 8.91677777783203  0.737777777832031 6.01544444458008  Z M 11.973333333252 6.01544444458008  C 11.973333333252 2.71588888916015  9.29955555541992 0.0421111110839844  6 0.0421111110839841  C 2.70044444458008 0.0421111110839841  0.0266666667480457 2.71588888891602  0.0266666667480457 6.01544444458008  C 0.0266666667480457 9.31500000024414  2.70044444458008 11.988777777832  6 11.988777777832  C 9.29955555541992 11.988777777832  11.973333333252 9.315  11.973333333252 6.01544444458008  Z " fill-rule="nonzero" fill="#606060" stroke="none" transform="matrix(1 0 0 1 276 126 )" />
  </g>
</svg>