<?xml version="1.0" encoding="utf-8"?>
<svg version="1.1" xmlns:xlink="http://www.w3.org/1999/xlink" width="80px" height="80px" xmlns="http://www.w3.org/2000/svg">
  <g transform="matrix(1 0 0 1 -41 -58 )">
    <path d="M 81 58  C 103.4 58  121 75.6  121 98  C 121 120.4  103.4 138  81 138  C 58.6 138  41 120.4  41 98  C 41 75.6  58.6 58  81 58  Z " fill-rule="nonzero" fill="#ffffff" stroke="none" />
    <path d="M 81 58.5  C 103.12 58.5  120.5 75.88  120.5 98  C 120.5 120.12  103.12 137.5  81 137.5  C 58.88 137.5  41.5 120.12  41.5 98  C 41.5 75.88  58.88 58.5  81 58.5  Z " stroke-width="1" stroke="#797979" fill="none" />
  </g>
</svg>