<?xml version="1.0" encoding="utf-8"?>
<svg version="1.1" xmlns:xlink="http://www.w3.org/1999/xlink" width="10px" height="10px" xmlns="http://www.w3.org/2000/svg">
  <g transform="matrix(1 0 0 1 -140 -58 )">
    <path d="M 4.13436145128019 5.31787139512195  C 4.24732215022449 5.20434589268293  4.36028283946123 5.13623059512195  4.47324353840553 5.04541019512195  C 3.04993877442058 3.59228381463415  1.67181829389637 2.22997782439024  0.316289945394976 0.867671843902439  C -0.0225921417303725 0.527095346341463  -0.0903685572139304 0.322749443902439  0.135552830967116 0.118403551219512  C 0.338882087125349 -0.063237248780488  0.51961919184565 -0.0178270439024392  0.858501288678559 0.322749443902439  C 2.14625321198884 1.61694012682927  3.4114130032763 2.9111308195122  4.69916492658658 4.1826164097561  C 4.78953348380051 4.2734368097561  4.85730989928407 4.38696231219512  4.99286273995874 4.56860310243902  C 5.1735998543866 4.31884700487805  5.30915268535372 4.15991130731707  5.44470551632083 4.0009756097561  C 6.66468102414755 2.77490022439024  7.88465654168183 1.52611973658537  9.12722419123893 0.300044341463415  C 9.21759274845286 0.209223941463414  9.28536916393641 0.0956984390243902  9.37573772115035 0.0729933463414633  C 9.53388269384783 0.0275831512195121  9.75980408202888 0.00487804878048763  9.82758049751244 0.0956984487804877  C 9.91794905472637 0.209223951219512  9.89535691299599 0.413569843902439  9.87276478097318 0.572505541463415  C 9.87276478097318 0.663325941463415  9.73721195000607 0.73144123902439  9.66943552481495 0.799556536585366  C 8.26872290256037 2.20727273170732  6.91319456376653 3.59228381463415  5.51248193180439 5  C 5.71581118796263 5.22705099512195  5.9191404344133 5.43139689756098  6.12246969057153 5.6357427902439  C 7.29726092464507 6.81640798048781  8.4720521587186 7.99707317073171  9.66943552481495 9.17773836097561  L 9.75980408202888 9.26855876097561  C 9.94054119645674 9.45019956097561  10.0535018856935 9.65454545365854  9.82758049751244 9.85889135609756  C 9.60165910933139 10.0859423512195  9.39832985317316 9.97241685853659  9.19500060672248 9.79077604878049  L 5.30915268535372 5.88549888780488  C 5.19619198640942 5.77197338536585  5.12841557092586 5.65844789268293  5.01545487198156 5.52221729756098  C 4.85730989928407 5.68115299512195  4.74434920033976 5.77197339512195  4.65398065283339 5.86279379512195  C 3.36622872952312 7.15698447804878  2.07847679650528 8.45117517073171  0.768132731464628 9.74536585365854  C 0.70035631598107 9.81348115121951  0.632579900497513 9.90430155121951  0.564803475306395 9.92700665365854  C 0.406658502608907 9.94971175609756  0.203329246450673 9.94971175609756  0.112960698944303 9.88159644878049  C 0.0225921417303726 9.79077604878049  0.0451842834607451 9.56372505365854  0.0677764154835579 9.42749445853659  C 0.0903685572139304 9.33667405853659  0.203329246450673 9.24585365853659  0.293697803664604 9.17773836097561  L 4.13436145128019 5.31787139512195  Z " fill-rule="nonzero" fill="#f3f3f3" stroke="none" transform="matrix(1 0 0 1 140 58 )" />
  </g>
</svg>