<?xml version="1.0" encoding="utf-8"?>
<svg version="1.1" xmlns:xlink="http://www.w3.org/1999/xlink" width="25px" height="25px" xmlns="http://www.w3.org/2000/svg">
  <g transform="matrix(1 0 0 1 -31 -26 )">
    <path d="M 24.8668852306548 11.6140765344311  C 24.8639787946429 11.0234608907186  24.3844168526786 10.5410273203593  23.7973167782738 11  L 13.5579427083333 11  L 13.5579427083333 1.09994854041916  C 13.5579427083333 0.509332896706587  13.078380766369 0.0268993263473051  12.4912806919643 0.0268993263473051  C 11.9041806175595 0.0268993263473051  11.4246186755952 0.509332896706587  11.4246186755952 1.09994854041916  L 11.4246186755952 11  L 1.18815104166667 11  C 0.601050967261905 10.5410273203593  0.121489025297619 11.0234608907186  0.121489025297619 11.6140765344311  C 0.121489025297619 12.2046921781437  0.601050967261905 12.687125748503  1.18815104166667 12.687125748503  L 11.4275251116071 12.687125748503  L 11.4275251116071 23.844498502994  C 11.4275251116071 24.4351141467066  11.9070870535714 24.9175477170659  12.4941871279762 24.9175477170659  C 13.081287202381 24.9175477170659  13.5608491443452 24.4351141467066  13.5608491443452 23.844498502994  L 13.5608491443452 12.687125748503  L 23.8002232142857 12.687125748503  C 24.3873232886905 12.687125748503  24.8668852306548 12.2046921781437  24.8668852306548 11.6140765344311  Z " fill-rule="nonzero" fill="#fafafa" stroke="none" transform="matrix(1 0 0 1 31 26 )" />
  </g>
</svg>