<?xml version="1.0" encoding="utf-8"?>
<svg version="1.1" xmlns:xlink="http://www.w3.org/1999/xlink" width="60px" height="60px" xmlns="http://www.w3.org/2000/svg">
  <g transform="matrix(1 0 0 1 -13 -6 )">
    <path d="M 43 6  C 59.8 6  73 19.2  73 36  C 73 52.8  59.8 66  43 66  C 26.2 66  13 52.8  13 36  C 13 19.2  26.2 6  43 6  Z " fill-rule="nonzero" fill="#121212" stroke="none" />
    <path d="M 43 6.5  C 59.52 6.5  72.5 19.48  72.5 36  C 72.5 52.52  59.52 65.5  43 65.5  C 26.48 65.5  13.5 52.52  13.5 36  C 13.5 19.48  26.48 6.5  43 6.5  Z " stroke-width="1" stroke="#262626" fill="none" />
  </g>
</svg>