<?xml version="1.0" encoding="utf-8"?>
<svg version="1.1" xmlns:xlink="http://www.w3.org/1999/xlink" width="25px" height="24px" xmlns="http://www.w3.org/2000/svg">
  <g transform="matrix(1 0 0 1 -44 -369 )">
    <path d="M 22.6179643110795 9.89889705882353  C 22.9092684659091 11.2775735294118  22.9092684659091 12.703125  22.6179643110795 14.0873161764706  C 21.3722922585227 14.2720588235294  20.2792080965909 15.0110294117647  19.6549849076705 16.0946691176471  C 19.0224387428977 17.1727941176471  18.9225630326705 18.4770220588235  19.3803267045455 19.6378676470588  C 18.3205344460227 20.5808823529412  17.0720880681818 21.2950367647059  15.7182173295455 21.7362132352941  C 14.9358575994318 20.7601102941176  13.7428977272727 20.1920955882353  12.4833540482955 20.1976102941176  C 11.2238103693182 20.1920955882353  10.0308504971591 20.7601102941176  9.24849076704546 21.7362132352941  C 7.89462002840909 21.2950367647059  6.64894797585228 20.5808823529412  5.58638139204546 19.640625  C 6.04691938920455 18.4797794117647  5.94704367897728 17.1755514705882  5.31449751420455 16.0974264705882  C 4.69027432528409 15.0137867647059  3.59719016335227 14.2748161764706  2.35151811079546 14.0900735294118  C 2.06298828125 12.7086397058824  2.06298828125 11.2830882352941  2.35151811079546 9.89889705882353  C 3.59719016335227 9.71691176470588  4.69027432528409 8.97794117647059  5.31449751420455 7.89430147058824  C 5.94704367897728 6.81617647058824  6.04691938920455 5.51194852941177  5.58638139204546 4.35110294117647  C 6.64617365056818 3.40808823529412  7.89462002840909 2.69393382352941  9.24849076704546 2.25275735294118  C 10.0336248224432 3.22886029411765  11.2238103693182 3.796875  12.4833540482955 3.79136029411765  C 13.7678666548295 3.79136029411765  14.9441805752841 3.21783088235294  15.7182173295455 2.25275735294118  C 17.0720880681818 2.69393382352941  18.3177601207386 3.40808823529412  19.3803267045455 4.35110294117647  C 18.9197887073864 5.51194852941177  19.0196644176136 6.81617647058824  19.6549849076705 7.89430147058824  C 20.2792080965909 8.97794117647059  21.3722922585227 9.71691176470588  22.6179643110795 9.89889705882353  Z M 24.9040083451705 11.9944852941176  C 24.9040083451705 10.8501838235294  24.7458718039773 9.71966911764706  24.4351473721591 8.63051470588236  C 24.3047540838068 8.16452205882353  23.8608620383523 7.85294117647059  23.3725807883523 7.88602941176471  C 22.5874467329546 7.93841911764706  21.83837890625 7.54136029411765  21.4471990411932 6.86580882352941  C 21.0504705255682 6.19025735294118  21.0782137784091 5.35202205882353  21.5165571732955 4.70128676470588  C 21.7856667258523 4.29871323529412  21.7357288707386 3.76654411764706  21.3972611860796 3.421875  C 19.793701171875 1.78125  17.7601207386364 0.617647058823531  15.5240145596591 0.0579044117647076  C 15.0523792613636 -0.0606617647058806  14.5613236860796 0.16544117647059  14.3449263139205 0.598345588235296  C 13.9981356534091 1.29871323529412  13.2768110795455 1.74264705882353  12.4889026988636 1.73988970588235  C 11.7009943181818 1.74264705882353  10.9796697443182 1.29871323529412  10.6328790838068 0.598345588235296  C 10.4164817116477 0.16544117647059  9.92542613636365 -0.0579044117647041  9.45379083806819 0.0579044117647076  C 7.21768465909092 0.614889705882355  5.18410422585228 1.78125  3.57776988636364 3.421875  C 3.23930220170455 3.76930147058824  3.18936434659092 4.3014705882353  3.45847389914773 4.70404411764706  C 3.8968172940341 5.35202205882353  3.92456054687501 6.19301470588236  3.52783203125001 6.86580882352941  C 3.13665216619319 7.54411764705883  2.39035866477273 7.93841911764706  1.60245028409092 7.88602941176471  C 1.11416903409092 7.85018382352941  0.670276988636371 8.16176470588236  0.542658025568189 8.63051470588236  C 0.229159268465916 9.72242647058824  0.0710227272727341 10.8556985294118  0.0710227272727341 11.9917279411765  C 0.0710227272727341 13.1332720588235  0.229159268465916 14.2637867647059  0.539883700284097 15.3529411764706  C 0.673051313920461 15.8189338235294  1.11416903409092 16.1277573529412  1.59967595880682 16.0974264705882  C 2.38481001420455 16.0477941176471  3.13110351562501 16.4448529411765  3.52505770596591 17.1204044117647  C 3.92178622159092 17.7987132352941  3.8968172940341 18.6286764705882  3.45569957386364 19.2821691176471  C 3.18659002130683 19.6847426470588  3.23652787642046 20.2169117647059  3.57499556107955 20.5615808823529  C 5.1785555752841 22.2022058823529  7.21491033380682 23.3685661764706  9.4510165127841 23.9255514705882  C 9.92265181107955 24.0441176470588  10.4137073863636 23.8207720588235  10.6301047585227 23.3878676470588  C 10.9768954190341 22.6875  11.6982199928977 22.2435661764706  12.4861283735796 22.2490808823529  C 13.2795854048296 22.2490808823529  13.9898126775568 22.6847426470588  14.3421519886364 23.3878676470588  C 14.5585493607955 23.8207720588235  15.0496049360796 24.0441176470588  15.521240234375 23.9283088235294  C 17.7573464133523 23.3713235294118  19.7909268465909 22.2049632352941  21.3972611860796 20.5643382352941  C 21.7357288707386 20.2169117647059  21.7856667258523 19.6847426470588  21.5165571732955 19.2821691176471  C 21.0782137784091 18.6341911764706  21.0532448508523 17.7959558823529  21.4471990411932 17.1231617647059  C 21.8356045809659 16.4420955882353  22.5846724076705 16.0450367647059  23.3725807883523 16.1001838235294  C 23.8580877130682 16.1277573529412  24.3019797585227 15.8216911764706  24.4351473721591 15.3556985294118  C 24.7486461292614 14.2610294117647  24.9067826704546 13.1305147058824  24.9040083451705 11.9944852941176  Z " fill-rule="nonzero" fill="#e9e9e9" stroke="none" transform="matrix(1 0 0 1 44 369 )" />
  </g>
</svg>