<?xml version="1.0" encoding="utf-8"?>
<svg version="1.1" xmlns:xlink="http://www.w3.org/1999/xlink" width="25px" height="25px" xmlns="http://www.w3.org/2000/svg">
  <g transform="matrix(1 0 0 1 -44 -416 )">
    <path d="M 20.4291044776119 22.1082089552239  C 18.1902985074627 23.8805970149254  15.3917910447761 24.9067164179104  12.5 24.9067164179104  C 5.69029850746269 24.9067164179104  0.0932835820895522 19.3097014925373  0.0932835820895522 12.5  C 0.0932835820895522 5.69029850746269  5.69029850746269 0.0932835820895522  12.5 0.0932835820895522  C 19.3097014925373 0.0932835820895522  24.9067164179104 5.69029850746269  24.9067164179104 12.5  L 23.134328358209 12.5  C 23.134328358209 6.62313432835821  18.3768656716418 1.77238805970149  12.4067164179105 1.77238805970149  C 6.43656716417911 1.77238805970149  1.77238805970149 6.62313432835821  1.77238805970149 12.5  C 1.77238805970149 18.3768656716418  6.62313432835821 23.2276119402985  12.5 23.2276119402985  C 15.0186567164179 23.2276119402985  17.4440298507463 22.3880597014925  19.3097014925373 20.8022388059701  L 20.4291044776119 22.1082089552239  Z " fill-rule="nonzero" fill="#fafafa" stroke="none" transform="matrix(1 0 0 1 44 416 )" />
  </g>
</svg>