<?xml version="1.0" encoding="utf-8"?>
<svg version="1.1" xmlns:xlink="http://www.w3.org/1999/xlink" width="11px" height="11px" xmlns="http://www.w3.org/2000/svg">
  <g transform="matrix(1 0 0 1 -52 -376 )">
    <path d="M 8.73717271959459 5.49129011824325  C 8.73717271959459 7.27681587837838  7.2797191722973 8.72846283783784  5.48838682432432 8.72846283783784  C 3.69705447635135 8.72846283783784  2.23960092905406 7.27391258445946  2.23960092905406 5.49129011824325  C 2.23960092905406 3.70576435810811  3.69705447635135 2.25411739864865  5.48838682432432 2.25411739864865  C 7.2797191722973 2.25411739864865  8.73717271959459 3.70576435810811  8.73717271959459 5.49129011824325  Z M 10.9030299831081 5.49129011824325  C 10.9001266891892 2.51251055743243  8.47297297297297 0.0940667229729751  5.48838682432432 0.0940667229729751  C 2.50380067567568 0.0940667229729751  0.0737436655405416 2.51541385135135  0.0737436655405416 5.49129011824325  C 0.0737436655405416 8.46716638513514  2.50380067567568 10.8885135135135  5.48838682432432 10.8885135135135  C 8.47297297297298 10.8885135135135  10.9030299831081 8.46716638513514  10.9030299831081 5.49129011824325  Z " fill-rule="nonzero" fill="#e9e9e9" stroke="none" transform="matrix(1 0 0 1 52 376 )" />
  </g>
</svg>