<?xml version="1.0" encoding="utf-8"?>
<svg version="1.1" xmlns:xlink="http://www.w3.org/1999/xlink" width="19px" height="10px" xmlns="http://www.w3.org/2000/svg">
  <g transform="matrix(1 0 0 1 -44 -478 )">
    <path d="M 4.04369274921269 8.1070983786387  L 0.0937279826792635 9.97509340218322  L 0.763213528040213 6.67496885702055  L 4.04369274921269 8.1070983786387  Z M 9.86821705426357 0.136986301369861  C 10.6046511627907 -0.112079703553083  11.2071881737524 0.136986301369861  11.6758280583818 0.510585295376713  C 12.1444679430111 0.884184289383562  12.3453136037427 1.38231629922945  12.3453136037427 2.00498132491438  C 12.3453136037427 2.56537984267979  12.077519379845 3.12577833369007  11.6088794952156 3.62391034353596  C 11.3410852713178 3.8729763484589  10.8054968235223 4.24657534246575  10.0690627149952 4.74470735231164  C 9.33262860646802 5.18057285423801  8.86398872183866 5.61643835616438  8.66314306110707 5.99003735017123  L 12.3453136037427 5.99003735017123  L 12.3453136037427 6.98630136986301  L 7.19027484405281 6.98630136986301  C 7.19027484405281 6.3013698630137  7.45806906795058 5.6787048640839  7.92670895257994 5.18057285423801  C 8.19450317647772 4.86924034139555  8.73009162427326 4.4956413473887  9.60042283036579 3.93524282962329  C 10.0690627149952 3.62391031678082  10.4038055020591 3.37484431185788  10.6046511627907 3.18804484160959  C 10.9393939498547 2.87671232876712  11.0732910474201 2.50311333476027  11.0732910474201 2.12951431399829  C 11.0732910474201 1.75591531999144  10.9393939498547 1.50684931506849  10.7385482603561 1.32004981806507  C 10.5377025996245 1.13325032106164  10.2029598125606 1.07098381314212  9.80126849109738 1.07098381314212  C 9.33262860646802 1.07098381314212  8.99788581940407 1.19551680222602  8.79704015867248 1.50684931506849  C 8.59619449794089 1.75591531999144  8.46229737160853 2.19178082191781  8.3953488372093 2.75217933968322  L 7.19027484405281 2.75217933968322  C 7.19027484405281 2.00498132491438  7.45806906795058 1.38231632598459  7.92670895257994 0.884184316138698  C 8.3953488372093 0.386052306292807  9.06483438257025 0.136986301369861  9.86821705426357 0.136986301369861  Z M 13.148696275436 4.37110833154966  L 16.6969696917393 0.0747197934503428  L 17.8350951504966 0.0747197934503428  L 17.8350951504966 4.55790785530822  L 18.9062720173207 4.55790785530822  L 18.9062720173207 5.42963885916096  L 17.8350951504966 5.42963885916096  L 17.8350951504966 6.92403486194349  L 16.6969696917393 6.92403486194349  L 16.6969696917393 5.42963885916096  L 13.148696275436 5.42963885916096  L 13.148696275436 4.37110833154966  Z M 16.6969696917393 4.6201743364726  L 16.6300211285732 1.50684931506849  L 14.0859760446948 4.6201743364726  L 16.6969696917393 4.6201743364726  Z " fill-rule="nonzero" fill="#fafafa" stroke="none" transform="matrix(1 0 0 1 44 478 )" />
  </g>
</svg>