<?xml version="1.0" encoding="utf-8"?>
<svg version="1.1" xmlns:xlink="http://www.w3.org/1999/xlink" width="24px" height="25px" xmlns="http://www.w3.org/2000/svg">
  <g transform="matrix(1 0 0 1 -45 -469 )">
    <path d="M 23.9090909040179 12.5  C 23.9090909040179 19.3440082619407  18.3246753069196 24.8966942249645  11.4415584542411 24.8966942249645  C 6.57142857142857 24.8966942249645  2.09090909598214 22.0557851340554  0.0779220703125014 17.6007231278853  L 1.31168830915179 17.0841942249645  C 3.1298701171875 21.0227272727273  7.09090909598214 23.6053718983043  11.5064934988839 23.6053718983043  C 17.6103896205357 23.6053718983043  22.6103896205357 18.6337809892134  22.6103896205357 12.5  C 22.6103896205357 6.36621901078658  17.6103896205357 1.39462810169567  11.4415584542411 1.39462810169567  C 7.28571428571428 1.39462810169567  3.45454547991071 3.65444213867188  1.50649349888393 7.3992768721147  L 0.337662332589287 6.81818181818182  C 2.54545454799107 2.621384305087  6.76623376116071 0.103305775035511  11.4415584542411 0.103305775035511  C 18.3246753348214 0.103305775035511  23.9090909040179 5.6559917380593  23.9090909040179 12.5  Z " fill-rule="nonzero" fill="#fafafa" stroke="none" transform="matrix(1 0 0 1 45 469 )" />
  </g>
</svg>