<?xml version="1.0" encoding="utf-8"?>
<svg version="1.1" xmlns:xlink="http://www.w3.org/1999/xlink" width="25px" height="25px" xmlns="http://www.w3.org/2000/svg">
  <g transform="matrix(1 0 0 1 -44 -524 )">
    <path d="M 25 19.6875  C 25 19.1697330470336  24.5802669529664 18.75  24.0625 18.75  C 23.5447330470336 18.75  23.125 19.1697330470336  23.125 19.6875  L 23.125 23.125  L 19.6875 23.125  C 19.1697330470336 23.125  18.75 23.5447330470336  18.75 24.0625  C 18.75 24.5802669529664  19.1697330470336 25  19.6875 25  L 23.75 25  C 24.4403559372885 25  25 24.4403559372885  25 23.75  L 25 19.6875  Z M 13 5.9675  C 13.4375 5.435625  13.015625 5  12.5 5  C 11.984375 5  11.5625 5.435625  12 5.9675  L 12 19.0325  C 11.5625 19.564375  11.984375 20  12.5 20  C 13.015625 20  13.4375 19.564375  13 19.0325  L 13 5.9675  Z M 25 1.25  C 25 0.559644062711508  24.4403559372885 0  23.75 0  L 19.6875 0  C 19.1697330470336 0  18.75 0.419733047033631  18.75 0.9375  C 18.75 1.45526695296637  19.1697330470336 1.875  19.6875 1.875  L 23.125 1.875  L 23.125 5.3125  C 23.125 5.83026695296637  23.5447330470336 6.25  24.0625 6.25  C 24.5802669529664 6.25  25 5.83026695296637  25 5.3125  L 25 1.25  Z M 25 12.5  C 25 11.984375  24.578125 11.5625  24.0625 11.5625  L 17.1875 11.5625  C 16.671875 11.5625  16.25 11.984375  16.25 12.5  C 16.25 13.015625  16.671875 13.4375  17.1875 13.4375  L 24.0625 13.4375  C 24.578125 13.4375  25 13.015625  25 12.5  Z M 8.75 12.5  C 8.75 11.984375  8.328125 11.5625  7.8125 11.5625  L 0.937499999999997 11.5625  C 0.421874999999997 11.5625  0 11.984375  0 12.5  C 0 13.015625  0.421874999999997 13.4375  0.937499999999997 13.4375  L 7.8125 13.4375  C 8.328125 13.4375  8.75 13.015625  8.75 12.5  Z M 0 5.3125  C 0 5.83026695296637  0.419733047033631 6.25  0.9375 6.25  C 1.45526695296637 6.25  1.875 5.83026695296637  1.875 5.3125  L 1.875 1.875  L 5.3125 1.875  C 5.83026695296637 1.875  6.25 1.45526695296637  6.25 0.9375  C 6.25 0.419733047033631  5.83026695296637 0  5.3125 0  L 1.25 0  C 0.559644062711508 0  0 0.559644062711508  0 1.25  L 0 5.3125  Z M 5.3125 23.125  L 1.875 23.125  L 1.875 19.6875  C 1.875 19.1697330470336  1.45526695296637 18.75  0.9375 18.75  C 0.419733047033631 18.75  0 19.1697330470336  0 19.6875  L 0 23.75  C 0 24.4403559372885  0.559644062711508 25  1.25 25  L 5.3125 25  C 5.83026695296637 25  6.25 24.5802669529664  6.25 24.0625  C 6.25 23.5447330470336  5.83026695296637 23.125  5.3125 23.125  Z " fill-rule="nonzero" fill="#fafafa" stroke="none" transform="matrix(1 0 0 1 44 524 )" />
  </g>
</svg>