<?xml version="1.0" encoding="utf-8"?>
<svg version="1.1" xmlns:xlink="http://www.w3.org/1999/xlink" width="10px" height="11px" xmlns="http://www.w3.org/2000/svg">
  <g transform="matrix(1 0 0 1 -59 -702 )">
    <path d="M 9.98817412280702 5.49497909416889  C 9.98817412280702 5.18267754434096  9.75581547270955 4.93023849060236  9.46835606725146 4.93023849060236  L 5.53749186159844 4.93023849060236  L 5.53749186159844 0.659669970880561  C 5.53749186159844 0.347368421052631  5.3051331871345 0.0949293673140311  5.01767380604288 0.0949293673140311  C 4.73021442495126 0.0949293673140311  4.49785575048733 0.347368421052627  4.49785575048733 0.659669970880561  L 4.49785575048733 4.93023849060236  L 0.566991544834304 4.93023849060236  C 0.279532163742687 4.93023849060236  0.0471734892787481 5.18267754434096  0.0471734892787481 5.49497909416889  C 0.0471734892787481 5.80728064399683  0.279532163742683 6.05971969773542  0.566991544834304 6.05971969773542  L 4.49785575048733 6.05971969773542  L 4.49785575048733 10.3302882174572  C 4.49785575048733 10.6425897672852  4.73021442495126 10.8950288210238  5.01767380604288 10.8950288210238  C 5.3051331871345 10.8950288210238  5.53749186159844 10.6425897672852  5.53749186159844 10.3302882174572  L 5.53749186159844 6.05971969773542  L 9.46835606725146 6.05971969773542  C 9.75581544834308 6.05971969773542  9.98817412280702 5.80728064399683  9.98817412280702 5.49497909416889  Z " fill-rule="nonzero" fill="#dfdfdf" stroke="none" transform="matrix(1 0 0 1 59 702 )" />
  </g>
</svg>