<?xml version="1.0" encoding="utf-8"?>
<svg version="1.1" xmlns:xlink="http://www.w3.org/1999/xlink" width="25px" height="23px" xmlns="http://www.w3.org/2000/svg">
  <g transform="matrix(1 0 0 1 -44 -584 )">
    <path d="M 24.2301576346782 10.1869118496509  L 19.1014188821517 14.7198440398521  C 19.3822193880856 16.0033624456311  19.6299845499067 17.1650278441517  19.844714367615 18.2048402354139  C 19.9438204323435 18.6435110902178  20.0346676610437 19.0821819370567  20.1172560537158 19.5208527759308  C 20.1998444463879 19.959523614805  20.2783034129483 20.3575767952128  20.3526329533971 20.7150123171543  C 20.4269624938459 21.0724478390957  20.4889037802524 21.3770803731715  20.5384568126166 21.6289099193816  C 20.5880098449808 21.8807394655918  20.6210451971911 22.0391483813996  20.6375628692475 22.1041366668052  C 20.6871159016117 22.4290780301141  20.6127863530654 22.6443516837046  20.4145742236085 22.7499576275765  C 20.2163620941516 22.8555635714484  19.9933734485126 22.9083665433843  19.7456082866915 22.9083665433843  C 19.6630198940195 22.9083665433843  19.543266731123 22.879934174493  19.3863487980022 22.8230694367104  C 19.2294308648813 22.7662046989279  19.1096777019849 22.7215252586852  19.0270893093128 22.6890311159824  L 12.5604186829524 18.9846995169132  C 11.3876635944626 19.6670763862339  10.3222734148269 20.2763414543855  9.3642481440454 20.812494721368  C 8.95130621307525 21.0399536724983  8.5424937001192 21.2674126315935  8.13781060517724 21.4948715986536  C 7.73312751023528 21.7223305657137  7.36560919361526 21.9335424534575  7.03525565531716 22.128507261885  C 6.70490211701907 22.3234720703125  6.41997218497357 22.485942751967  6.18046585918066 22.6159193068484  C 5.94095953338775 22.7458958617298  5.7799121822528 22.8271312025571  5.69732380577581 22.8596253293301  C 5.53214703662676 22.9408606781222  5.36284084136609 22.9692930470135  5.18940521999378 22.944922436004  C 5.01596959862148 22.9205518249945  4.85905166550062 22.8596253213653  4.71865142063122 22.7621429251164  C 4.57825117576181 22.6646605288675  4.47501569301928 22.5468692794908  4.40894497240361 22.4087691769864  C 4.34287425178793 22.2706690744819  4.32635657163402 22.1285072220606  4.35939193194185 21.9822836197224  C 4.37590960399824 21.9172953502466  4.41720380033427 21.7588864344387  4.48327452094994 21.5070568722989  C 4.54934524156561 21.255227310159  4.62367479011194 20.9546565419299  4.70626316658893 20.6053445676114  C 4.78885154306592 20.2560325932929  4.88382818978026 19.8701647183899  4.99119310673196 19.4477409429023  C 5.09855802368366 19.0253171674147  5.21005234245439 18.594769852269  5.32567606304415 18.1560989974651  C 5.57344122486526 17.1487807489057  5.85424173889666 16.0114859534297  6.16807760513837 14.7442146110372  C 5.19353464610541 13.9156141234486  4.31809775180089 13.1763725083804  3.54176692222481 12.5264897658328  C 3.21141338392672 12.2502896086131  2.88518925554519 11.9781512092753  2.56309453708022 11.7100745678192  C 2.24099981861526 11.441997926363  1.95194046855566 11.1982918959164  1.69591648690143 10.9789564764794  C 1.4398925052472 10.7596210570423  1.22929212174803 10.5809033040365  1.06411533640392 10.4428032174618  C 0.898938551059803 10.3047031308871  0.808091322359555 10.2275295559065  0.79157365030317 10.2112824925199  C 0.593361520846288 10.0325647315492  0.424055325585612 9.8335381413453  0.283655064521143 9.61420272190825  C 0.143254803456673 9.39486730247119  0.0895723530783565 9.17147010922263  0.122607713386192 8.94401114216257  C 0.155643073694028 8.71655217510251  0.246490302394277 8.53783442209663  0.395149399486939 8.40785788314495  C 0.5438084965796 8.27788134419327  0.708985265728647 8.19664600336603  0.890679706934078 8.16415186066323  L 8.54662308574316 7.48177498337766  L 11.3959224142957 0.950453470952462  C 11.4950284790241 0.690500377119351  11.6354287319911 0.467103183870791  11.8171231731965 0.280261891206784  C 11.9988176144019 0.0934206304022614  12.2465827762231 0  12.5604186586598 0  C 12.7255954278089 0  12.8701251068874 0.0365558846548101  12.9940076958955 0.10966765396443  C 13.1178902849036 0.182779423274051  13.2211257676461 0.26807652994792  13.3037141441231 0.365558973986039  C 13.3863025206001 0.463041418024159  13.4565026511324 0.560523830202793  13.5143145357198 0.658006210521944  C 13.5721264203073 0.755488590841094  13.6175500346574 0.836723931668332  13.6505853787702 0.901712233003659  L 16.4255551587764 7.43303374542886  L 24.0814985375855 8.13978121779422  C 24.4118520758836 8.22101656658633  24.6430995575508 8.31849897876496  24.7752409825871 8.43222845433012  C 24.9073824076233 8.54595792989528  24.9734531201415 8.72467568290115  24.9734531201415 8.96838171334774  C 24.9734531201415 9.19584066447806  24.9032529896092 9.39486725468196  24.7628527285448 9.56546148395944  C 24.6224524674803 9.73605571323692  24.4448874361914 9.94320583513409  24.2301576346782 10.1869118496509  Z " fill-rule="nonzero" fill="#fafafa" stroke="none" transform="matrix(1 0 0 1 44 584 )" />
  </g>
</svg>