<?xml version="1.0" encoding="utf-8"?>
<svg version="1.1" xmlns:xlink="http://www.w3.org/1999/xlink" width="25px" height="24px" xmlns="http://www.w3.org/2000/svg">
  <g transform="matrix(1 0 0 1 -44 -636 )">
    <path d="M 0.114329268292683 1.20673076923077  C 0.114329268292683 0.578725961538462  0.617497141768293 0.0709134615384621  1.23975800304878 0  L 23.7602419969512 0  C 24.3825028582317 0.0709134615384615  24.8856707317073 0.578725961538462  24.8856707317073 1.20673076923077  L 24.8856707317073 2.34254807692308  C 24.8856707317073 2.97055288461539  24.3825028582317 3.47836538461539  23.7602419969512 3.47836538461539  L 1.23975800304878 3.47836538461539  C 0.617497141768293 3.47836538461539  0.114329268292683 2.97055288461539  0.114329268292683 2.34254807692308  L 0.114329268292683 1.20673076923077  Z M 0.114329268292683 11.4320913461538  C 0.114329268292683 10.8040865384615  0.617497141768293 10.2962740384615  1.23975800304878 10.2962740384615  L 15.8762862042683 10.2962740384615  C 16.4985470655488 10.2962740384615  17.0017149390244 10.8040865384615  17.0017149390244 11.4320913461538  L 17.0017149390244 12.5679086538462  C 17.0017149390244 13.1959134615385  16.4985470655488 13.7037259615385  15.8762862042683 13.7037259615385  L 1.23975800304878 13.7037259615385  C 0.617497141768293 13.7037259615385  0.114329268292683 13.1959134615385  0.114329268292683 12.5679086538462  L 0.114329268292683 11.4320913461538  Z M 0.114329268292683 21.6574519230769  C 0.114329268292683 21.0294471153846  0.617497141768293 20.5216346153846  1.23975800304878 20.5216346153846  L 23.7602419969512 20.5216346153846  C 24.3825028582317 20.5216346153846  24.8856707317073 21.0294471153846  24.8856707317073 21.6574519230769  L 24.8856707317073 22.7932692307692  C 24.8856707317073 23.4212740384615  24.3825028582317 23.9290865384615  23.7602419969512 24  L 1.23975800304878 24  C 0.617497141768293 23.9290865384615  0.114329268292683 23.4212740384615  0.114329268292683 22.7932692307692  L 0.114329268292683 21.6574519230769  Z M 21.1937881097561 15.1881009615385  C 20.6876429115854 15.6568509615385  19.8182641006098 15.3263221153846  19.8182641006098 14.6652644230769  L 19.8182641006098 9.33473557692308  C 19.8182641006098 8.67367788461539  20.6876429115854 8.34014423076923  21.1937881097561 8.80889423076923  L 24.0847703887195 11.4741586538462  C 24.4003668064024 11.765625  24.4003668064024 12.234375  24.0847703887195 12.5258413461538  L 21.1937881097561 15.1881009615385  Z " fill-rule="nonzero" fill="#c2c2c2" stroke="none" transform="matrix(1 0 0 1 44 636 )" />
  </g>
</svg>