<?xml version="1.0" encoding="utf-8"?>
<svg version="1.1" xmlns:xlink="http://www.w3.org/1999/xlink" width="19px" height="26px" xmlns="http://www.w3.org/2000/svg">
  <g transform="matrix(1 0 0 1 -44 -686 )">
    <path d="M 17.5697016203704 17.7249026242323  C 17.806189994856 17.9150672054228  18.1518690072016 17.8770342942784  18.3417181069959 17.6444901485987  C 18.5326646090535 17.4108593650514  18.4959019290123 17.0685630883462  18.2605109825103 16.8805717828911  C 17.1219650205761 15.9694116939473  15.7633916409465 15.3076388923173  14.2890432098765 14.9142698463076  C 17.0429526748971 13.7037363386131  18.9710733796296 10.975146018592  18.9710733796296 7.80483050339416  C 18.970524691358 3.51471719415792  15.4462448559671 0.0254684729691349  11.1148319701646 0.0254684729691349  C 6.78341905864197 0.0254684729691349  3.25913922325103 3.51471719415792  3.25913922325103 7.80428718446031  C 3.25913922325103 11.0012257349124  5.21798695987654 13.7515491688462  8.00865910493827 14.9463261727742  C 3.45941358024691 16.2774783684504  0.127177649176954 20.4458863518372  0.127177649176954 25.3765827186615  C 0.127177649176954 25.6770427752799  0.372993827160494 25.9199101335136  0.675874485596708 25.9199101335136  C 0.978755144032921 25.9199101335136  1.22457132201646 25.6770427752799  1.22457132201646 25.3765827186615  C 1.22457132201646 19.9764514580701  5.66133400205761 15.58310592142  11.1148319444444 15.58310592142  C 13.5515946244856 15.58310592142  15.8445987397119 16.3437643225876  17.5697016203704 17.7249026242323  Z M 11.1148319701646 14.4964510917159  C 7.38808299897119 14.4964510662474  4.3565329218107 11.4940237248621  4.3565329218107 7.80428718446031  C 4.3565329218107 4.11400732512465  7.38808299897119 1.11212332814168  11.1148319701646 1.11212332814168  C 14.841580941358 1.11212332814168  17.8731310185185 4.11400735059312  17.8731310185185 7.80428720992879  C 17.8731310185185 11.4945670692645  14.841580941358 14.4964510917159  11.1148319701646 14.4964510917159  Z " fill-rule="nonzero" fill="#dfdfdf" stroke="none" transform="matrix(1 0 0 1 44 686 )" />
  </g>
</svg>