<?xml version="1.0" encoding="utf-8"?>
<svg version="1.1" xmlns:xlink="http://www.w3.org/1999/xlink" width="30px" height="30px" xmlns="http://www.w3.org/2000/svg">
  <g transform="matrix(1 0 0 1 -50 -721 )">
    <path d="M 14.950334997347 29.9895280043058  C 10.9628806877137 29.9895280043058  7.21425775262351 28.4362722284659  4.39459864550171 25.6164243154121  C 1.57493953837991 22.7965764023583  0.0202046403725976 19.0425771790871  0.0202046403725976 15.0499163194019  C 0.0202046403725976 11.0572554597168  1.57396690632001 7.30541362983665  4.39362601373659 4.48452072912758  C 7.21328512115317 1.6636278284185  10.961237275675 0.111417040233858  14.9493623655819 0.111417040233858  C 18.9374874554887 0.111417040233858  22.6854396103054 1.66467281607379  25.504763327143 4.48452072912758  C 28.3240870439807 7.30436864218136  29.8792244101521 11.0583341564123  29.8792244101521 15.0486016576468  C 29.8792244101521 19.0388691588813  28.3257304563141 22.7942167532442  25.5048304053178 25.6150759446167  C 22.6839303543214 28.4359351359893  18.9378899239476 29.9895280043058  14.9503685361396 29.9895280043058  Z M 24.0003705014149 6.00433690829366  C 21.5850243028534 3.5894721734579  18.3694035034194 2.2540794142685  14.950334997347 2.2540794142685  C 11.5302938598043 2.2540794142685  8.31601462091734 3.5853933514389  5.89932686151397 6.00329192093464  C 3.4826391021106 8.42119049043039  2.15301811903077 11.6326390011653  2.15301811903077 15.0499500287385  C 2.15301811903077 18.4672610563116  3.48294095301262 21.6803950306149  5.89832069066148 24.0953271841237  C 8.31370042831034 26.5102593376326  11.5283150571867 27.8445396907899  14.9493623655819 27.8445396907899  C 18.3704096739771 27.8445396907899  21.5836827420116 26.5135628460961  24.0003705014149 24.0953271841237  C 26.4170582608183 21.6770915221513  27.7466792438981 18.4659463945565  27.7456730730456 15.0486353669833  C 27.7446669024879 11.631358049043  26.4157166999764 8.41920164312943  24.0003705014149 6.00433690829366  Z M 22.4156181791652 13.9781637664185  L 16.0167417365287 13.9781637664185  L 16.0167417365287 7.54683942651445  C 15.9912520799434 6.95487092377886  15.4930969879731 6.49578436587726  14.9041517642377 6.52143712091884  C 14.3509255983964 6.54550554010547  13.9079086587667 6.99080500632049  13.8839282578705 7.54683942651445  L 13.8839282578705 13.9781300573782  L 7.48542074431081 13.9781300573782  C 6.89647552028063 14.0037828124198  6.43970758165311 14.5044666101444  6.46519723823842 15.0964014038397  C 6.48917763883976 15.6524021149934  6.9321945787643 16.0976678715756  7.48545428339818 16.1217700000988  L 13.8838947190779 16.1217700000988  L 13.8838947190779 22.5530943397065  C 13.9094179147506 23.1450291334018  14.4075730064261 23.6041156910071  14.9965182304563 23.5784966455984  C 15.5497108572102 23.5543945170752  15.99272779684 23.1090950511564  16.0167081974413 22.5530606306662  L 16.0167081974413 16.1218037094353  L 22.4155511009905 16.1218037094353  C 23.0044963250206 16.1474901738134  23.5026514166961 15.6884036159118  23.5281410735762 15.09643511288  C 23.5536978083363 14.5044666101444  23.0968963303266 14.0037828121235  22.5079175672091 13.9781637664185  C 22.4771544621858 13.9768191781576  22.446347745101 13.9768191781576  22.4155846400778 13.9781637664185  Z " fill-rule="nonzero" fill="#ededed" stroke="none" transform="matrix(1 0 0 1 50 721 )" />
  </g>
</svg>