<?xml version="1.0" encoding="utf-8"?>
<svg version="1.1" xmlns:xlink="http://www.w3.org/1999/xlink" width="15px" height="8px" xmlns="http://www.w3.org/2000/svg">
  <g transform="matrix(1 0 0 1 -252 -147 )">
    <path d="M 14.9462221746575 0.708860759493672  C 14.9462221746575 0.870648734177217  14.8834144905822 1.03283227848101  14.7579997859589 1.15625  L 8.1810520119863 7.63904272151899  C 7.80540988869863 8.00929588607595  7.19459011130137 8.00929588607595  6.8189479880137 7.63904272151899  L 0.242000214041096 1.15625  C -0.00882919520547909 0.909018987341772  -0.00882919520547909 0.508504746835443  0.242000214041096 0.261273734177215  C 0.492829623287672 0.0140427215189873  0.899173266267123 0.0140427215189873  1.1500026755137 0.261273734177215  L 7.5 6.52037183544304  L 13.8499973244863 0.261471518987343  C 14.1008267337329 0.0142405063291154  14.5071703767123 0.0142405063291154  14.7579997859589 0.261471518987343  C 14.8834144905822 0.385087025316457  14.9462221746575 0.547072784810128  14.9462221746575 0.708860759493672  Z M 7.7269504494863 6.74406645569621  L 7.7269504494863 6.75019778481013  L 7.7269504494863 6.74406645569621  Z " fill-rule="nonzero" fill="#fafafa" stroke="none" transform="matrix(1 0 0 1 252 147 )" />
  </g>
</svg>