<?xml version="1.0" encoding="utf-8"?>
<svg version="1.1" xmlns:xlink="http://www.w3.org/1999/xlink" width="91px" height="81px" xmlns="http://www.w3.org/2000/svg">
  <g transform="matrix(1 0 0 1 -12 -44 )">
    <path d="M 71 71  C 71 72.035217247355  71.1503625285898 73.0294265323674  71.4308707392142 73.9624130081494  C 64.1152445446519 78.4155331621598  55.2035591111197 81  45.5 81  C 20.02 81  0 63.18  0 40.5  C 0 17.82  20.02 0  45.5 0  C 70.98 0  91 17.82  91 40.5  C 91 48.2852722438014  88.6410128194894 55.4978832639623  84.5119548419269 61.613632763256  C 83.4234851731022 61.2161589997548  82.2412188137904 61  81 61  C 75.4 61  71 65.4  71 71  Z " fill-rule="nonzero" fill="#ffffff" stroke="none" transform="matrix(1 0 0 1 12 44 )" />
  </g>
</svg>