<?xml version="1.0" encoding="utf-8"?>
<svg version="1.1" xmlns:xlink="http://www.w3.org/1999/xlink" width="12px" height="12px" xmlns="http://www.w3.org/2000/svg">
  <g transform="matrix(1 0 0 1 -87 -109 )">
    <path d="M 11.9911020234375 6  C 11.9911020234375 5.652739453125  11.710108546875 5.3713862109375  11.3631597890625 5.3713862109375  L 6.6286018125 5.3713862109375  L 6.6286018125 0.637163999999999  C 6.6286018125 0.289903453125  6.3476083359375 0.00855021093749968  5.9999880234375 0.00855021093749968  C 5.6538307265625 0.00855021093749968  5.3720937421875 0.289903453125  5.3720937421875 0.637163999999999  L 5.371781953125 5.3713861875  L 0.637511765625 5.3713862109375  C 0.290610960937499 5.3713862109375  0.00889797656249925 5.65309921875  0.00889797656249925 6  C 0.00889797656249925 6.347260546875  0.290610984374998 6.6285898125  0.637511765625 6.6285898125  L 5.371686 6.6285898125  L 5.3713742109375 11.362836  C 5.3713742109375 11.709712828125  5.653830703125 11.9914737890625  5.999988 11.9914737890625  C 6.3476083125 11.9914737890625  6.6286017890625 11.709712828125  6.6286017890625 11.362836  L 6.6286018125 6.6285898125  L 11.362488234375 6.6285898125  C 11.710108546875 6.6285898125  11.9911020234375 6.347260546875  11.9911020234375 6  Z " fill-rule="nonzero" fill="#eeeeee" stroke="none" transform="matrix(1 0 0 1 87 109 )" />
  </g>
</svg>