<?xml version="1.0" encoding="utf-8"?>
<svg version="1.1" xmlns:xlink="http://www.w3.org/1999/xlink" width="25px" height="25px" xmlns="http://www.w3.org/2000/svg">
  <g transform="matrix(1 0 0 1 -69 -300 )">
    <path d="M 0.000512158203125 7.142432421875  L 7.14241994628906 7.142432421875  L 7.14241994628906 0.000524633789063256  L 0.000512158203125335 0.000524633789063256  L 0.000512158203125 7.142432421875  Z M 8.92828413085937 7.142432421875  L 16.0701669433594 7.142432421875  L 16.0701669433594 0.000524633789063256  L 8.92828413085938 0.000524633789063256  L 8.92828413085937 7.142432421875  Z M 17.8576050537109 0.000499658203125  L 17.8576050537109 7.14240744628906  L 24.9994878662109 7.14240744628906  L 24.9994878662109 0.000499658203124975  L 17.8576050537109 0.000499658203125  Z M 0.000512158203125 16.0717283691406  L 7.14241994628906 16.0717283691406  L 7.14241994628906 8.92829660644531  L 0.000512158203125335 8.92829660644531  L 0.000512158203125 16.0717283691406  Z M 8.92828413085937 16.0717283691406  L 16.0701669433594 16.0717283691406  L 16.0701669189453 8.92829660644531  L 8.92828410644531 8.92829660644531  L 8.92828413085937 16.0717283691406  Z M 17.8576050537109 16.0717283691406  L 24.9994878662109 16.0717283691406  L 24.9994878417969 8.92829660644531  L 17.8576050292969 8.92829660644531  L 17.8576050537109 16.0717283691406  Z M 0.000512158203125 24.9994753662109  L 7.14241994628906 24.9994753662109  L 7.14241994628906 17.8575925537109  L 0.000512158203125335 17.8575925537109  L 0.000512158203125 24.9994753662109  Z M 8.92828413085937 24.9994753662109  L 16.0701669433594 24.9994753662109  L 16.0701669433594 17.8575925537109  L 8.92828413085938 17.8575925537109  L 8.92828413085937 24.9994753662109  Z M 17.8576050537109 24.9994753662109  L 24.9994878662109 24.9994753662109  L 24.9994878662109 17.8575925537109  L 17.8576050537109 17.8575925537109  L 17.8576050537109 24.9994753662109  Z " fill-rule="nonzero" fill="#eaeaea" stroke="none" transform="matrix(1 0 0 1 69 300 )" />
  </g>
</svg>