<?xml version="1.0" encoding="utf-8"?>
<svg version="1.1" xmlns:xlink="http://www.w3.org/1999/xlink" width="25px" height="25px" xmlns="http://www.w3.org/2000/svg">
  <g transform="matrix(1 0 0 1 -284 -300 )">
    <path d="M 25 12.56130065007  C 25 16.0403340475358  23.5616071533203 19.1808813112173  21.2482142822266 21.4383439977845  C 18.9928571533203 23.6389481061489  15.9071428466797 25  12.5 25  C 5.59642856445312 25  0 19.4305259347792  0 12.56130065007  C 0 5.6920753410681  5.59642856445312 0.123489704796331  12.5 0.123489704796331  C 19.4035714355469 0.123489704796331  25 5.6920753410681  25 12.56130065007  Z M 5.79821428222656 20.873312004431  C 7.63392856445313 22.3409736959733  9.9625 23.2231698684313  12.5 23.2231698684313  C 15.0375 23.2231698684313  17.3660714355469 22.3409736959733  19.2017857177734 20.873312004431  C 18.2241071533203 18.1103411409748  15.6116071533203 16.1149609132074  12.5 16.1149609132074  C 9.38839284667969 16.1149609132074  6.77589284667969 18.1103411409748  5.79821428222656 20.873312004431  Z M 23.2142857177734 12.5621890547264  C 23.2142857177734 6.67466240574471  18.4169642822266 1.90120824102146  12.5 1.90120824102146  C 6.58303571777344 1.90120824102146  1.78571428222656 6.67466240574471  1.78571428222656 12.5621890547264  C 1.78571428222656 15.2229921923585  2.77142856445312 17.6492537313433  4.39107143554688 19.5175906113961  C 5.80357143554687 16.4632196196751  8.89910715332031 14.3390191862951  12.5 14.3390191862951  C 16.1 14.3390191862951  19.1964285644531 16.4632196196751  20.6089285644531 19.5175906113961  C 22.2285714355469 17.6501421359997  23.2142857177734 15.2229921923585  23.2142857177734 12.5621890547264  Z M 16.9642857177734 9.00852879158893  C 16.9642857177734 11.4614427860697  14.9651785644531 13.450604132657  12.5 13.450604132657  C 10.0339285644531 13.450604132657  8.03571428222656 11.4614427860697  8.03571428222656 9.00852879158893  C 8.03571428222656 6.5547263681592  10.0339285644531 4.56645345052083  12.5 4.56645345052083  C 14.9651785644531 4.56645345052083  16.9642857177734 6.5547263681592  16.9642857177734 9.00852879158893  Z M 15.1785714355469 9.00764036263993  C 15.1785714355469 7.53642502817941  13.9794642822266 6.34328358208955  12.5 6.34328358208955  C 11.0205357177734 6.34328358208955  9.82142856445313 7.53642502817941  9.82142856445313 9.00764036263993  C 9.82142856445313 10.4797441260494  11.0205357177734 11.6728855721393  12.5 11.6728855721393  C 13.9794642822266 11.6728855721393  15.1785714355469 10.4797441260494  15.1785714355469 9.00764036263993  Z " fill-rule="nonzero" fill="#eaeaea" stroke="none" transform="matrix(1 0 0 1 284 300 )" />
  </g>
</svg>