<?xml version="1.0" encoding="utf-8"?>
<svg version="1.1" xmlns:xlink="http://www.w3.org/1999/xlink" width="24px" height="18px" xmlns="http://www.w3.org/2000/svg">
  <g transform="matrix(1 0 0 1 -358 -142 )">
    <path d="M 0.0681818181818182 0.847826086956522  C 0.0681818181818182 0.358695652173913  0.409090909090909 0.0326086956521739  0.920454545454545 0  L 23.0795454545455 0  C 23.5909090909091 0.0326086956521739  23.9318181818182 0.358695652173913  23.9318181818182 0.847826086956522  C 23.9318181818182 1.33695652173913  23.5909090909091 1.66304347826087  23.0795454545455 2  L 0.920454545454545 2  C 0.409090909090909 1.66304347826087  0.0681818181818182 1.33695652173913  0.0681818181818182 0.847826086956522  Z M 0.0681818181818182 9  C 0.0681818181818182 8.51086956521739  0.409090909090909 8.18478260869565  0.920454545454545 8.18478260869565  L 23.0795454545455 8.18478260869565  C 23.5909090909091 8.18478260869565  23.9318181818182 8.51086956521739  23.9318181818182 9  C 23.9318181818182 9.48913043478261  23.5909090909091 9.81521739130435  23.0795454545455 9.81521739130435  L 0.920454545454545 9.81521739130435  C 0.409090909090909 9.81521739130435  0.0681818181818182 9.48913043478261  0.0681818181818182 9  Z M 0.0681818181818182 17.1521739130435  C 0.0681818181818182 16.6630434782609  0.409090909090909 16.3369565217391  0.920454545454545 16  L 23.0795454545455 16  C 23.5909090909091 16.3369565217391  23.9318181818182 16.6630434782609  23.9318181818182 17.1521739130435  C 23.9318181818182 17.6413043478261  23.5909090909091 17.9673913043478  23.0795454545455 18  L 0.920454545454545 18  C 0.409090909090909 17.9673913043478  0.0681818181818182 17.6413043478261  0.0681818181818182 17.1521739130435  Z " fill-rule="nonzero" fill="#eeeeee" stroke="none" transform="matrix(1 0 0 1 358 142 )" />
  </g>
</svg>