<?xml version="1.0" encoding="utf-8"?>
<svg version="1.1" xmlns:xlink="http://www.w3.org/1999/xlink" width="17px" height="16px" xmlns="http://www.w3.org/2000/svg">
  <g transform="matrix(1 0 0 1 -37 -64 )">
    <path d="M 16.7215517241379 15.734375  C 17.0054956896552 15.4773848684211  17.0054956896552 15.0600328947368  16.7215517241379 14.8030427631579  L 13.1127155172414 11.5649671052632  C 13.7538793103448 10.9646381578947  14.2622306034483 10.2717927631579  14.6240301724138 9.50699013157895  C 15.0201778017241 8.66817434210526  15.2193965517241 7.77796052631579  15.2193965517241 6.86101973684211  C 15.2193965517241 5.94407894736842  15.0201778017241 5.05386513157895  14.6240301724138 4.21504934210526  C 14.2416217672414 3.40501644736842  13.6966325431034 2.67927631578947  13.0005118534483 2.05427631578947  C 12.3043911637931 1.42927631578947  11.4960668103448 0.939967105263157  10.5938577586207 0.596628289473684  C 9.65959051724138 0.24095394736842  8.66807650862069 0.0620888157894733  7.64679418103448 0.0620888157894733  C 6.62551185344828 0.0620888157894733  5.63399784482759 0.24095394736842  4.69973060344828 0.596628289473684  C 3.79752155172414 0.939967105263157  2.98919719827586 1.42927631578947  2.29307650862069 2.05427631578947  C 1.59695581896552 2.67927631578947  1.05196659482759 3.40501644736842  0.669558189655173 4.21504934210526  C 0.273410560344828 5.05386513157895  0.074191810344828 5.94407894736842  0.074191810344828 6.86101973684211  C 0.074191810344828 7.77796052631579  0.273410560344828 8.66817434210526  0.669558189655173 9.50699013157895  C 1.05196659482759 10.3170230263158  1.59695581896552 11.0427631578947  2.29307650862069 11.6677631578947  C 2.98919719827586 12.2927631578947  3.79752155172414 12.7820723684211  4.69973060344828 13.1254111842105  C 5.63399784482759 13.4810855263158  6.62551185344828 13.6599506578947  7.64679418103448 13.6599506578947  C 8.66807650862069 13.6599506578947  9.65959051724138 13.4810855263158  10.5938577586207 13.1254111842105  C 11.0907596982759 12.9362664473684  11.5601831896552 12.7018914473684  11.999838362069 12.4243421052632  L 15.6865301724138 15.734375  C 15.970474137931 15.9893092105263  16.4376077586207 15.9893092105263  16.7215517241379 15.734375  Z M 11.9654903017241 10.7364309210526  C 10.8113954741379 11.7726151315789  9.27718211206897 12.3421052631579  7.64679418103448 12.3421052631579  C 6.01640625 12.3421052631579  4.48219288793103 11.7726151315789  3.32809806034483 10.7364309210526  C 2.17400323275862 9.70024671052632  1.53970905172414 8.32483552631579  1.53970905172414 6.85896381578947  C 1.53970905172414 5.39309210526316  2.17400323275862 4.01768092105263  3.32809806034483 2.98149671052632  C 4.48219288793103 1.9453125  6.01411637931035 1.37582236842105  7.64679418103448 1.37582236842105  C 9.27718211206897 1.37582236842105  10.8113954741379 1.9453125  11.9654903017241 2.98149671052632  C 13.1195851293103 4.01768092105263  13.7538793103448 5.39309210526316  13.7538793103448 6.85896381578947  C 13.7538793103448 8.32483552631579  13.1195851293103 9.70024671052632  11.9654903017241 10.7364309210526  Z " fill-rule="nonzero" fill="#7e7e81" stroke="none" transform="matrix(1 0 0 1 37 64 )" />
  </g>
</svg>