<?xml version="1.0" encoding="utf-8"?>
<svg version="1.1" xmlns:xlink="http://www.w3.org/1999/xlink" width="39px" height="39px" xmlns="http://www.w3.org/2000/svg">
  <defs>
    <mask fill="white" id="clip11">
      <path d="M 10 31  C 10 33.4887362711778  10.4345146077949 35.8589685584115  11.233323965332 38.040476431413  C 4.53319479145273 34.840817079174  0 28.0385714656942  0 20  C 0 8.80000000000001  8.79999999999995 0  20 0  C 28.7112634472218 0  35.9706242634441 5.3236429803311  38.7666758073218 12.9595234600175  C 36.1316331022812 11.7011538764611  33.1614284433853 11  30 11  C 18.8 11  10 19.8  10 31  Z " fill-rule="evenodd" />
    </mask>
  </defs>
  <g transform="matrix(1 0 0 1 -26 -160 )">
    <path d="M 10 31  C 10 33.4887362711778  10.4345146077949 35.8589685584115  11.233323965332 38.040476431413  C 4.53319479145273 34.840817079174  0 28.0385714656942  0 20  C 0 8.80000000000001  8.79999999999995 0  20 0  C 28.7112634472218 0  35.9706242634441 5.3236429803311  38.7666758073218 12.9595234600175  C 36.1316331022812 11.7011538764611  33.1614284433853 11  30 11  C 18.8 11  10 19.8  10 31  Z " fill-rule="nonzero" fill="#ffffff" stroke="none" transform="matrix(1 0 0 1 26 160 )" />
    <path d="M 10 31  C 10 33.4887362711778  10.4345146077949 35.8589685584115  11.233323965332 38.040476431413  C 4.53319479145273 34.840817079174  0 28.0385714656942  0 20  C 0 8.80000000000001  8.79999999999995 0  20 0  C 28.7112634472218 0  35.9706242634441 5.3236429803311  38.7666758073218 12.9595234600175  C 36.1316331022812 11.7011538764611  33.1614284433853 11  30 11  C 18.8 11  10 19.8  10 31  Z " stroke-width="2" stroke="#797979" fill="none" transform="matrix(1 0 0 1 26 160 )" mask="url(#clip11)" />
  </g>
</svg>