<?xml version="1.0" encoding="utf-8"?>
<svg version="1.1" xmlns:xlink="http://www.w3.org/1999/xlink" width="30px" height="47px" xmlns="http://www.w3.org/2000/svg">
  <defs>
    <linearGradient gradientUnits="userSpaceOnUse" x1="15" y1="0.94" x2="15" y2="45.59" id="LinearGradient18">
      <stop id="Stop19" stop-color="#f79b99" offset="0" />
      <stop id="Stop20" stop-color="#ef433e" offset="1" />
    </linearGradient>
  </defs>
  <g transform="matrix(1 0 0 1 -190 -758 )">
    <path d="M 20.0123746289063 11.3916079351963  C 19.6148870507813 4.84081105143229  13.9188150585938 -0.143368123998395  7.28902224609375 0.255818118990384  C 5.16925344039624 0.383197362210553  3.12013622883583 1.06828956103061  1.34733287109375 2.24233456405248  C 8.286491015625 3.62818869065505  12.7376019140625 9.09063817608173  12.6513546679688 15.6922748172075  C 12.6101059570313 18.9196579326923  11.62576171875 21.3637321940104  9.92331492187501 23.8492315016526  C 15.9493766015625 22.8795102038261  20.3798631445313 17.539452726863  20.0123746289063 11.3916079351963  Z M 29.332708359375 40.2723560834836  C 28.03524890625 34.6366748322316  23.8541295703125 28.4681176056691  15.1319021484375 28.4681176056691  L 10.088309765625 28.4681176056691  C 6.35155154296875 28.4681176056691  2.7722883984375 29.8577376402244  0.0667478906249968 31.7632870643029  L 9.37583203125 31.7632870643029  C 18.9999062695312 31.7632870643029  21.91544015625 38.5927611365685  22.9822818164063 46.7930257036258  C 26.6215430859375 46.4465621719752  29.752695234375 45.3958738531651  29.752695234375 42.8350564453125  L 29.332708359375 40.2723560834836  Z " fill-rule="nonzero" fill="url(#LinearGradient18)" stroke="none" transform="matrix(1 0 0 1 190 758 )" />
  </g>
</svg>