<?xml version="1.0" encoding="utf-8"?>
<svg version="1.1" xmlns:xlink="http://www.w3.org/1999/xlink" width="20px" height="4px" xmlns="http://www.w3.org/2000/svg">
  <g transform="matrix(1 0 0 1 -349 -384 )">
    <path d="M 2.08333984375 3.98413318452381  C 0.9166796875 3.98413318452381  0 3.11110491071429  0 2  C 0 0.888895089285714  0.91666015625 0.0158668154761897  2.08333984375 0.0158668154761897  C 3.25001953125 0.0158668154761897  4.16666015625 0.888895089285714  4.16666015625 2  C 4.16666015625 3.11110491071429  3.25 3.98413318452381  2.08333984375 3.98413318452381  Z M 17.91666015625 3.98413318452381  C 16.74998046875 3.98413318452381  15.83333984375 3.11110491071429  15.83333984375 2  C 15.83333984375 0.888895089285714  16.75 0.0158668154761897  17.91666015625 0.0158668154761897  C 19.0833203125 0.0158668154761897  20 0.888895089285714  20 2  C 20 3.11110491071429  19.08333984375 3.98413318452381  17.91666015625 3.98413318452381  Z M 10 3.98413318452381  C 8.83333984375 3.98413318452381  7.91666015625 3.11110491071429  7.91666015625 2  C 7.91666015625 0.888895089285714  8.83333984375 0.0158668154761897  10 0.0158668154761897  C 11.16666015625 0.0158668154761897  12.08333984375 0.888895089285714  12.08333984375 2  C 12.08333984375 3.11110491071429  11.16666015625 3.98413318452381  10 3.98413318452381  Z " fill-rule="nonzero" fill="#bdbdbd" stroke="none" transform="matrix(1 0 0 1 349 384 )" />
  </g>
</svg>