<?xml version="1.0" encoding="utf-8"?>
<svg version="1.1" xmlns:xlink="http://www.w3.org/1999/xlink" width="19px" height="19px" xmlns="http://www.w3.org/2000/svg">
  <defs>
    <linearGradient gradientUnits="userSpaceOnUse" x1="9.5" y1="0.38" x2="9.5" y2="18.43" id="LinearGradient21">
      <stop id="Stop22" stop-color="#f79b99" offset="0" />
      <stop id="Stop23" stop-color="#ef433e" offset="1" />
    </linearGradient>
  </defs>
  <g transform="matrix(1 0 0 1 -207 -750 )">
    <path d="M 18.99808575929 9.4154305451802  C 18.99808575929 9.41606930617488  18.9980854186177 9.41670806711568  18.9980847372732 9.41734682774698  C 18.9980874949066 9.41862914192025  18.9980888737245 9.41991145867726  18.9980888737245 9.4211937758157  C 18.9980888737245 10.4091513256227  18.1971910366868 11.2100491626605  17.2092334868798 11.2100491626605  C 17.2066784156304 11.2100491626605  17.2041233473136 11.2100436884429  17.2015682995212 11.2100327400454  L 11.379169610005 11.2100327400454  L 11.379169610005 17.0324314295615  C 11.3791702928069 17.0330701909131  11.3791706342079 17.0337089525885  11.3791706342079 17.0343477143051  C 11.3791706342079 18.0236733307522  10.5777240128624 18.8259761979989  9.58839896043347 18.8270326045867  C 9.58712177830545 18.8270353314325  9.58584459363005 18.8270366948566  9.58456740859108 18.8270366948566  C 8.59343654759623 18.8270366948566  7.78996623356587 18.0235663808262  7.78996623356587 17.0324355198314  C 7.78996623356587 17.0317957353635  7.78996657569551 17.0311559509366  7.78996725995464 17.0305161668347  L 7.78996725995464 11.2100327400454  L 1.96756857043851 11.2100327400454  C 0.975753896682374 11.2095040541851  0.172009508817672 10.4053311169572  0.172009508817672 9.41351630229335  C 0.172009508817672 8.4213275299417  0.976337429450269 7.61699960930911  1.96852620180191 7.61699960930911  L 7.78996725995464 7.61699986454133  L 7.78996725995464 1.79843170047883  C 7.78996700458628 0.805814181886567  8.59386617911439 0.00191500735846867  9.58552606634325 0.00191500735846867  C 10.5768119958953 0.00191500735846867  11.380556186978 0.805230649182808  11.3810848727318 1.79651643775202  L 11.3810848727318 7.61699986454133  L 17.203483562248 7.61891512726815  C 18.1949241556402 7.61997153676317  18.99808575929 8.42398938897028  18.99808575929 9.4154305451802  Z " fill-rule="nonzero" fill="url(#LinearGradient21)" stroke="none" transform="matrix(1 0 0 1 207 750 )" />
  </g>
</svg>