<?xml version="1.0" encoding="utf-8"?>
<svg version="1.1" xmlns:xlink="http://www.w3.org/1999/xlink" width="51px" height="50px" xmlns="http://www.w3.org/2000/svg">
  <g transform="matrix(1 0 0 1 -160 -285 )">
    <path d="M 185.5 285  C 199.78 285  211 296  211 310  C 211 324  199.78 335  185.5 335  C 171.22 335  160 324  160 310  C 160 296  171.22 285  185.5 285  Z " fill-rule="nonzero" fill="#ffffff" stroke="none" />
    <path d="M 185.5 285.5  C 199.5 285.5  210.5 296.28  210.5 310  C 210.5 323.72  199.5 334.5  185.5 334.5  C 171.5 334.5  160.5 323.72  160.5 310  C 160.5 296.28  171.5 285.5  185.5 285.5  Z " stroke-width="1" stroke="#797979" fill="none" />
  </g>
</svg>