<?xml version="1.0" encoding="utf-8"?>
<svg version="1.1" xmlns:xlink="http://www.w3.org/1999/xlink" width="45px" height="45px" xmlns="http://www.w3.org/2000/svg">
  <defs>
    <linearGradient gradientUnits="userSpaceOnUse" x1="22.5" y1="0" x2="22.5" y2="45" id="LinearGradient27">
      <stop id="Stop28" stop-color="#b63b44" offset="0" />
      <stop id="Stop29" stop-color="#9b418b" offset="1" />
    </linearGradient>
  </defs>
  <g transform="matrix(1 0 0 1 -889 -364 )">
    <path d="M 42.9089521928267 30.2632533482143  L 42.9090021306818 30  L 30.9537298029119 30  L 36.0503872958097 2.62029575892857  C 36.2562311345881 1.50393415178571  35.5232932350852 0.431166294642854  34.4132745916193 0.22414620535714  C 33.3029063831676 0.0170256696428538  32.2366333007813 0.75430245535714  32.030839399858 1.8706640625  L 30.2846624200994 12  L 18.7959594726563 12  L 20.4039084694602 2.62029575892857  C 20.6097523082386 1.50393415178571  19.8767644708807 0.431166294642853  18.7667458274148 0.224146205357138  C 17.656777121804 0.0172265624999955  16.5901045365767 0.754302455357138  16.3842107599432 1.87066406249999  L 14.6380837180398 12  L 2.18782737038352 12  C 1.05893221768466 11.3413560267857  0.143771084872159 12.261796875  0.143771084872159 13.3971428571429  C 0.143771084872159 14.5324888392857  1.05893221768466 15.4528794642857  2.18782737038352 16  L 13.8800770152699 16  L 11.149375221946 30.2632533482143  L 2.47941450639205 30.2632533482143  C 1.35051935369318 30.2632533482143  0.435358220880682 31.1836439732143  0.435358220880682 32.3189899553571  C 0.435358220880682 33.4543359375  1.35051935369318 34.3747767857143  2.47941450639205 34.3747767857143  L 10.391318581321 34.3747767857143  L 8.88983709161932 42.5182198660714  C 8.68399325284091 43.6345814732143  9.41698109019886 44.7072991071428  10.5269497958097 44.9142689732143  C 10.6529929421165 44.9378236607143  10.7782370827415 44.9491238839286  10.9019830877131 44.9491238839286  C 11.867881081321 44.9491238839286  12.727011940696 44.2573995535714  12.9094349254261 43.2678515625  L 18.037802956321 16  L 29.5265059037642 16  L 26.7959039861506 30.2632533482143  L 20.2816106622869 30.2632533482143  C 19.1527155095881 30.2632533482143  18.2375543767756 31.1836439732143  18.2375543767756 32.3189899553571  C 18.2375543767756 33.4543359375  19.1527155095881 34.3747767857143  20.2816106622869 34.3747767857143  L 26.0378473455256 34.3747767857143  L 24.5363658558239 42.5182198660714  C 24.3305220170455 43.6345814732143  25.0634599165483 44.7072991071428  26.1734286221591 44.9142689732143  C 26.2994717684659 44.9378236607143  26.424765846946 44.9491238839286  26.5484619140625 44.9491238839286  C 27.5143599076705 44.9491238839286  28.3734907670455 44.2573995535714  28.5559137517756 43.2678515625  L 30.1955732865767 34  L 42.9089022549716 34  C 44.0378473455256 34.3747767857143  44.952958540483 33.4543861607143  44.952958540483 32.3189899553571  C 44.952958540483 31.18359375  44.0378473455256 30.2632533482143  42.9089521928267 30.2632533482143  Z " fill-rule="nonzero" fill="url(#LinearGradient27)" stroke="none" transform="matrix(1 0 0 1 889 364 )" />
  </g>
</svg>