<?xml version="1.0" encoding="utf-8"?>
<svg version="1.1" xmlns:xlink="http://www.w3.org/1999/xlink" width="45px" height="45px" xmlns="http://www.w3.org/2000/svg">
  <g transform="matrix(1 0 0 1 -15 -69 )">
    <path d="M 37.5 69  C 50.1 69  60 78.9  60 91.5  C 60 104.1  50.1 114  37.5 114  C 24.9 114  15 104.1  15 91.5  C 15 78.9  24.9 69  37.5 69  Z " fill-rule="nonzero" fill="#ffffff" stroke="none" />
    <path d="M 37.5 69.5  C 49.82 69.5  59.5 79.18  59.5 91.5  C 59.5 103.82  49.82 113.5  37.5 113.5  C 25.18 113.5  15.5 103.82  15.5 91.5  C 15.5 79.18  25.18 69.5  37.5 69.5  Z " stroke-width="1" stroke="#797979" fill="none" />
  </g>
</svg>