<?xml version="1.0" encoding="utf-8"?>
<svg version="1.1" xmlns:xlink="http://www.w3.org/1999/xlink" width="11px" height="11px" xmlns="http://www.w3.org/2000/svg">
  <g transform="matrix(1 0 0 1 -349 -447 )">
    <path d="M 10.347593359375 10.3482079052734  C 10.6096156738281 10.0861555908203  10.6096906298828 9.66002450195312  10.3478631542969 9.39819702636719  L 6.44992095214844 5.50019486816406  L 10.3478481542969 1.60180297363281  C 10.4749319921875 1.47473412109375  10.5448296044922 1.305783671875  10.5447096777344 1.12605553222656  C 10.544589765625 0.946867026367188  10.4747970800781 0.778666064453125  10.3482079052734 0.652436640625  C 10.2214238623047 0.525322817382813  10.0530430322266 0.455410219726563  9.87382454101562 0.45530529296875  C 9.6938415625 0.45530529296875  9.52507099609375 0.525202905273438  9.3981220703125 0.652106860351563  L 5.50028480957031 4.54995912109375  L 1.60178798828125 0.652106875  C 1.47488403320313 0.525202919921875  1.30624836425781 0.455305307617187  1.12693993164063 0.455305307617187  C 0.947646499023437 0.455305307617187  0.779010830078125 0.525187919921875  0.652121860351562 0.652076889648438  C 0.525262875976563 0.778591108398438  0.455410234375 0.946867026367187  0.455290307617187 1.12605553222656  C 0.455170395507812 1.305783671875  0.525067993164062 1.47473412109375  0.652121860351562 1.60178798828125  L 4.55058869628906 5.5001798828125  L 0.652106875 9.39821201171875  C 0.525187919921875 9.52511596679688  0.455290322265625 9.69372165039062  0.455290322265625 9.87304506835937  C 0.455290322265625 10.0523385009766  0.525202919921875 10.2209891552734  0.652121875 10.3479081103516  C 0.779010844726562 10.4748120654297  0.947631513671875 10.5446796923828  1.1269249609375 10.5446796923828  C 1.30623339355469 10.5446796923828  1.47488404785156 10.4747970800781  1.60177301757812 10.3479081103516  L 5.50022486816406 6.44995092285156  L 9.39819704101562 10.3479081103516  C 9.52510099609375 10.4748120654297  9.6938865625 10.5446796923828  9.87343483398437 10.5446796923828  C 10.0531030175781 10.5445597802734  10.2213189648437 10.4747820800781  10.347593359375 10.3482079052734  Z " fill-rule="nonzero" fill="#585858" stroke="none" transform="matrix(1 0 0 1 349 447 )" />
  </g>
</svg>