<?xml version="1.0" encoding="utf-8"?>
<svg version="1.1" xmlns:xlink="http://www.w3.org/1999/xlink" width="100px" height="100px" xmlns="http://www.w3.org/2000/svg">
  <g transform="matrix(1 0 0 1 -165 -178 )">
    <path d="M 215 178  C 243 178  265 200  265 228  C 265 256  243 278  215 278  C 187 278  165 256  165 228  C 165 200  187 178  215 178  Z " fill-rule="nonzero" fill="#ffffff" stroke="none" />
    <path d="M 215 178.5  C 242.72 178.5  264.5 200.28  264.5 228  C 264.5 255.72  242.72 277.5  215 277.5  C 187.28 277.5  165.5 255.72  165.5 228  C 165.5 200.28  187.28 178.5  215 178.5  Z " stroke-width="1" stroke="#797979" fill="none" />
  </g>
</svg>