<?xml version="1.0" encoding="utf-8"?>
<svg version="1.1" xmlns:xlink="http://www.w3.org/1999/xlink" width="75px" height="74px" xmlns="http://www.w3.org/2000/svg">
  <defs>
    <linearGradient gradientUnits="userSpaceOnUse" x1="37.5" y1="0" x2="37.5" y2="74" id="LinearGradient8">
      <stop id="Stop9" stop-color="#e9984d" offset="0" />
      <stop id="Stop10" stop-color="#aa3b99" offset="1" />
    </linearGradient>
  </defs>
  <g transform="matrix(1 0 0 1 -177 -366 )">
    <path d="M 37.5185836050741 18.0157107262265  C 37.5092952969746 18.0157107262265  37.5000069901206 18.0157175056147  37.4907186919864 18.0157310643856  C 37.4814303938521 18.0157175056147  37.4721420869982 18.0157107262265  37.4628537788987 18.0157107262265  C 26.9570605661888 18.0157107262265  18.4404324356901 26.502814206268  18.4404324356901 36.9721869169167  C 18.4404324356901 36.9814430251778  18.4404392386622 36.9906991321976  18.4404528446009 36.9999552305279  C 18.4404392386622 37.0092113288582  18.4404324356901 37.018467435878  18.4404324356901 37.0277235441391  C 18.4404324356901 47.4970962547878  26.9570605661888 55.9841997348293  37.4628537788987 55.9841997348293  C 37.4721420869944 55.9841997348293  37.481430393856 55.9841929554411  37.4907186919864 55.9841793966703  C 37.5000069901245 55.9841929554411  37.5092952969707 55.9841997348293  37.5185836050741 55.9841997348293  C 48.024376817784 55.9841997348293  56.5410049482826 47.4970962547878  56.5410049482826 37.0277235441391  C 56.5410049482826 37.018467435878  56.5409981453106 37.0092113288582  56.5409845393719 36.9999552305279  C 56.5409981453106 36.9906991322014  56.5410049482826 36.981443025174  56.5410049482826 36.9721869169167  C 56.5410049482826 26.502814206268  48.024376817784 18.0157107262265  37.5185836050741 18.0157107262265  Z M 49.8722313002784 36.9999552305279  C 49.8594620352223 43.8090922346949  44.3235430932066 49.3258197702975  37.4907186919864 49.3385447680589  C 30.6578942907662 49.3258197702975  25.1219753487504 43.8090922346949  25.1092060836943 36.9999552305279  C 25.1219753487504 30.1908182263609  30.6578942907662 24.6740906907583  37.4907186919864 24.6613656929969  C 44.3235430932066 24.6740906907583  49.8594620352223 30.1908182263609  49.8722313002784 36.9999552305279  Z M 57.3159892771504 12.8129900030379  L 57.3206300036742 12.8129900030379  C 54.8626998449463 12.8129900030379  52.8701537602491 14.7986285151877  52.8701537602491 17.2480377513542  C 52.8701537602491 19.6974469875207  54.8626998449463 21.6830854996705  57.3206300036742 21.6830854996705  C 59.7802258663366 21.6830854996705  61.7711062470993 19.7083561939221  61.7711062470993 17.2480377513542  C 61.7711127433177 17.2449473803166  61.7711159914295 17.2418570033479  61.7711159914295 17.2387666255297  C 61.7711159914295 14.7944656638939  59.7827253872725 12.8129682264527  57.329921273569 12.8129682264527  C 57.3252772661944 12.8129682264527  57.3206332616747 12.8129754853234  57.3159892771504 12.8129900030379  Z M 74.625975063815 36.9999552305279  L 74.6213342647741 36.9999552305279  C 74.6213342647741 31.8897073002449  74.6677417475634 26.8257059716269  74.380015470297 21.72933202907  C 74.0922891930306 15.8051441840905  72.7371911016785 10.5469071718385  68.3934520034035 6.21822661457849  C 64.0311499265161 1.87104735883997  58.7685430606049 0.529896344145709  52.8237462774598 0.247792167933887  C 47.6957210608756 -0.0435613575172055  42.6141032545637 0.00268524414789781  37.5000002175511 0.00268524414789781  C 32.3719749284499 0.00268524414789781  27.290357122138 -0.0435613575172055  22.1762540851253 0.247792167933886  C 16.2314573744972 0.534521054898153  10.9549281839805 1.88492134656607  6.61118915822246 6.21360197609166  C 2.24888708133509 10.5607812318302  0.903070515547648 15.8051441840905  0.619984964805074 21.72933202907  C 0.327617888497834 26.839579959353  0.374025371287129 31.903581287971  0.374025371287129 36.9999552305279  C 0.374025371287129 42.1009538115717  0.327617888497834 47.1742044894289  0.61534423828125 52.2705784319858  C 0.903070515547649 58.1947662769653  2.25816860689975 63.4530032892173  6.6019076326578 67.7816838464773  C 10.9642097095452 72.1288631022158  16.2268165754564 73.4700141169101  22.1716133586015 73.7521182931219  C 27.3042793742265 74.043471818573  32.3858971805384 73.9972252169079  37.5000002175511 73.9972252169079  C 42.6280255066522 73.9972252169079  47.7096433129641 74.043471818573  52.8237462774598 73.7567429316087  C 58.7685429880879 73.4700141169101  64.0450721786046 72.1196137529766  68.3888112768796 67.7909331957166  C 72.751113353767 63.4437539399781  74.0969299195545 58.1993909877178  74.380015470297 52.2752030704727  C 74.6770232731281 47.1742044894289  74.625975063815 42.110203160811  74.625975063815 36.9999552305279  Z M 66.4489791054301 58.8283444957538  L 66.4536198319539 58.8283444957538  C 65.8383845925693 60.4272680527752  64.8801776013976 61.8730115383254  63.6459679571473 63.0645319219492  C 62.4468819650915 64.291403101813  60.9949661203916 65.2444205617393  59.390403097927 65.8578257808809  C 54.5036966758199 67.790933123451  42.906470258354 67.3562152267834  37.4907186919864 67.3562152267834  C 32.0749671256188 67.3562152267834  20.4684592551052 67.790933123451  15.5817528329981 65.8670751301201  C 13.9760312753285 65.255920353803  12.5236566370582 64.3026017481288  11.3261879737778 63.0737812711885  C 10.0950487694927 61.8788521654988  9.13871595935001 60.431969686423  8.52317682549505 58.8329692065063  C 6.58798538056931 53.9539542122831  7.02885635829208 42.3969319755096  7.02885635829208 36.9999552305279  C 7.02885635829208 31.6029784855462  6.58798538056931 20.036706971799  8.52317682549505 15.1669413268152  C 9.2007258711711 13.4835655465179  10.017497292698 12.2210336751621  11.3261879737778 10.9261291898673  C 12.6348786548577 9.63122470457254  13.8925209815903 8.80803551290244  15.5817528329981 8.13283533093567  C 20.4684592551052 6.20897726533922  32.0749671256188 6.64369523427245  37.4907186919864 6.64369523427245  C 42.906470258354 6.64369523427245  54.5129781288676 6.20897733760484  59.3996846234916 8.13283533093567  C 61.0889164748994 8.80803551290244  62.3558403997138 9.62197542759889  63.6552494827119 10.9261291898673  C 64.9639400912748 12.2302829521358  65.7807115128017 13.4835654742523  66.4582605584777 15.1669413268152  C 68.3888112768796 20.036706971799  67.9525810256807 31.6029784855462  67.9525810256807 36.9999552305279  C 67.9525810256807 42.3969319755096  68.3888112043626 53.9539542122831  66.4489791054301 58.8283444957538  Z " fill-rule="nonzero" fill="url(#LinearGradient8)" stroke="none" transform="matrix(1 0 0 1 177 366 )" />
  </g>
</svg>