<?xml version="1.0" encoding="utf-8"?>
<svg version="1.1" xmlns:xlink="http://www.w3.org/1999/xlink" width="26px" height="23px" xmlns="http://www.w3.org/2000/svg">
  <g transform="matrix(1 0 0 1 -349 -8 )">
    <path d="M 10.51826171875 2.252734375  L 10.51357421875 2.252734375  L 10.51826171875 2.252734375  Z M 10.1875 2.6875  L 15.794921875 2.6875  L 18.06689453125 5.69306640625  L 18.62939453125 6.4375  L 23 6.4375  L 23 20.5  L 3 20.5  L 3 6.4375  L 7.375 6.4375  L 7.9375 5.6875  L 10.1875 2.6875  Z M 17.00927734375 1.1845703125  C 16.83203125 0.9501953125  16.55517578125 0.8125  16.261328125 0.8125  L 9.64375 0.8125  C 9.3958984375 0.8125  9.16240234375 0.929101562499994  9.01357421875 1.12744140625  L 6.4375 4.5625  L 1.60029296875 4.5625  C 1.165234375 4.5625  0.8125 4.915234375  1 5.35029296875  L 1 21.5875  C 0.8125 22.02255859375  1.165234375 22.37529296875  1.60029296875 22  L 24.4 22  C 24.83505859375 22.37529296875  25.18779296875 22.02255859375  25 21.5875  L 25 5.35029296875  C 25.18779296875 4.915234375  24.83505859375 4.5625  24.4 4.5625  L 19.5625 4.5625  L 17.00927734375 1.1845703125  Z " fill-rule="nonzero" fill="#e9e9e9" stroke="none" transform="matrix(1 0 0 1 349 8 )" />
  </g>
</svg>