<?xml version="1.0" encoding="utf-8"?>
<svg version="1.1" xmlns:xlink="http://www.w3.org/1999/xlink" width="12px" height="12px" xmlns="http://www.w3.org/2000/svg">
  <g transform="matrix(1 0 0 1 -356 -15 )">
    <path d="M 2.25 6  C 2.25 3.93222656250001  3.9322265625 2.25  6 2.25  C 8.0677734375 2.25  9.75 3.93222656250001  9.75 6  C 9.75 8.06777343749999  8.0677734375 9.75  6 9.75  C 3.9322265625 9.75  2.25 8.06777343749999  2.25 6  Z M 11.625 6  C 11.625 2.893359375  9.106640625 0.375  6 0.375  C 2.893359375 0.375  0.375 2.893359375  0.375 6  C 0.375 9.106640625  2.893359375 11.625  6 11.625  C 9.106640625 11.625  11.625 9.106640625  11.625 6  Z " fill-rule="nonzero" fill="#e9e9e9" stroke="none" transform="matrix(1 0 0 1 356 15 )" />
  </g>
</svg>