<?xml version="1.0" encoding="utf-8"?>
<svg version="1.1" xmlns:xlink="http://www.w3.org/1999/xlink" width="185px" height="50px" xmlns="http://www.w3.org/2000/svg">
  <g transform="matrix(1 0 0 1 -122 -302 )">
    <path d="M 14.4518380457064 2.36711596140988  C 14.3898335277008 1.26917933900085  11.0725914044321 0.11345658611136  9.49147599030467 0.720211003916341  C 5.70919993074802 2.19375752220842  1.55489676315786 6.35435944216258  0.252801731301849 11.5551117585252  C -1.39031820083098 18.1716245104594  5.49218411772847 20.9453591078422  6.08122709002763 20.0496739898749  C 6.7322746315789 18.9806304327061  4.84113657617721 18.605020536823  4.4691094168976 15.1667453911548  C 3.9730732216066 10.7461058840386  6.17423386703601 5.77649808959785  8.96443753601109 3.60951791002006  C 9.49147599030467 3.20501494889674  9.46047373130187 3.75398323622121  9.46047373130187 4.79413372814978  C 9.46047373130187 6.64329014232496  9.33646469529091 23.3145907441016  9.33646469529091 26.8106520680103  C 9.33646469529091 31.5202222752889  9.11944883102485 32.993768745821  8.74742167174524 34.4673152641131  C 8.37539451246541 35.9697548476454  7.75534928116346 36.9521191613335  8.22038321745145 37.3566221224568  C 8.74742167174524 37.7900181488203  10.9485823171744 36.7498676568918  12.2196750900276 35.1029627471583  C 13.7387859861495 33.1093410067819  14.2968266994459 30.7112163052823  14.3898335277008 28.110840147101  C 14.513842563712 24.9903887190754  14.513842563712 20.0207809246346  14.513842563712 17.1603670837711  C 14.513842563712 14.5599909255898  14.5758470817175 6.93222074696722  14.4518380457064 2.36711596140988  Z M 184.0962195 27.504085681536  C 184.313235364266 26.2616837329258  184.065217240997 25.4526778106792  183.352165232687 25.4526778106792  C 182.794124519391 25.4526778106792  182.546106396122 25.9727530327634  182.360092790859 26.8684381984908  C 181.647040731302 29.9311034960359  180.902986463989 30.6245371095616  179.910914073407 30.6245371095616  C 178.825834854571 30.6245371095616  177.864764722992 29.093204460789  177.616746599723 26.0594322762441  C 177.430733045706 23.6613075747445  177.461735304709 19.2406680676282  177.709753427978 14.8489216257522  C 177.771757945983 13.9532365077849  177.492737563712 13.0575513898176  174.8885475 12.1907592893304  C 173.772466022161 11.8151493934473  172.160348400277 11.2661811061228  171.354289563712 13.0864444072977  C 169.060122141274 18.2294106409399  168.192058786704 22.3033333174133  167.975042922438 23.9502382271468  C 167.975042922438 24.0369174228675  167.851033886427 24.0658104881077  167.820031627424 23.8635590314261  C 167.696022591413 22.5344778870952  167.385999950138 20.1363531855956  167.354997639889 15.0511730824339  C 167.354997639889 14.0688087687458  167.137981775623 13.2309097334989  165.959895831025 12.5374761199733  C 165.184839253463 12.1040800936097  162.890671831025 11.2950741713631  162.053610735457 12.2485454198109  C 161.3405586759 13.0286582768173  160.503497580332 15.0800661476741  159.635434277008 17.5359769796542  C 158.922382217452 19.5295987200306  158.426346022161 20.8875729296017  158.426346022161 20.8875729773617  C 158.426346022161 20.8875730251218  158.426346022161 15.5134622217977  158.457348281163 13.4620543031808  C 158.457348281163 12.6819414461744  157.899307567867 12.4219038112523  157.713293962604 12.3930107937721  C 156.938237385041 12.1907592893304  155.419126540166 11.8440425064476  154.799081257618 11.8440424586876  C 153.993022421053 11.8440424586876  153.807008867036 12.2485454198109  153.807008867036 12.8552998853759  C 153.807008867036 12.9419790810966  153.682999831025 19.9341017289139  153.682999831025 24.8459233928742  L 153.682999831025 25.5393570063998  C 153.24896815374 27.7930163816983  151.822864085873 30.8556816314834  150.272750930748 30.8556816792435  C 148.722637775623 30.8556817270035  147.97858350831 29.5843866653931  147.978583457064 23.7479867704652  C 147.978583457064 20.3386046422772  148.102592493075 18.8650581717452  148.133594803324 16.409147339765  C 148.164597062327 14.9933869519534  148.226601580332 13.8954503773044  148.226601580332 13.6643058076225  C 148.226601580332 12.9130860158563  146.800497512465 12.5374761199732  146.149449970914 12.3930107937721  C 145.498402429363 12.2485454675709  144.909359457064 12.1907592893304  144.475327779778 12.2196523545706  C 143.855282548476 12.2485454198109  143.390248560942 12.6530483809342  143.390248612188 13.1731236507785  L 143.390248612188 14.0110226382654  C 142.584189775623 12.8264068201356  141.282094743767 11.9885078326488  140.383029130194 11.7573632629669  C 138.026857189751 11.1217157321616  135.577678421053 11.6706840672461  133.748544883656 14.097701833986  C 132.291438556787 16.0046443786417  131.392372943213 18.1716245104594  131.051348042936 21.2920759384851  C 130.803329919668 23.5746283790238  130.86533448892 25.8860738370427  131.330368425208 27.8219094469386  C 130.772327711911 30.0177826439965  129.780255270083 30.9134678097239  128.664173792244 30.9134678097239  C 127.052056119114 30.9134678097239  125.873970174515 28.4575569777438  126.028981469529 24.2102758620689  C 126.121988246537 21.407648199446  126.711031270083 19.4718125895501  127.362078760388 16.6402918616869  C 127.641099142659 15.4267829783169  127.424083278393 14.7911354475117  126.835040306094 14.1843810297068  C 126.308001851801 13.6354127423823  125.191920373961 13.3464820422199  123.61080501108 13.6931988728627  C 122.463721274238 13.9532365077849  120.851603652355 14.213274094947  119.363495015235 14.4155255993887  C 119.363495015235 14.4155255993887  119.456501792244 14.0688087687458  119.518506310249 13.490947368421  C 119.890533469529 10.3993890056357  116.294270963989 10.6594266405578  115.147187278393 11.6417910020059  C 114.465137477839 12.2196523545706  114.000103541551 12.9130860158563  113.814089987535 14.1843810297068  C 113.535069605263 16.1780027700831  115.271196314405 17.1025809532907  115.271196314405 17.1025809532907  C 114.713155601108 19.5295987200306  113.318053740997 22.7078362785366  111.860947414127 24.9903887190754  C 111.085890836565 26.2327906676855  110.496847864266 27.1284757856529  109.721791286704 28.110840147101  L 109.721791286704 27.0417965899322  C 109.690789027701 21.9277234215302  109.783795804709 17.9115868755373  109.814798114959 16.4669334702455  C 109.845800373961 15.0511730824339  109.907804891967 13.9821295730251  109.907804891967 13.7509850033432  C 109.907804891967 13.2020167160187  109.56677999169 12.999765211577  108.82272567313 12.7108345114147  C 108.171678131579 12.4796899417327  107.427623864266 12.3063315502913  106.652567286704 12.2485454198109  C 105.660494896122 12.1907592893304  105.071451872576 12.6530483809342  105.071451923823 13.2309097812589  L 105.071451923823 14.0110226382654  C 104.265393087258 12.8264068201356  102.963298055402 11.9885078326488  102.064232441828 11.7573632629669  C 99.7080605013851 11.1217157321616  97.2588817326871 11.6706840672461  95.429748195291 14.097701833986  C 93.972641868421 16.0046443786417  93.0115716855955 18.6916997325437  92.7325513545706 21.2631828732448  C 92.4845332313019 23.6613075747445  92.5155354903047 25.6838223803611  92.8565603905818 27.4174064858152  C 92.4845332313019 29.1220975260292  91.399454063712 30.9423608749642  90.1903658088644 30.9423608749642  C 88.6402526537397 30.9423608749642  87.7721892991689 29.6710658611138  87.7721892991689 23.8346659661859  C 87.7721892991689 20.4252838379979  87.89619833518 18.9517373674658  87.9272006454294 16.4958265354857  C 87.9582029044322 15.0800661476741  88.0202074224377 13.9821295730251  88.0202074224377 13.7509850033432  C 88.0202074224377 12.999765211577  86.5941033545706 12.6241553156939  85.9430558130195 12.4796899894928  C 85.2610060124654 12.3352246632916  84.6719630401663 12.2774384850511  84.2069291038781 12.3063315502913  C 83.6178861315789 12.3352246155316  83.1838544542937 12.8552998376158  83.1838544542937 13.2309097812589  L 83.1838544542937 14.097701833986  C 82.3777956177285 12.9130860158563  81.0757005858727 12.0751870283695  80.1766349722991 11.8440424586875  C 77.820463031856 11.2083949278823  75.4022865221607 11.7862563282071  73.5421507257618 14.1843810297068  C 72.3330624709142 15.7446067437195  71.3409900803324 17.4781908491737  70.8449538850416 21.3209690037253  C 70.6899425900276 22.4189056261343  70.6279380207757 23.4590560703028  70.6279380207757 24.4414204317509  C 70.1319018254847 27.1862619638934  68.0237479570637 30.3644995223995  66.2566189889197 30.3644994746394  C 65.2335443393352 30.3644994746394  64.2724741565097 28.5153430604642  64.2724742077562 24.585885757952  C 64.2724742077562 19.3273472633489  64.6134991080332 11.8729355239278  64.6755036260388 11.1506087974018  C 64.6755036260388 11.1506087974018  66.8766642714682 11.1217157321616  67.3106959487534 11.1217157321616  C 68.4267774265929 11.1217157321616  69.4188498171746 11.1217157321616  70.8759561440444 11.0639296016811  C 71.6200104626038 11.0350365364409  72.3330624709142 8.57912570446076  71.5580059445984 8.26130193905817  C 71.2169810443214 8.116836612857  68.7678023268699 8.001264304136  67.8067321440444 7.97237128665583  C 67.0006733074791 7.9434782214156  64.7375081440444 7.79901289521443  64.7375081440444 7.79901284745436  C 64.7375081440444 7.79901279969433  64.9545240083102 2.82940505301364  64.9855262160665 2.30932978316934  C 65.0165284750693 1.87593375680578  64.4274855027701 1.64478918712386  64.0864606024931 1.50032386092271  C 63.2493995069253 1.15360703027985  62.4743429293629 1.0091417040787  61.5752773157895 0.835783312637296  C 60.335186801939 0.604638742955374  59.7771460886427 0.835783312637296  59.6531370526315 1.81814762632532  C 59.4981257576178 3.29169414461743  59.4051189293629 7.62565445601299  59.4051189293629 7.62565445601299  C 58.5060533157895 7.62565445601299  55.4058270567867 7.45229606457158  54.4757591842105 7.45229601681152  C 53.6386980886427 7.45229601681152  52.7086302160665 10.8327850319992  53.8867161606648 10.8905712102397  C 55.2198134515236 10.9483573407202  57.5759854432133 10.9772504059604  59.1260985983379 11.0350365364409  C 59.1260985983379 11.0350365364409  59.0640940803324 18.6339136020632  59.0640940290858 20.9742521730824  L 59.0640940290858 21.6965788996084  C 58.1960306745152 25.8571807718025  55.1888111925208 28.0819470818607  55.1888111925208 28.0819470818607  C 55.8398587340721 25.3371055497182  54.5067613919667 23.2856976788614  52.1505894515236 21.5232204604069  C 51.282526096953 20.8875729296017  49.5463993878116 19.6740640462317  47.6242591246538 18.3160898366606  C 47.6242591246538 18.3160898366606  48.7403406024931 17.2759393447321  49.7324129930748 15.2245315216353  C 50.4454650526315 13.7509850033432  50.4764673116343 12.0751870283695  48.7403405512465 11.6995771324864  C 45.8881323642659 11.0928226669214  43.5319604238227 13.0286582768173  42.8189084155124 15.1378522781546  C 42.260867702216 16.7558641226478  42.5708902922437 17.9404799407775  43.6249672520776 19.211775002388  C 43.7179740290858 19.2984541981087  43.7799785470914 19.3851333938294  43.8729853240997 19.5007056547903  C 43.2219377825485 20.6564284076798  42.3538744279779 22.2166541216926  41.578817901662 23.4301630050626  C 39.5016662922437 26.78175895501  37.9205508781163 29.4399212914318  36.742464933518 29.4399212914318  C 35.781394801939 29.4399212914318  35.8123970609418 26.7528658897698  35.8123970096953 24.210275862069  C 35.8123970096953 22.0432957302512  35.998410563712 18.7783789282644  36.1224196509695 15.3689968478365  C 36.1534219099723 14.2421671601872  35.5643789376731 13.6065196771421  34.5723064958448 13.0286582768173  C 33.9522612645429 12.6819414461744  32.6501662326871 11.9885077848887  31.9061119141274 11.9885078326488  C 30.7590281772854 11.9885078326488  27.5037906232686 12.1329731588499  24.4345666232686 20.4541769509982  C 24.0315372049862 21.4943274429267  23.2874828864266 23.4012699398223  23.2874828864266 23.4012699398223  L 23.3494874044322 13.4042681727004  C 23.3494874044322 13.1731236030184  23.225478368421 12.9419790810966  22.9154557271467 12.7975137548954  C 22.3884172728532 12.5374761199732  20.993315463989 11.9885078326488  19.7842272091414 11.9885078326488  C 19.1951842368422 11.9885078326488  18.9161638545706 12.2485454675709  19 12.7397275766549  L 19 28.3997708472634  C 18.8231570775624 29.5843866653931  18.8541593365652 30.9712539402044  18.9781683725761 31.5780083580094  C 19.1021774085873 32.1847628235744  19.3191932728532 32.6759449804184  19.5672113961218 32.9648756805808  C 19.8152295193907 33.2538063807432  20.1252521094182 33.484950902665  20.5902860457064 33.5716300983857  C 21.0243177229916 33.6583092941064  23.4734964916898 33.9472399942688  23.6285077867036 33.0804479415417  C 23.7835190817174 32.0402974496131  23.7835190817174 30.9134678097239  25.0856141135734 26.6950797592893  C 27.1007612049862 20.1363531855956  29.704951268698 16.9292225618493  30.9140395235457 15.8023928742  C 31.1310553878117 15.6001413697583  31.3790734598339 15.6001413697583  31.3480712008311 15.917965135161  C 31.2860666828255 17.3626185882128  31.1000530775624 20.9453591078422  30.9760440415512 24.0080244053873  C 30.6350191412742 32.1847628235744  32.2471368144045 33.6872024071067  34.5103019778392 33.6872024071067  C 36.2464286869807 33.6872024071067  38.7266097146815 32.0691905626134  41.3618020373961 27.99526788614  C 43.0049219695292 25.4526778584392  44.5860373836566 22.9389808482186  45.7331210692521 21.1476105645238  C 46.5391799058172 21.8410442258096  47.4382455193905 22.5922640175757  48.3373111842104 23.3723768745821  C 50.4144627936289 25.2215332887573  51.0965125429362 26.9551173942115  50.662480865651 28.6309153691852  C 50.321455965374 29.9022103830356  49.019360933518 31.2023984621263  46.6941912520776 29.9311034482759  C 46.0121414515236 29.5554935523928  45.7331211204986 29.2665628522304  45.0510713199446 28.8620599388671  C 44.6790441606648 28.6309153691852  44.1210034473684 28.5731292387048  43.7799785470914 28.8042738083867  C 42.9119151925208 29.4110282739517  42.41587899723 30.191141083198  42.1368586149585 31.1446123316458  C 41.8578382326869 32.0691905148534  42.880912933518 32.5892657846977  43.9039875831025 33.0226618110612  C 44.8030531966759 33.3982717069443  46.7251935110804 33.7449885375872  47.9652840249306 33.7738816028274  C 52.7706347340721 33.9183469290286  56.6149153116343 31.6069014710097  59.2811098933519 25.6549293151208  C 59.7461438296399 30.797895548763  61.7922931800553 33.7160954723469  65.3575533753463 33.7160954723469  C 67.7137253157895 33.7160954723469  70.100899566482 30.8556816792435  71.1549765263158 28.0530540166205  C 71.4649991675901 29.20877676951  71.8990308448753 30.191141083198  72.4570715581718 31.0290400706849  C 75.1852706578948 35.074069681918  80.4866576135733 34.207277629191  83.1528521952909 30.7690024357627  C 83.9899132908588 29.699958878594  84.1139223268697 29.3243489827109  84.1139223268697 29.3243490304709  C 84.5169517451523 32.5603727194575  87.3071553628809 33.6872024071067  88.8882707770083 33.6872024071067  C 90.6864020041551 33.6872024071067  92.5155354903047 32.9070895501003  93.8176305221607 30.191141083198  C 93.9726418171745 30.4800717833604  94.127653163435 30.7690024357627  94.313666768698 31.0290400706849  C 97.041865868421 35.0740696819181  102.3432528241 34.207277629191  105.009447354571 30.7690024357627  C 105.133456390582 30.5956440443213  105.257465477839 30.4511786703601  105.350472254848 30.3356064093992  L 105.443479031856 32.4736935237368  C 105.443479031856 32.4736935237368  103.924368135734 33.7738816028274  102.994300314404 34.5539944598338  C 98.9020016135734 38.0500557837425  95.7707730955678 40.7082180724043  95.5227549722992 43.8286695004299  C 95.2437345900277 47.7870199159423  98.6539834903048 49.2605664342344  101.258173605263 49.4339248256758  C 104.017374963989 49.6361763301175  106.373546955679 48.2204159423059  107.830653282548 46.2267942019295  C 109.101746055402 44.4643170312351  109.93880715097 40.7082180724043  109.876802632964 36.9810122265737  C 109.845800373961 35.4785726430414  109.814798114959 33.600523211386  109.783795855956 31.5491152927692  C 111.240902182826 29.9888895787564  112.853019855956 28.0241609036202  114.341128441828 25.7127154456013  C 115.984248373961 23.1990184831407  117.720375083103 19.818529420193  118.619440696676 17.1892601967714  C 118.619440696676 17.1892601967714  120.138551592798 17.1892601967714  121.750669214682 17.1025809532907  C 122.277707668975 17.0736878880505  122.432719015235 17.1603670837712  122.308709979224 17.5359769796543  C 122.184700943213 17.9693730060178  120.262560628809 24.9037094755946  122.029689596953 29.5266004871526  C 123.238777851801 32.7048380456587  125.966976951524 33.7160954245869  127.579094624654 33.716095472347  C 129.470232628809 33.716095472347  131.268363907202 32.3870143280161  132.229434038781 30.42228565288  C 132.353443074792 30.6534302225619  132.47745216205 30.8556816792435  132.601461198061 31.0579331359251  C 135.329660297784 35.1029627471583  140.60004499446 34.207277629191  143.297241783934 30.7978955487631  C 143.917287015235 30.0177826917566  144.258311915512 29.3532420957112  144.258311966759 29.3532420957112  C 144.847354939058 32.7048380456587  147.637558608033 33.7449885375872  149.218673970914 33.7449885375872  C 150.89279616205 33.7449885375872  152.473911576177 33.109341006782  153.74500434903 30.2778202789188  C 153.807008867036 31.5202222275289  153.869013385042 32.5314796542173  154.024024680055 32.8493034196199  C 154.117031457064 33.0515549240616  154.582065393352 33.2826994459834  154.923090344875 33.3982717069443  C 156.442201240997 33.9183469290286  157.992314344875 33.6872024071067  158.581357317175 33.5716300983857  C 158.984386735457 33.484950902665  159.294409376731 33.1960202025027  159.325411635734 32.4159073932563  C 159.449420671745 30.3933925876397  159.356413894737 27.012903572452  160.038463644044 24.4703134969911  C 161.154545121884 20.2519254465565  162.177619771468 18.605020536823  162.642653759003 17.7960146145764  C 162.921674141274 17.3337255229726  163.231696731302 17.2759393924921  163.231696731302 17.7382284840959  C 163.262698990305 18.720592797784  163.293701249308 21.5810066386475  163.727732926593 25.4237847454389  C 164.037755567867 28.2553054733022  164.471787245152 29.9311034482759  164.78180983518 30.4511787181202  C 165.711877707756 31.9536183016525  166.827959185596 32.0402974973732  167.758027058172 32.0402974973732  C 168.347070030471 32.0402974973732  169.587160544321 31.8958321711721  169.46315150831 30.913467809724  C 169.401146990305 30.4511787181202  169.494153767313 27.5329787945363  170.57923298615 23.3723768745821  C 171.292285045706 20.6564284076798  172.470370990305 18.2005175756997  172.90440266759 17.2759393924921  C 173.059413962604 16.9581156270895  173.121418531856 17.2181532620117  173.121418531856 17.2470463272519  C 173.028411754848 19.1250958066673  172.842398149585 25.2504263539975  173.64845698615 28.602022303945  C 174.764538463989 33.1382340720222  177.988773759003 33.6583093418665  179.104855236842 33.6583093418665  C 181.492029487535 33.6583093418665  183.445172009695 31.9536183016525  184.0962195 27.504085681536  Z M 80.1456327132963 14.9067077562327  C 82.3777956177285 15.1089592606744  83.493877095568 17.7671215493361  83.1838544542937 22.6789432132964  C 83.0598454182826 25.0481748495558  82.5638092229918 27.0129035246919  81.75775033518 28.4575569777438  C 80.3316462673131 31.0579331359251  77.4794380803324 31.8669391059318  76.239347566482 28.1397332123412  C 75.3402819529086 25.4237847454389  75.6503045941828 21.7543650300888  76.0223317534626 19.7607432897125  C 76.580372466759 16.8136503008883  77.9754743268699 14.704456251791  80.1456327132963 14.9067077562327  Z M 102.994300314404 17.1892601967714  C 105.257465477839 17.1892601967714  105.38147451385 17.1892601967714  105.040449613573 22.7367293437769  C 104.916440577562 24.9614956538351  104.296395295014 27.2151549813736  103.614345545706 28.4575569777438  C 102.219243736842 31.0579331359251  99.305031031856 31.895832171172  98.0959427770084 28.1397332123412  C 97.2588816814406 25.5682501194001  97.4758975457064 22.2455471869329  97.878926963989 20.1363531855956  C 98.4059654182826 17.4204047186933  100.700132891967 17.1892601967714  102.994300314404 17.1892601967714  Z M 105.629492637119 35.4207865125609  L 105.629492637119 37.9344834750215  C 105.598490378116 42.0084061514949  104.916440577562 45.562253605884  103.42833199169 46.6024040978126  C 101.351180382271 48.0759506161047  98.5299745055401 46.9780139936957  99.1190174778393 44.0020279396313  C 99.646055932133 41.3727586684497  102.064232441828 38.6857033145477  105.629492637119 35.4207865125609  Z M 140.321024612188 14.9067077562327  C 142.55318751662 15.0800661476741  143.607264476454 17.7671215493361  143.359246353186 22.7367293437769  C 143.235237317174 25.192640175757  142.646194293629 27.0995827204127  141.933142234072 28.4575569777438  C 140.538040425208 31.0579331359251  137.623827720222 31.8669391059318  136.414739465374 28.1397332123412  C 135.73268966482 26.0883253414844  135.701687405817 22.6789432132964  136.197723652355 19.818529420193  C 136.693759847645 16.900329496609  138.057859397507 14.704456251791  140.321024612188 14.9067077562327  Z " fill-rule="nonzero" fill="#fffdfd" stroke="none" transform="matrix(1 0 0 1 122 302 )" />
  </g>
</svg>