<?xml version="1.0" encoding="utf-8"?>
<svg version="1.1" xmlns:xlink="http://www.w3.org/1999/xlink" width="90px" height="90px" xmlns="http://www.w3.org/2000/svg">
  <g transform="matrix(1 0 0 1 -170 -401 )">
    <path d="M 215 401  C 240.2 401  260 420.8  260 446  C 260 471.2  240.2 491  215 491  C 189.8 491  170 471.2  170 446  C 170 420.8  189.8 401  215 401  Z " fill-rule="nonzero" fill="#ffffff" stroke="none" />
    <path d="M 215 401.5  C 239.92 401.5  259.5 421.08  259.5 446  C 259.5 470.92  239.92 490.5  215 490.5  C 190.08 490.5  170.5 470.92  170.5 446  C 170.5 421.08  190.08 401.5  215 401.5  Z " stroke-width="1" stroke="#797979" fill="none" />
  </g>
</svg>