<?xml version="1.0" encoding="utf-8"?>
<svg version="1.1" xmlns:xlink="http://www.w3.org/1999/xlink" width="20px" height="20px" xmlns="http://www.w3.org/2000/svg">
  <g transform="matrix(1 0 0 1 -141 -600 )">
    <path d="M 20 1.875  C 20 0.84366666015625  19.1563333398437 0  18.125 0  L 1.875 0  C 0.84366666015625 0  0 0.84366666015625  0 1.875  L 0 18.125  C 0 19.1563333398437  0.84366666015625 20  1.875 20  L 10 20  L 10 11.25  L 7.5 11.25  L 7.5 8.75  L 10 8.75  L 10 7.5  C 10 5.43366666015625  11.6836666601563 3.75  13.75 3.75  L 16.25 3.75  L 16.25 6.25  L 13.75 6.25  C 13.0604799041532 6.25201374117033  12.5020137411703 6.81047990415317  12.5 7.5  L 12.5 8.75  L 16.25 8.75  L 15.625 11.25  L 12.5 11.25  L 12.5 20  L 18.125 20  C 19.1563333398437 20  20 19.1563333398437  20 18.125  L 20 1.875  Z " fill-rule="nonzero" fill="#4192ef" stroke="none" transform="matrix(1 0 0 1 141 600 )" />
  </g>
</svg>