<?xml version="1.0" encoding="utf-8"?>
<svg version="1.1" xmlns:xlink="http://www.w3.org/1999/xlink" width="16px" height="16px" xmlns="http://www.w3.org/2000/svg">
  <g transform="matrix(1 0 0 1 -27 -89 )">
    <path d="M 15.7379310344828 15.734375  C 16.0051724137931 15.4773848684211  16.0051724137931 15.0600328947368  15.7379310344828 14.8030427631579  L 12.3413793103448 11.5649671052632  C 12.9448275862069 10.9646381578947  13.423275862069 10.2717927631579  13.7637931034483 9.50699013157895  C 14.1366379310345 8.66817434210526  14.3241379310345 7.77796052631579  14.3241379310345 6.86101973684211  C 14.3241379310345 5.94407894736842  14.1366379310345 5.05386513157895  13.7637931034483 4.21504934210526  C 13.4038793103448 3.40501644736842  12.8909482758621 2.67927631578947  12.235775862069 2.05427631578947  C 11.5806034482759 1.42927631578947  10.8198275862069 0.939967105263157  9.97068965517241 0.596628289473684  C 9.09137931034483 0.24095394736842  8.15818965517241 0.0620888157894733  7.19698275862069 0.0620888157894733  C 6.23577586206897 0.0620888157894733  5.30258620689655 0.24095394736842  4.42327586206897 0.596628289473684  C 3.57413793103448 0.939967105263157  2.81336206896552 1.42927631578947  2.15818965517241 2.05427631578947  C 1.50301724137931 2.67927631578947  0.990086206896552 3.40501644736842  0.630172413793104 4.21504934210526  C 0.257327586206897 5.05386513157895  0.0698275862068969 5.94407894736842  0.0698275862068969 6.86101973684211  C 0.0698275862068969 7.77796052631579  0.257327586206897 8.66817434210526  0.630172413793104 9.50699013157895  C 0.990086206896552 10.3170230263158  1.50301724137931 11.0427631578947  2.15818965517241 11.6677631578947  C 2.81336206896552 12.2927631578947  3.57413793103448 12.7820723684211  4.42327586206897 13.1254111842105  C 5.30258620689655 13.4810855263158  6.23577586206897 13.6599506578947  7.19698275862069 13.6599506578947  C 8.15818965517241 13.6599506578947  9.09137931034483 13.4810855263158  9.97068965517241 13.1254111842105  C 10.4383620689655 12.9362664473684  10.8801724137931 12.7018914473684  11.2939655172414 12.4243421052632  L 14.7637931034483 15.734375  C 15.0310344827586 15.9893092105263  15.4706896551724 15.9893092105263  15.7379310344828 15.734375  Z M 11.2616379310345 10.7364309210526  C 10.1754310344828 11.7726151315789  8.73146551724138 12.3421052631579  7.19698275862069 12.3421052631579  C 5.6625 12.3421052631579  4.21853448275862 11.7726151315789  3.1323275862069 10.7364309210526  C 2.04612068965517 9.70024671052632  1.44913793103448 8.32483552631579  1.44913793103448 6.85896381578947  C 1.44913793103448 5.39309210526316  2.04612068965517 4.01768092105263  3.1323275862069 2.98149671052632  C 4.21853448275862 1.9453125  5.66034482758621 1.37582236842105  7.19698275862069 1.37582236842105  C 8.73146551724138 1.37582236842105  10.1754310344828 1.9453125  11.2616379310345 2.98149671052632  C 12.3478448275862 4.01768092105263  12.9448275862069 5.39309210526316  12.9448275862069 6.85896381578947  C 12.9448275862069 8.32483552631579  12.3478448275862 9.70024671052632  11.2616379310345 10.7364309210526  Z " fill-rule="nonzero" fill="#000000" stroke="none" transform="matrix(1 0 0 1 27 89 )" />
  </g>
</svg>