<?xml version="1.0" encoding="utf-8"?>
<svg version="1.1" xmlns:xlink="http://www.w3.org/1999/xlink" width="25px" height="19px" xmlns="http://www.w3.org/2000/svg">
  <g transform="matrix(1 0 0 1 -291 -40 )">
    <path d="M 24.3238231803797 0.590436662946427  C 24.6823081487342 0.749476841517856  24.8615506329114 1.04105050223214  24.8615506329114 1.45521763392857  L 24.8615506329114 17.548095703125  C 24.8615506329114 17.9622628348214  24.6823081487342 18.2538364955357  24.3238231803797 18.4228166852679  C 24.2063884493671 18.4725167410714  24.0889537183544 18.4990234375  23.9776997626582 18.4990234375  C 23.7273783623418 18.4990234375  23.5234127768987 18.40625  23.3565318433544 18.220703125  L 17.8000148338608 12.2500697544643  L 17.8000148338608 14.7052525111607  C 17.8000148338608 15.878173828125  17.4106259889241 16.8821149553571  16.6349386867089 17.7170758928571  C 15.8561609968354 18.5520368303571  14.9228639240506 18.9662039620536  13.8257763053797 18.9662039620536  L 4.11268789556962 18.9662039620536  C 3.01869066455696 18.9662039620536  2.08230320411392 18.5487234933036  1.30352551424051 17.7170758928571  C 0.524747824367088 16.8821149553571  0.138449367088607 15.8814871651786  0.138449367088607 14.7052525111607  L 0.138449367088607 4.29474748883929  C 0.138449367088607 3.121826171875  0.527838212025316 2.11788504464286  1.30352551424051 1.28292410714286  C 2.0792128164557 0.447963169642857  3.01560027689873 0.0337960379464286  4.11268789556962 0.0337960379464286  L 13.8226859177215 0.0337960379464286  C 14.9166831487342 0.0337960379464286  15.8530706091772 0.451276506696429  16.6318482990506 1.28292410714286  C 17.4106259889241 2.11788504464286  17.7969244462025 3.11851283482143  17.7969244462025 4.29474748883929  L 17.7969244462025 6.73667689732143  L 23.3565318433544 0.792550223214285  C 23.5234127768987 0.607003348214285  23.7273783623418 0.514229910714284  23.9776997626582 0.514229910714284  C 24.0889537183544 0.514229910714284  24.2032980617089 0.540736607142856  24.3238231803797 0.590436662946427  Z " fill-rule="nonzero" fill="#c9c9c9" stroke="none" transform="matrix(1 0 0 1 291 40 )" />
  </g>
</svg>