<?xml version="1.0" encoding="utf-8"?>
<svg version="1.1" xmlns:xlink="http://www.w3.org/1999/xlink" width="25px" height="25px" xmlns="http://www.w3.org/2000/svg">
  <g transform="matrix(1 0 0 1 -336 -37 )">
    <path d="M 24.8581288343558 23.5640337423313  C 25.044780864092 23.8554096511955  25.0455287081811 24.2285838516349  24.8600460122699 24.5207055214724  C 24.6676147348083 24.8193196703247  24.3352865620894 24.9981542207856  23.9800613496933 25  L 1.14072085889571 25  C 0.78549564649952 24.9981542207856  0.453167473780701 24.8193196703247  0.260736196319019 24.5207055214724  C 0.0788379955657682 24.2305198867898  0.0788379955657693 23.8618880886704  0.260736196319018 23.5717024539877  C 0.451079348905636 23.269881317483  0.783901998301554 23.0878802608417  1.14072085889571 23  L 23.9781441717791 23  C 24.3334593623021 23.0862190829468  24.6659534101685 23.2651428951973  24.8581288343558 23.5640337423313  Z M 22.3274539877301 8.01380368098159  L 13.2170245398773 17.118481595092  C 12.1515002156351 18.0902309857579  10.8128472580218 18.7106966316116  9.38266871165644 18.8957055214724  L 6.90567484662577 19.1027607361963  C 5.70552147239264 19.200536809816  5.04601226993865 19.2561349693252  4.92139570552147 19.2561349693252  C 4.66657185936176 19.2558435145497  4.42209509597838 19.15529814144  4.24079754601227 18.976226993865  C 3.91679447852761 18.6541411042945  3.91679447852761 18.6541411042945  4.11042944785276 16.3171012269939  L 4.31748466257669 13.8439417177914  C 4.50315367095009 12.4135769624191  5.12428381936299 11.0749344011844  6.09662576687117 10.0095858895705  L 15.2070552147239 0.90874233128834  C 16.339440662431 -0.165132993366903  18.1141636320476 -0.165132993366903  19.2465490797546 0.90874233128834  L 22.3274539877301 3.98773006134969  C 23.437030876359 5.10040691882693  23.437030876359 6.90112682350435  22.3274539877301 8.01380368098159  Z M 20.9777607361963 5.32783742331288  L 20.9796779141104 5.32783742331288  L 17.8968558282209 2.24884969325153  C 17.5241147333219 1.88349034107143  16.9275723832426 1.88349034107143  16.5548312883436 2.24884969325153  L 7.44823619631902 11.3477760736196  C 6.78865440485495 12.0910303241678  6.36198697711166 13.0116986330951  6.22124233128834 13.9953987730061  L 6.01226993865031 16.4666411042945  L 5.94708588957055 17.2680214723926  L 6.74846625766871 17.2028374233129  L 9.22546012269939 16.995782208589  C 10.2089338971525 16.8542740919538  11.1293923694421 16.4277039092852  11.8730828220859 15.7687883435583  L 20.9815950920245 6.66986196319018  C 21.3458915602712 6.2960778312114  21.3441871486838 5.69953377563241  20.9777607361963 5.32783742331288  Z " fill-rule="nonzero" fill="#e0e0e0" stroke="none" transform="matrix(1 0 0 1 336 37 )" />
  </g>
</svg>