<?xml version="1.0" encoding="utf-8"?>
<svg version="1.1" xmlns:xlink="http://www.w3.org/1999/xlink" width="55px" height="55px" xmlns="http://www.w3.org/2000/svg">
  <g transform="matrix(1 0 0 1 -19 -168 )">
    <path d="M 46.5 168  C 61.9 168  74 180.1  74 195.5  C 74 210.9  61.9 223  46.5 223  C 31.1 223  19 210.9  19 195.5  C 19 180.1  31.1 168  46.5 168  Z " fill-rule="nonzero" fill="#ffffff" stroke="none" />
    <path d="M 46.5 168.5  C 61.62 168.5  73.5 180.38  73.5 195.5  C 73.5 210.62  61.62 222.5  46.5 222.5  C 31.38 222.5  19.5 210.62  19.5 195.5  C 19.5 180.38  31.38 168.5  46.5 168.5  Z " stroke-width="1" stroke="#797979" fill="none" />
  </g>
</svg>