<?xml version="1.0" encoding="utf-8"?>
<svg version="1.1" xmlns:xlink="http://www.w3.org/1999/xlink" width="25px" height="23px" xmlns="http://www.w3.org/2000/svg">
  <g transform="matrix(1 0 0 1 -336 -182 )">
    <path d="M 9.97790825076219 1.64197198275862  L 9.97314453125 1.64197198275862  L 9.97790825076219 1.64197198275862  Z M 9.64176829268293 2.10172413793103  L 15.3403677591463 2.10172413793103  L 17.6492830602134 5.28002424568966  L 18.2209294016768 6.06724137931035  L 23 6.06724137931035  L 23 21  L 2 21  L 2 6.06724137931035  L 6.78353658536585 6.06724137931035  L 7.35518292682927 5.27413793103448  L 9.64176829268293 2.10172413793103  Z M 16.5744688452744 0.512419181034483  C 16.3943407012195 0.264574353448276  16.1129835175305 0.118965517241379  15.8143578506098 0.118965517241379  L 9.08917682926829 0.118965517241379  C 8.83729516006098 0.118965517241379  8.60000238185976 0.242268318965517  8.44875428734756 0.452007004310345  L 5.83079268292683 4.08448275862069  L 0.914931878810976 4.08448275862069  C 0.472799161585366 4.08448275862069  0.114329268292683 4.45748922413793  0.114329268292683 4.91755118534483  L 0.114329268292683 22.0879310344828  C 0.114329268292683 22.5479929956897  0.472799161585366 22.9209994612069  0.914931878810976 23  L 24.0853658536585 23  C 24.5274985708841 22.9209994612069  24.8859684641768 22.5479929956897  24.8859684641768 22.0879310344828  L 24.8859684641768 4.91755118534483  C 24.8859684641768 4.45748922413793  24.5274985708841 4.08448275862069  24.0853658536585 4.08448275862069  L 19.1692073170732 4.08448275862069  L 16.5744688452744 0.512419181034483  Z " fill-rule="nonzero" fill="#676767" stroke="none" transform="matrix(1 0 0 1 336 182 )" />
  </g>
</svg>