<?xml version="1.0" encoding="utf-8"?>
<svg version="1.1" xmlns:xlink="http://www.w3.org/1999/xlink" width="11px" height="11px" xmlns="http://www.w3.org/2000/svg">
  <g transform="matrix(1 0 0 1 -342 -188 )">
    <path d="M 1.88157894736842 5.5  C 1.88157894736842 3.50478001644737  3.50478001644737 1.88157894736842  5.5 1.88157894736842  C 7.49521998355263 1.88157894736842  9.11842105263158 3.50478001644737  9.11842105263158 5.5  C 9.11842105263158 7.49521998355263  7.49521998355263 9.11842105263158  5.5 9.11842105263158  C 3.50478001644737 9.11842105263158  1.88157894736842 7.49521998355263  1.88157894736842 5.5  Z M 10.9276315789474 5.5  C 10.9276315789474 2.50236430921053  8.49763569078947 0.0723684210526316  5.5 0.0723684210526316  C 2.50236430921053 0.0723684210526316  0.0723684210526316 2.50236430921053  0.0723684210526316 5.5  C 0.0723684210526316 8.49763569078947  2.50236430921053 10.9276315789474  5.5 10.9276315789474  C 8.49763569078947 10.9276315789474  10.9276315789474 8.49763569078947  10.9276315789474 5.5  Z " fill-rule="nonzero" fill="#676767" stroke="none" transform="matrix(1 0 0 1 342 188 )" />
  </g>
</svg>