<?xml version="1.0" encoding="utf-8"?>
<svg version="1.1" xmlns:xlink="http://www.w3.org/1999/xlink" width="23px" height="20px" xmlns="http://www.w3.org/2000/svg">
  <defs>
    <linearGradient gradientUnits="userSpaceOnUse" x1="11.5" y1="0" x2="11.5" y2="20" id="LinearGradient2">
      <stop id="Stop3" stop-color="#487ed0" offset="0" />
      <stop id="Stop4" stop-color="#7cbcf5" offset="1" />
    </linearGradient>
  </defs>
  <g transform="matrix(1 0 0 1 -175 -634 )">
    <path d="M 22.0871638569079 3.96751143292683  C 21.4765100740132 3.35232469512195  20.7569562088816 3.07483803353659  19.9263980263158 3.07483803353659  L 17.2638548519737 3.07483803353659  L 16.6532010690789 1.45512576219512  C 16.4866591282895 1.06364329268293  16.2090892269737 0.728086890243903  15.8226192434211 0.450624047256098  C 15.4340213815789 0.170993711890244  14.9920374177632 0.00321551067073214  14.6034395559211 0.00321551067073214  L 8.50543688322368 0.00321551067073214  C 8.06132504111842 0.00321551067073214  7.67485505756579 0.170993711890244  7.28628083881579 0.450624047256098  C 6.89768297697368 0.730254382621951  6.6201130756579 1.06581078506098  6.4556990131579 1.45512576219512  L 5.78953125 3.07483803353659  L 3.07360197368421 3.07483803353659  C 2.24302014802632 3.07483803353659  1.52136204769737 3.35446836890244  0.912836143092105 3.96751143292683  C 0.302158717105263 4.58269817073171  0.0267166940789474 5.30759336890244  0 6.146484375  L 0 16.9251619664634  C 0.0267166940789474 17.7619092987805  0.304286595394737 18.4889481707317  0.9128125 19.1041349085366  C 1.52346628289474 19.7193216463415  2.24302014802632 19.9967844893293  3.07357833059211 20  L 19.9242465049342 20  C 20.7548283305921 19.9967844893293  21.476486430921 19.7171541539634  22.0849886924342 19.1041349085366  C 22.6956661184211 18.4889481707317  22.9711081414474 17.764052972561  23 16.9251619664634  L 23 6.146484375  C 22.9732360197368 5.30759336890244  22.6977939967105 4.58269817073171  22.0871402138158 3.96751143292683  Z M 16.5443009868421 11.3390100990854  C 16.5443009868421 14.1331697789634  14.2703556743421 16.4218273628049  11.4989360608553 16.4218273628049  C 8.72749280427632 16.4218273628049  6.45357113486842 14.1331459603659  6.45357113486842 11.3390100990854  C 6.45357113486842 8.54699409298781  8.72536492598684 6.2561690167683  11.4989360608553 6.2561690167683  C 14.2725071957237 6.2561690167683  16.5443009868421 8.54485041920732  16.5443009868421 11.3390100990854  Z " fill-rule="nonzero" fill="url(#LinearGradient2)" stroke="none" transform="matrix(1 0 0 1 175 634 )" />
  </g>
</svg>