<?xml version="1.0" encoding="utf-8"?>
<svg version="1.1" xmlns:xlink="http://www.w3.org/1999/xlink" width="26px" height="26px" xmlns="http://www.w3.org/2000/svg">
  <g transform="matrix(1 0 0 1 -9 -29 )">
    <path d="M 19.2499999902344 3  L 6.75000000976562 3  C 4.67893219790015 3.00000000976562  3.00000000976563 4.67893219790015  3 6.75000000976562  L 3 19.2499999902344  C 3.00000000976563 21.3210678020999  4.67893219790015 22.9999999902344  6.75000000976562 23  L 19.2499999902344 23  C 21.3210678020999 22.9999999902344  22.9999999902344 21.3210678020999  23 19.2499999902344  L 23 6.75000000976562  C 22.9999999902344 4.67893219790015  21.3210678020999 3.00000000976563  19.2499999902344 3  Z M 6.74999998046875 0.499999990234376  C 6.74999998046875 0.499999990234376  6.75000000976563 0.499999990234375  6.75000000976562 1  L 19.2499999902344 1  C 19.2499999902344 0.499999990234375  19.2500000195313 0.499999990234374  19.2500000195313 0.499999990234374  C 22.7017797005803 0.499999990234374  25.5000000097656 3.2982202994197  25.5000000097656 6.74999998046875  C 25.5000000097656 6.74999998046875  25.5000000097656 6.75000000976563  25 6.75000000976562  L 25 19.2499999902344  C 25.5000000097656 19.2499999902344  25.5000000097656 19.2500000195313  25.5000000097656 19.2500000195313  C 25.5000000097656 22.7017797005803  22.7017797005803 25.5000000097656  19.2500000195313 25.5000000097656  C 19.2500000195313 25.5000000097656  19.2499999902344 25.5000000097656  19.2499999902344 25  L 6.75000000976563 25  C 6.75000000976563 25.5000000097656  6.74999998046875 25.5000000097656  6.74999998046875 25.5000000097656  C 3.2982202994197 25.5000000097656  0.499999990234376 22.7017797005803  0.499999990234376 19.2500000195313  C 0.499999990234376 19.2500000195313  0.499999990234375 19.2499999902344  1 19.2499999902344  L 1 6.75000000976563  C 0.499999990234375 6.75000000976563  0.499999990234376 6.74999998046875  0.499999990234376 6.74999998046875  C 0.499999990234376 3.2982202994197  3.2982202994197 0.499999990234376  6.74999998046875 0.499999990234376  Z M 12.9999999068677 19.2499999902344  C 9.54822022581869 19.2499999902344  6.74999991663337 16.4517796810491  6.74999991663337 13  C 6.74999991663337 9.54822031895095  9.54822022581869 6.75000000976562  12.9999999068677 6.75000000976562  C 16.4517795879168 6.75000000976562  19.2499998971021 9.54822031895095  19.2499998971021 13  C 19.2499998971021 16.4517796810491  16.4517795879168 19.2499999902344  12.9999999068677 19.2499999902344  Z M 13 16.75  C 15.0710678118655 16.75  16.75 15.0710678118655  16.75 13  C 16.75 10.9289321881345  15.0710678118655 9.25  13 9.25  C 10.9289321881345 9.25  9.25 10.9289321881345  9.25 13  C 9.25 15.0710678118655  10.9289321881345 16.75  13 16.75  Z M 19.8750000097656 7.99999999023437  C 18.8394661038329 7.99999999023437  18.0000000097656 7.16053389616711  18.0000000097656 6.12499999023438  C 18.0000000097656 5.08946608430164  18.8394661038329 4.24999999023437  19.8750000097656 4.24999999023437  C 20.9105339156984 4.24999999023437  21.7500000097656 5.08946608430164  21.7500000097656 6.12499999023438  C 21.7500000097656 7.16053389616711  20.9105339156984 7.99999999023437  19.8750000097656 7.99999999023437  Z " fill-rule="nonzero" fill="#bbbbbc" stroke="none" transform="matrix(1 0 0 1 9 29 )" />
  </g>
</svg>