<?xml version="1.0" encoding="utf-8"?>
<svg version="1.1" xmlns:xlink="http://www.w3.org/1999/xlink" width="145px" height="33px" xmlns="http://www.w3.org/2000/svg">
  <g transform="matrix(1 0 0 1 -114 -29 )">
    <path d="M 11.3271163060942 1.56229653453052  C 11.2785181703601 0.837658363740562  8.67851758725761 0.0748813468334974  7.43926496537393 0.475339262584785  C 4.4747783240998 1.44787996465756  1.21870286842102 4.1938772318273  0.198141897506855 7.62637376062662  C -1.08970886011077 11.9932721769032  4.30468484903042 13.8239370111758  4.76636717867031 13.2327848333174  C 5.27664768421049 12.527216085586  3.79440434349024 12.2793135543032  3.50281548891974 10.0100519581622  C 3.11403036288085 7.09242988346547  4.83926438227147 3.81248873913458  7.02618077146815 2.38228182061324  C 7.43926496537393 2.11530986627185  7.41496589750687 2.477628935906  7.41496589750687 3.16412826057886  C 7.41496589750687 4.38457149393447  7.31776962603882 15.3876298911071  7.31776962603882 17.6950303648868  C 7.31776962603882 20.8033467016907  7.14767611080326 21.7758873722419  6.85608725623275 22.7484280743146  C 6.56449840166208 23.740038199446  6.07851700415515 24.3883986464801  6.44300306232681 24.6553706008215  C 6.85608725623275 24.9414119782214  8.5813212756232 24.2549126535486  9.57758317867032 23.1679554131245  C 10.7682376648199 21.8521650644761  11.2056209265927 20.2694027614863  11.2785181703601 18.5531544970866  C 11.3757144418283 16.4936565545897  11.3757144418283 13.2137154102588  11.3757144418283 11.3258422752889  C 11.3757144418283 9.6095940108893  11.4243125775624 4.57526569299836  11.3271163060942 1.56229653453052  Z M 144.2916315 18.1526965498138  C 144.461725015235 17.332711263731  144.267332432133 16.7987673550483  143.708453831025 16.7987673550482  C 143.271070569252 16.7987673550482  143.07667798615 17.1420170016238  142.930883538781 17.7331692110039  C 142.372004897507 19.7545283073837  141.788827228532 20.2121944923106  141.011256976454 20.2121944923106  C 140.160789480609 20.2121944923106  139.407518296399 19.2015149441207  139.213125713296 17.1992253023211  C 139.067331306094 15.6164629993314  139.091630373961 12.6988409246346  139.286022957064 9.80028827299647  C 139.334621092798 9.20913609513803  139.115929441828 8.61798391727959  137.0748075 8.04590113095807  C 136.200040936288 7.79799859967523  134.936489286704 7.43567953004107  134.304713441828 8.6370533088165  C 132.506582218837 12.0314110230203  131.826208238227 14.7201999894928  131.656114722992 15.8071572299169  C 131.656114722992 15.8643654990926  131.558918451524 15.8834349221511  131.534619383657 15.7499489607412  C 131.437423112188 14.8727554054829  131.194432393352 13.2899931024931  131.170133285318 9.93377423440635  C 131.170133285318 9.28541378737225  131.000039770083 8.73240042410929  130.076675110803 8.27473423918236  C 129.469198333795 7.9886928617824  127.671067110803 7.45474895309964  127.014992198061 8.08403997707517  C 126.456113556787 8.59891446269941  125.800038644044 9.9528436574649  125.119664703601 11.5737448065718  C 124.560786062327 12.8895351552202  124.172000936288 13.7857981335371  124.172000936288 13.7857981650587  C 124.172000936288 13.7857981965804  124.172000936288 10.2388850663865  124.196300004155 8.88495584009934  C 124.196300004155 8.37008135447512  123.758916742382 8.1984565154265  123.613122295014 8.17938712388957  C 123.005645518005 8.04590113095807  121.814991072022 7.81706805425542  121.329009634349 7.81706802273379  C 120.697233789474 7.81706802273379  120.551439382272 8.08403997707517  120.551439382272 8.48449792434808  C 120.551439382272 8.54170619352374  120.454243110803 13.1565071410832  120.454243110803 16.398309439297  L 120.454243110803 16.8559756242239  C 120.114056120499 18.3433908119209  118.996298878116 20.3647498767791  117.7813453241 20.3647499083007  C 116.566391770083 20.3647499398223  115.983214101108 19.5256951991594  115.983214060942 15.673671268507  C 115.983214060942 13.423479063903  116.08041033241 12.4509383933518  116.104709440443 10.8300372442449  C 116.12900850831 9.89563538828923  116.177606644044 9.17099724902091  116.177606644044 9.01844183303086  C 116.177606644044 8.52263677046519  115.059849401662 8.27473423918234  114.549568896122 8.17938712388957  C 114.039288390582 8.08404000859681  113.577606060942 8.04590113095807  113.237419070637 8.06497055401662  C 112.75143767313 8.08403997707517  112.386951574792 8.35101193141657  112.386951614958 8.69426160951379  L 112.386951614958 9.24727494125513  C 111.755175770083 8.46542850128952  110.734614799169 7.91241516954819  110.029941750693 7.75985975355812  C 108.183212391967 7.34033238322667  106.263585789474 7.70265148438245  104.829940584488 9.30448321043079  C 103.687884274238 10.5630652899035  102.983211225762 11.9932721769032  102.715921439058 14.0527701194001  C 102.521528855956 15.5592547301557  102.570127031856 17.0848087324482  102.934613090028 18.3624602349795  C 102.497229828255 19.8117365450377  101.719659536011 20.4028887544178  100.844892972299 20.4028887544178  C 99.5813412825485 20.4028887544178  98.6579766232687 18.7819876053109  98.779471962604 15.9787820689655  C 98.852369166205 14.1290478116343  99.314051536011 12.8513963091031  99.824332001385 10.9825926287133  C 100.043023652355 10.1816767656892  99.8729301371191 9.76214939535771  99.4112478074792 9.36169147960646  C 98.9981636135735 8.9993724099723  98.1233970498615 8.80867814786513  96.8841444681441 9.03751125608941  C 95.9850788365651 9.20913609513801  94.7215271869807 9.38076090266501  93.555171768698 9.51424689559653  C 93.555171768698 9.51424689559653  93.6280689722992 9.28541378737224  93.6766671080333 8.90402526315789  C 93.968255962604 6.86359674371956  91.1495637285318 7.03522158276816  90.2504981371191 7.68358206132392  C 89.7159185637119 8.06497055401662  89.3514325055402 8.52263677046519  89.2056380983381 9.36169147960646  C 88.9869464473684 10.6774818282548  90.3476944085873 11.2877034291718  90.3476944085873 11.2877034291718  C 89.9103111468145 12.8895351552202  88.816852932133 14.9871719438342  87.6747966218837 16.4936565545897  C 87.0673198448753 17.3136418406725  86.6056375152354 17.9047940185309  85.9981607382272 18.5531544970866  L 85.9981607382272 17.8475857493552  C 85.9738616703601 14.4722974582099  86.0467588739613 11.8216473378546  86.0710579819945 10.868176090362  C 86.0953570498614 9.93377423440635  86.1439551855955 9.22820551819658  86.1439551855955 9.07565010220651  C 86.1439551855955 8.71333103257236  85.8766653988919 8.57984503964084  85.2934876897507 8.38915077753367  C 84.7832071842106 8.2365953615436  84.2000295152354 8.12217882319228  83.5925527382272 8.08403997707517  C 82.8149824861496 8.04590113095807  82.3533001163435 8.35101193141655  82.3533001565097 8.7324004556309  L 82.3533001565097 9.24727494125513  C 81.7215243116344 8.46542850128952  80.7009633407203 7.91241516954819  79.9962902922438 7.75985975355812  C 78.1495609335181 7.34033238322667  76.229934331025 7.70265148438245  74.7962891260389 9.30448321043079  C 73.6542328157894 10.5630652899035  72.9009615914127 12.3365218234788  72.6822699806094 14.0337006963416  C 72.4878773975069 15.6164629993314  72.512176465374 16.9513227710383  72.7794662520776 18.0954882806381  C 72.4878773975069 19.2205843671793  71.6374099418283 20.4219581774764  70.6897461745153 20.4219581774764  C 69.4747926204987 20.4219581774764  68.7944186398891 19.5829034683351  68.7944186398891 15.7308795376827  C 68.7944186398891 13.4806873330786  68.8916149113573 12.5081466625275  68.9159140193906 10.8872455134206  C 68.9402130872576 9.95284365746488  68.9888112229917 9.22820551819658  68.9888112229917 9.07565010220651  C 68.9888112229917 8.57984503964084  67.8710539806094 8.331942508358  67.3607734750694 8.23659539306524  C 66.8261939016621 8.14124827777247  66.3645115720222 8.10310940013372  66.0000255138504 8.12217882319228  C 65.5383431842105 8.14124824625083  65.1981561939059 8.48449789282643  65.1981561939059 8.7324004556309  L 65.1981561939059 9.30448321043079  C 64.5663803490305 8.52263677046517  63.5458193781164 7.96962343872385  62.8411463296398 7.81706802273378  C 60.9944169709141 7.39754065240231  59.0990894362881 7.77892917661667  57.6411451634349 9.36169147960646  C 56.6934813961219 10.3914404508549  55.9159111440443 11.5356059604547  55.5271260180056 14.0718395424587  C 55.4056306786703 14.7964777132486  55.3570325027702 15.4829770063998  55.3570325027702 16.1313374849556  C 54.9682473767313 17.9429328961696  53.3159105609418 20.0405696847836  51.930863531856 20.040569653262  C 51.1289942119113 20.040569653262  50.3757229875346 18.8201264199064  50.3757230277008 16.2266846002483  C 50.3757230277008 12.7560491938103  50.6430128144044 7.83613744579233  50.6916109501385 7.35940180628521  C 50.6916109501385 7.35940180628521  52.4168449695291 7.34033238322666  52.7570319598337 7.34033238322666  C 53.6317985235458 7.34033238322666  54.4093687756234 7.34033238322666  55.5514250858726 7.30219353710956  C 56.1346027950138 7.28312411405101  56.6934813961219 5.6622229649441  56.0860046592799 5.45245927977839  C 55.8187148725763 5.35711216448562  53.8990883102494 5.28083444072976  53.1458170858726 5.26176504919285  C 52.5140412409972 5.2426956261343  50.7402090858726 5.14734851084152  50.7402090858726 5.14734847931988  C 50.7402090858726 5.14734844779826  50.910302601108 1.867407334989  50.9346016288089 1.52415765689176  C 50.9589006966759 1.23811627949182  50.4972183670361 1.08556086350175  50.2299285803324 0.99021374820899  C 49.5738536675901 0.761380639984699  48.9663768905817 0.666033524691941  48.2617038421053 0.551616986340616  C 47.2897410069252 0.399061570350547  46.8523577451524 0.551616986340616  46.7551614736842 1.19997743337471  C 46.633666134349 2.1725181354475  46.5607688905817 5.03293194096857  46.5607688905817 5.03293194096857  C 45.8560958421053 5.03293194096857  43.4261887742382 4.91851540261725  42.6972166578947 4.91851537109561  C 42.0411417451524 4.91851537109561  41.3121696288089 7.14963812111949  42.2355342880886 7.18777699875823  C 43.2803943268698 7.22591584487533  45.1271237257618 7.24498526793388  46.3420772797784 7.28312411405101  C 46.3420772797784 7.28312411405101  46.2934791440443 12.2983829773617  46.2934791038781 13.8430064342344  L 46.2934791038781 14.3197420737415  C 45.6131051232687 17.0657393093896  43.2560952590028 18.5340850740281  43.2560952590028 18.5340850740281  C 43.766375764543 16.722489662814  42.7215156855956 15.3685604680485  40.8747863268698 14.2053255038686  C 40.1944123462604 13.7857981335371  38.8336643850415 12.9848822705129  37.3271220166206 12.088619292196  C 37.3271220166206 12.088619292196  38.2018885803324 11.4021199675232  38.97945883241 10.0481908042793  C 39.5383374736841 9.07565010220651  39.5626365415512 7.96962343872386  38.2018885401662 7.72172090744102  C 35.9663740152354 7.32126296016811  34.1196446565097 8.59891446269941  33.5607660554016 9.990982503582  C 33.1233827936288 11.0588703209476  33.3663734722991 11.8407167609132  34.1925419002771 12.6797715015761  C 34.265439103878 12.7369797707517  34.3140372396122 12.7941880399274  34.3869344432133 12.8704657321616  C 33.8766539376731 13.6332427490687  33.1962799570637 14.6629917203171  32.5888032202215 15.4639075833413  C 30.9607654722991 17.6759609103066  29.7215128504155 19.430348052345  28.7981481911357 19.430348052345  C 28.0448770069251 19.430348052345  28.0691760747922 17.6568914872481  28.069176034626 15.9787820689655  C 28.069176034626 14.5485751819658  28.2149704418283 12.3937300926545  28.3121667534626 10.1435379195721  C 28.3364658213296 9.39983032572356  27.8747834916897 8.98030298691375  27.0972131994459 8.59891446269941  C 26.611231801939 8.37008135447512  25.590670831025 7.91241513802657  25.0074931218837 7.91241516954819  C 24.1084274903048 7.91241516954819  21.5570250831024 8.00776228484097  19.1514170831024 13.4997567876588  C 18.8355291606649 14.1862561123317  18.2523514515235 15.4448381602827  18.2523514515235 15.4448381602827  L 18.3009495872576 8.84681699398224  C 18.3009495872576 8.69426157799217  18.2037533157894 8.54170619352374  17.9607625969529 8.44635907823096  C 17.5476784030471 8.27473423918234  16.4542202285319 7.91241516954819  15.5065564612189 7.91241516954819  C 15.044874131579 7.91241516954819  14.8261824806094 8.08404000859681  15 8.40822020059222  L 15 18.7438487591938  C 14.7532852770084 19.5256951991594  14.7775843448754 20.4410276005349  14.8747806163435 20.8414855162862  C 14.9719768878117 21.2419434635591  15.1420704030471 21.5661236870761  15.3364629861495 21.7568179491833  C 15.5308555692522 21.9475122112905  15.7738462479224 22.1000675957589  16.1383323060942 22.1572758649346  C 16.4785192963988 22.2144841341102  18.398145898892 22.4051783962174  18.5196412382271 21.8330956414175  C 18.6411365775623 21.1465963167447  18.6411365775623 20.4028887544178  19.6616975484764 17.618752641131  C 21.2411371606649 13.2899931024931  23.282259102493 11.1732868908205  24.2299228698061 10.429579296972  C 24.4000163850416 10.2960933040405  24.5944089279779 10.2960933040405  24.5701098601108 10.5058569892062  C 24.5215117243767 11.4593282682205  24.3757172770084 13.8239370111758  24.2785210055402 15.8452961075556  C 24.0112312188365 21.2419434635591  25.2747829085873 22.2335535886904  27.0486150637118 22.2335535886904  C 28.4093630249308 22.2335535886904  30.3532886952909 21.1656657713249  32.4187097049861 18.4768768048524  C 33.7065604626039 16.7987673865699  34.9458130844876 15.1397273598242  35.8448786759003 13.9574229725857  C 36.4766545207756 14.4150891890343  37.181327569252 14.9108942516  37.8860006578947 15.4257687372242  C 39.5140384058172 16.6462119705798  40.0486179390581 17.7903774801796  39.7084309487535 18.8964041436622  C 39.4411411620499 19.7354588528035  38.4205801911357 20.5935829850033  36.5981499002771 19.7545282758621  C 36.0635703268698 19.5066257445792  35.8448787160665 19.3159314824721  35.3102991426593 19.0489595596523  C 35.0187102880886 18.8964041436622  34.5813270263158 18.8582652975451  34.3140372396122 19.0108207135352  C 33.6336632590028 19.4112786608081  33.244878132964 19.9261531149107  33.0261864819945 20.5554441388862  C 32.8074948310249 21.1656657398032  33.6093641911357 21.5089154179005  34.4112335110804 21.7949567953004  C 35.1159065595568 22.0428593265832  36.6224489681441 22.2716924348075  37.594411803324 22.2907618578661  C 41.360767764543 22.3861089731588  44.3738525415512 20.8605549708664  46.4635726191136 16.9322533479798  C 46.8280586772853 20.3266110621836  48.4317973573407 22.252623011749  51.2261904833796 22.252623011749  C 53.0729198421053 22.252623011749  54.9439483088642 20.3647499083007  55.7701167368421 18.5150156509695  C 56.0131074556787 19.2777926678766  56.3532944459833 19.9261531149107  56.7906777077563 20.479166446652  C 58.9289959210527 23.1488859900659  63.0841370484764 22.576803235266  65.1738571260388 20.3075416076034  C 65.8299320387812 19.601972859872  65.9271283102492 19.3540703285892  65.9271283102492 19.3540703601108  C 66.243016232687 21.4898459948419  68.4299325817175 22.2335535886904  69.6691852036011 22.2335535886904  C 71.078531300554 22.2335535886904  72.512176465374 21.7186791030662  73.5327374362881 19.9261531149107  C 73.6542327756232 20.1168473770179  73.7757281551247 20.3075416076034  73.9215226024931 20.479166446652  C 76.0598408157894 23.1488859900659  80.2149819432133 22.576803235266  82.3047019806094 20.3075416076034  C 82.4018982520776 20.1931250692521  82.4990945637119 20.0977779224377  82.571991767313 20.0215002302035  L 82.6448889709142 21.4326377256663  C 82.6448889709142 21.4326377256663  81.4542344847646 22.2907618578661  80.7252624085873 22.8056363434903  C 77.5177850484764 25.1130368172701  75.0635789127423 26.8674239277868  74.8691863296399 28.9269218702837  C 74.6504946786704 31.5394331445219  77.323392465374 32.5119738465947  79.3645144473685 32.626390384946  C 81.527131728532 32.7598763778776  83.3738611274239 31.8254745219219  84.5159174376731 30.5096841732735  C 85.5121793407203 29.3464492406152  86.1682542534626 26.8674239277868  86.1196561177285 24.4074680695387  C 86.0953570498614 23.4158579444073  86.0710579819945 22.1763453195148  86.0467589141275 20.8224160932276  C 87.1888152243768 19.7926671219792  88.4523669141275 18.4959461963894  89.6187222922438 16.9703921940969  C 90.9065730498615 15.3113521988729  92.2673210110804 13.0802294173274  92.9719940595568 11.3449117298692  C 92.9719940595568 11.3449117298692  94.1626485457064 11.3449117298692  95.4262001952909 11.2877034291719  C 95.8392843891967 11.2686340061133  95.960779768698 11.325842275289  95.86358349723 11.5737448065718  C 95.7663872257617 11.8597861839717  94.2598448171745 16.4364482538925  95.6448918462605 19.4875563215207  C 96.5925556135735 21.5851931101347  98.7308738268699 22.2526229802274  99.9944255166206 22.252623011749  C 101.476668817174 22.252623011749  102.886014954294 21.3754294564906  103.639286138504 20.0787085309008  C 103.736482409972 20.2312639468908  103.833678721607 20.3647499083007  103.930874993075 20.4982358697106  C 106.069193206371 23.1679554131245  110.200035265928 22.5768032352661  112.314054371191 20.3266110621836  C 112.800035768698 19.8117365765594  113.067325555402 19.3731397831694  113.067325595568 19.3731397831694  C 113.529007925208 21.5851931101347  115.715924314404 22.2716924348076  116.955176896122 22.2716924348076  C 118.267326721607 22.2716924348076  119.50657934349 21.8521650644761  120.502841246537 19.9833613840864  C 120.551439382272 20.8033466701691  120.600037518006 21.4707765717834  120.721532857341 21.6805402569491  C 120.794430060942 21.8140262498806  121.158916119114 21.9665816343491  121.426205945983 22.0428593265833  C 122.616860432133 22.3861089731589  123.831813945983 22.2335535886904  124.293496275623 22.1572758649346  C 124.609384198061 22.1000675957589  124.852374916898 21.9093733336518  124.876673984765 21.3944988795492  C 124.973870256233 20.0596391078422  124.900973052632 17.8285163578183  125.435552585873 16.1504069080142  C 126.310319149585 13.3662707947273  127.112188469529 12.2793135543032  127.476674567867 11.7453696456204  C 127.695366218837 11.4402588451619  127.938356897507 11.4021199990448  127.938356897507 11.7072307995033  C 127.962655965374 12.3555912465374  127.986955033241 14.2434643815073  128.327142023546 16.7796979319897  C 128.570132742382 18.6485016123794  128.910319732687 19.7545282758621  129.153310411357 20.0977779539593  C 129.882282527701 21.0893880790907  130.757049091413 21.1465963482663  131.486021207756 21.1465963482663  C 131.947703537396 21.1465963482663  132.919666372576 21.0512492329736  132.822470101108 20.4028887544178  C 132.773871965374 20.0977779539593  132.846769168975 18.1717660043939  133.69723666482 15.4257687372242  C 134.256115306094 13.6332427490687  135.179479965374 12.0123415999618  135.519666955679 11.4021199990448  C 135.641162295014 11.1923563138791  135.689760470914 11.3639811529277  135.689760470914 11.3830505759863  C 135.616863267313 12.6225632324004  135.471068819945 16.6652813936384  136.10284466482 18.8773347206037  C 136.977611228532 21.8712344875346  139.504714567867 22.2144841656319  140.379481131579 22.2144841656319  C 142.250509598338 22.2144841656319  143.781351034626 21.0893880790907  144.2916315 18.1526965498138  Z M 62.8168472617728 9.83842711911358  C 64.5663803490305 9.97191311204508  65.4411469127425 11.7263002225619  65.1981561939059 14.9681025207756  C 65.1009599224377 16.5317954007068  64.712174796399 17.8285163262967  64.0803989113573 18.7819876053109  C 62.9626416689751 20.4982358697106  60.7271271440443 21.032179809915  59.7551643088643 18.5722239201452  C 59.0504912603878 16.7796979319897  59.2934819792244 14.3578809198586  59.585070833795 13.0420905712102  C 60.0224540955679 11.0970091985863  61.1159123102494 9.70494112618206  62.8168472617728 9.83842711911358  Z M 80.7252624085873 11.3449117298692  C 82.499094563712 11.3449117298692  82.5962908351801 11.3449117298691  82.3290010484765 15.0062413668927  C 82.2318047770084 16.4745871315312  81.7458233393353 17.9620022877066  81.2112438060942 18.7819876053109  C 80.1177856315789 20.4982358697106  77.8336729709142 21.0512492329735  76.8860092036011 18.5722239201452  C 76.2299342908588 16.8750450788041  76.4000278060942 14.6820611433757  76.7159157285319 13.2899931024931  C 77.1289999224377 11.4974671143376  78.9271311855957 11.3449117298692  80.7252624085873 11.3449117298692  Z M 82.7906834182825 23.3777190982902  L 82.7906834182825 25.0367590935142  C 82.7663843504155 27.7255480599866  82.2318047770084 30.0710873798835  81.0654493988919 30.7575867045563  C 79.4374116509695 31.7301274066291  77.2261962340719 31.0054892358391  77.6878785637118 29.0413384401567  C 78.1009627576178 27.3060207211768  79.9962902922438 25.5325641876015  82.7906834182825 23.3777190982902  Z M 109.981343614958 9.83842711911358  C 111.730876702216 9.95284365746488  112.557045130194 11.7263002225618  112.362652547091 15.0062413668927  C 112.265456275623 16.6271425159996  111.803773905817 17.8857245954724  111.244895264543 18.7819876053109  C 110.151437090028 20.4982358697106  107.867324429363 21.032179809915  106.91966066205 18.5722239201452  C 106.385081088643 17.2182947253797  106.360782020776 14.9681025207756  106.749567186981 13.0802294173273  C 107.138352313019 11.154217467762  108.207511419668 9.70494112618206  109.981343614958 9.83842711911358  Z " fill-rule="nonzero" fill="#fffdfd" stroke="none" transform="matrix(1 0 0 1 114 29 )" />
  </g>
</svg>