<?xml version="1.0" encoding="utf-8"?>
<svg version="1.1" xmlns:xlink="http://www.w3.org/1999/xlink" width="60px" height="60px" xmlns="http://www.w3.org/2000/svg">
  <g transform="matrix(1 0 0 1 -95 -73 )">
    <path d="M 125 73  C 141.8 73  155 86.2  155 103  C 155 119.8  141.8 133  125 133  C 108.2 133  95 119.8  95 103  C 95 86.2  108.2 73  125 73  Z " fill-rule="nonzero" fill="#ffffff" stroke="none" />
    <path d="M 125 73.5  C 141.52 73.5  154.5 86.48  154.5 103  C 154.5 119.52  141.52 132.5  125 132.5  C 108.48 132.5  95.5 119.52  95.5 103  C 95.5 86.48  108.48 73.5  125 73.5  Z " stroke-width="1" stroke="#797979" fill="none" />
  </g>
</svg>