<?xml version="1.0" encoding="utf-8"?>
<svg version="1.1" xmlns:xlink="http://www.w3.org/1999/xlink" width="34px" height="60px" xmlns="http://www.w3.org/2000/svg">
  <defs>
    <mask fill="white" id="clip1">
      <path d="M 30 0  C 31.3585659197554 0  32.6935897303483 0.0863210669282637  34 0.253886454850402  L 33.9999946846065 59.7461135463878  C 32.6935897303483 59.9136789330718  31.3585659197554 60  30 60  C 13.2 60  0 46.8  0 30  C 0 13.2  13.2 0  30 0  Z " fill-rule="evenodd" />
    </mask>
  </defs>
  <g transform="matrix(1 0 0 1 -340 -73 )">
    <path d="M 30 0  C 31.3585659197554 0  32.6935897303483 0.0863210669282637  34 0.253886454850402  L 33.9999946846065 59.7461135463878  C 32.6935897303483 59.9136789330718  31.3585659197554 60  30 60  C 13.2 60  0 46.8  0 30  C 0 13.2  13.2 0  30 0  Z " fill-rule="nonzero" fill="#ffffff" stroke="none" transform="matrix(1 0 0 1 340 73 )" />
    <path d="M 30 0  C 31.3585659197554 0  32.6935897303483 0.0863210669282637  34 0.253886454850402  L 33.9999946846065 59.7461135463878  C 32.6935897303483 59.9136789330718  31.3585659197554 60  30 60  C 13.2 60  0 46.8  0 30  C 0 13.2  13.2 0  30 0  Z " stroke-width="2" stroke="#797979" fill="none" transform="matrix(1 0 0 1 340 73 )" mask="url(#clip1)" />
  </g>
</svg>