<?xml version="1.0" encoding="utf-8"?>
<svg version="1.1" xmlns:xlink="http://www.w3.org/1999/xlink" width="30px" height="28px" xmlns="http://www.w3.org/2000/svg">
  <g transform="matrix(1 0 0 1 -22 -630 )">
    <path d="M 29.04 12.86  C 29.22 12.08  28.98 11.24  28.32 10.7  L 16.86 1.52  C 15.78 0.62  14.22 0.62  13.08 1.52  L 1.68 10.7  C 1.02 11.24  0.780000000000002 12.08  1.08 12.86  C 1.38 13.7  2.1 14.18  3 14.18  L 4 14.18  L 4 24.74  C 3.9 26.06  5.22 27.14  6.84 27.14  L 10.5 27.14  C 10.56 27.14  10.68 27.14  10.74 27.08  L 10.86 27.08  C 11.22 27.08  11.46 26.84  11.46 26.48  L 11.46 18.8  C 11.46 18.2  12 17.72  12.66 17.72  L 17.22 17.72  C 17.88 17.72  18.42 18.2  18.42 18.8  L 18.42 26.6  C 18.42 26.96  18.66 27.2  19.02 27.2  L 23.04 27.2  C 24.66 27.2  25.98 26.12  26 24.8  L 26 14.18  L 27.12 14.18  C 28.02 14.18  28.74 13.64  29.04 12.86  Z M 27.6 11.66  C 27.84 11.84  27.96 12.14  27.84 12.44  C 27.72 12.68  27.48 12.98  27.06 12.98  L 25.32 12.98  C 24.96 12.98  24.72 13.22  24.72 13.58  L 24.72 24.74  C 24.72 25.4  23.94 25.94  22.98 25.94  L 19.56 25.94  L 19.56 18.8  C 19.56 17.54  18.48 16.52  17.16 16.52  L 12.6 16.52  C 11.28 16.52  10.2 17.54  10.2 18.8  L 10.2 25.94  L 6.78 25.94  C 5.82 25.94  5.04 25.4  5 24.74  L 5 13.58  C 5.04 13.22  4.8 12.98  4.44 12.98  L 2.94 12.98  C 2.46 12.98  2.22 12.68  2.16 12.44  C 2.04 12.14  2.16 11.84  2.4 11.66  L 13.86 2.42  C 14.52 1.88  15.48 1.88  16.14 2.42  L 27.6 11.66  Z " fill-rule="nonzero" fill="#fffdfd" stroke="none" transform="matrix(1 0 0 1 22 630 )" />
  </g>
</svg>