<?xml version="1.0" encoding="utf-8"?>
<svg version="1.1" xmlns:xlink="http://www.w3.org/1999/xlink" width="22px" height="24px" xmlns="http://www.w3.org/2000/svg">
  <g transform="matrix(1 0 0 1 -99 -632 )">
    <path d="M 21.59375 23.021484375  C 21.95703125 22.6552734375  21.95703125 22.060546875  21.59375 21.6943359375  L 16.9765625 17.080078125  C 17.796875 16.224609375  18.447265625 15.2373046875  18.91015625 14.1474609375  C 19.4169921875 12.9521484375  19.671875 11.68359375  19.671875 10.376953125  C 19.671875 9.0703125  19.4169921875 7.8017578125  18.91015625 6.6064453125  C 18.4208984375 5.4521484375  17.7236328125 4.41796875  16.8330078125 3.52734375  C 15.9423828125 2.63671875  14.908203125 1.939453125  13.75390625 1.4501953125  C 12.55859375 0.943359374999999  11.2900390625 0.688476562499999  9.9833984375 0.688476562499999  C 8.6767578125 0.688476562499999  7.408203125 0.943359374999999  6.212890625 1.4501953125  C 5.05859375 1.939453125  4.0244140625 2.63671875  3.1337890625 3.52734375  C 2.2431640625 4.41796875  1.5458984375 5.4521484375  1.056640625 6.6064453125  C 0.5498046875 7.8017578125  0.294921875000001 9.0703125  0.294921875000001 10.376953125  C 0.294921875000001 11.68359375  0.5498046875 12.9521484375  1.056640625 14.1474609375  C 1.5458984375 15.3017578125  2.2431640625 16.3359375  3.1337890625 17.2265625  C 4.0244140625 18.1171875  5.05859375 18.814453125  6.212890625 19.3037109375  C 7.408203125 19.810546875  8.6767578125 20.0654296875  9.9833984375 20.0654296875  C 11.2900390625 20.0654296875  12.55859375 19.810546875  13.75390625 19.3037109375  C 14.3896484375 19.0341796875  14.990234375 18.7001953125  15.552734375 18.3046875  L 20.26953125 23.021484375  C 20.6328125 23.384765625  21.23046875 23.384765625  21.59375 23.021484375  Z M 15.5087890625 15.8994140625  C 14.0322265625 17.3759765625  12.0693359375 18.1875  9.9833984375 18.1875  C 7.8974609375 18.1875  5.9345703125 17.3759765625  4.4580078125 15.8994140625  C 2.9814453125 14.4228515625  2.169921875 12.462890625  2.169921875 10.3740234375  C 2.169921875 8.28515625  2.9814453125 6.3251953125  4.4580078125 4.8486328125  C 5.9345703125 3.3720703125  7.89453125 2.560546875  9.9833984375 2.560546875  C 12.0693359375 2.560546875  14.0322265625 3.3720703125  15.5087890625 4.8486328125  C 16.9853515625 6.3251953125  17.796875 8.28515625  17.796875 10.3740234375  C 17.796875 12.462890625  16.9853515625 14.4228515625  15.5087890625 15.8994140625  Z " fill-rule="nonzero" fill="#aeaeae" stroke="none" transform="matrix(1 0 0 1 99 632 )" />
  </g>
</svg>