<?xml version="1.0" encoding="utf-8"?>
<svg version="1.1" xmlns:xlink="http://www.w3.org/1999/xlink" width="25px" height="26px" xmlns="http://www.w3.org/2000/svg">
  <g transform="matrix(1 0 0 1 -332 -29 )">
    <path d="M 24.4875 1.88749999023438  L 24.4875 1.80000000976563  C 24.4875 1.25000001953125  24.0375 0.800000019531251  23.4875000097656 0.799999990234376  C 23.3000000097656 0.799999990234376  23.1375 0.850000000000001  22.9875 0.937500009765625  L 0.6375 12.7375  C 0.312500009765625 12.9000000097656  0.0999999902343749 13.2625  0.0999999902343749 13.6375  C 0.0999999902343749 14.0125  0.31249998046875 14.35  0.650000009765625 14.5249999902344  L 6.45 17.7000000097656  C 6.6 17.7625  6.76250000976563 17.8  6.9 17.8  C 7.28750000976563 17.8  7.62500000976562 17.5875000097656  7.8 17.2500000097656  C 8.03750000976562 16.7625000097656  7.8375 16.15  7.35 15.9000000097656  L 3.3 13.6125000097656  L 19.5249999902344 5.0125  L 9.32499999023437 17.4124999902344  C 9.17499999023437 17.6125  9.08749998046875 17.8375  9.08750000976562 18.0625  L 9.08750000976562 24.1999999902344  C 9.08750000976562 24.7375  9.55000001953125 25.1999999804687  10.0875 25.2000000097656  C 10.6249999804687 25.2000000390625  11.0874999902344 24.7375  11.0874999902344 24.1999999902344  L 11.0874999902344 18.4375  L 21.9500000097656 5.21250000976562  L 19.8500000097656 22.0375  L 13.7499999902344 19.1250000097656  C 13.6249999804687 19.0500000097656  13.4749999804688 19.0250000195313  13.3125 19.0249999902344  C 12.9249999902344 19.0249999902344  12.5874999902344 19.2374999804688  12.4125 19.5874999902344  C 12.3 19.825  12.2750000097656 20.0999999804688  12.3624999902344 20.35  C 12.45 20.6125  12.6249999902344 20.8125000097656  12.8625 20.9250000097656  L 20.2250000097656 24.4  C 20.3500000195313 24.475  20.5000000195313 24.4999999902344  20.6625 24.4999999902344  C 20.8125 24.4999999902344  20.9750000097656 24.4624999902344  21.1250000097656 24.3874999902344  C 21.4125 24.2374999902344  21.6125000097656 23.9624999804688  21.6500000097656 23.65  L 24.4875 1.92499999023438  L 24.4875 1.88749999023438  Z " fill-rule="nonzero" fill="#eeeeee" stroke="none" transform="matrix(1 0 0 1 332 29 )" />
  </g>
</svg>