<?xml version="1.0" encoding="utf-8"?>
<svg version="1.1" xmlns:xlink="http://www.w3.org/1999/xlink" width="25px" height="21px" xmlns="http://www.w3.org/2000/svg">
  <g transform="matrix(1 0 0 1 -244 -634 )">
    <path d="M 14.6450000097656 0.811999990234376  L 14.6450000097656 0.813000009765624  C 15.7534671102371 0.211019031344572  17.0163055465576 -0.046632045360564  18.2720000097656 0.0730000000000004  C 22.515 0.472999990234375  24.72 4.21500000976563  23.7890000097656 8.35  C 22.8770000097656 12.4  16.9030000195312 18.598  12.1940000097656 20.221  L 11.9450000097656 20.3070000097656  L 11.697 20.2189999902344  C 6.99999999023438 18.5569999902344  1.077 12.313  0.197000009765625 8.25600000976563  C -0.702 4.114  1.533 0.390000009765625  5.77899999023438 0.0250000000000004  C 7.03547081437905 -0.0859942158987757  8.29643987425281 0.18110417715213  9.39999999023438 0.792000009765625  C 11.994 2.19500001953125  12.0409999804687 2.19600000976563  14.6450000097656 0.811999990234376  Z M 11.9510000097656 18.7050000097656  C 16.1510000097656 17.11  21.54 11.4680000195313  22.317 8.01900000976562  C 23.061 4.71200001953125  21.3950000097656 1.88300001953125  18.1310000097656 1.576  C 17.1689334907462 1.48357062561355  16.2012551823257 1.68177399744265  15.3530000097656 2.14500000976563  C 12.303 3.76500000976563  11.7200000097656 3.763  8.68199999999999 2.11800000976562  C 7.83771395529787 1.64779212973859  6.87157890847526 1.44223147735212  5.90900000976562 1.528  C 2.64200000976562 1.80799999023438  0.953000009765619 4.624  1.67099999999999 7.936  C 2.42099999999999 11.3910000097656  7.76300000976562 17.0760000097656  11.9510000097656 18.7050000097656  Z " fill-rule="nonzero" fill="#898989" stroke="none" transform="matrix(1 0 0 1 244 634 )" />
  </g>
</svg>