<?xml version="1.0" encoding="utf-8"?>
<svg version="1.1" xmlns:xlink="http://www.w3.org/1999/xlink" width="22px" height="21px" xmlns="http://www.w3.org/2000/svg">
  <g transform="matrix(1 0 0 1 -319 -629 )">
    <path d="M 21.0448296582031 10.0986104882812  C 21.0374220743004 15.6579948240291  16.5324972752009 20.1629196231285  10.9731129394531 20.1703272070312  C 5.41065739107166 20.1703272070312  0.901396220703123 15.6610660366627  0.901396220703123 10.0986104882812  C 0.901396220703123 4.53615493989978  5.41065739107166 0.0268937695312469  10.9731129394531 0.0268937695312469  C 16.5355684878346 0.0268937695312469  21.0448296582031 4.53615493989978  21.0448296582031 10.0986104882812  Z M 10.9731129394531 1.96324517578125  L 10.9731129394531 1.97669206054688  C 6.51720729000088 1.97669206054688  2.90498205078125 5.58891729976651  2.90498205078125 10.0448229492187  C 2.90498205078125 14.500728598671  6.51720729000088 18.1129538378906  10.9731129394531 18.1129538378906  C 15.4290185889054 18.1129538378906  19.041243828125 14.500728598671  19.041243828125 10.0448229492187  C 19.0412512986204 10.0403406581852  19.0412550338701 10.0358583617043  19.0412550338701 10.0313760644453  C 19.0412550338701 5.5754704149931  15.4290297946504 1.96324517577347  10.9731241451982 1.96324517577347  Z " fill-rule="nonzero" fill="#a8a8a9" stroke="none" transform="matrix(1 0 0 1 319 629 )" />
  </g>
</svg>