<?xml version="1.0" encoding="utf-8"?>
<svg version="1.1" xmlns:xlink="http://www.w3.org/1999/xlink" width="28px" height="14px" xmlns="http://www.w3.org/2000/svg">
  <g transform="matrix(1 0 0 1 -316 -645 )">
    <path d="M 1.99193858398438 13.1125056054688  C 1.94379615150305 13.6124664964875  1.52601552680658 13.9954320691259  1.02376288085937 14  L 0.9296346875 14  C 0.391989494077068 13.9502459702576  -0.00453576322156246 13.4756172531881  0.0421402929687498 12.9376961035156  C 0.442435811519625 7.59401827314916  3.8332591151309 2.93749595261016  8.7960623046875 0.916181093750001  C 8.89973562677313 0.880128443157602  9.00872149575906 0.861719081211469  9.11848465591313 0.861719081211469  C 9.66061984129456 0.861719081211469  10.1001072438038 1.30120648372067  10.1001072438038 1.8433416691021  C 10.1001072438038 2.20219659175958  9.90428761022717 2.53245231157101  9.58942850585938 2.70461676757812  C 5.26693988362114 4.42520359305622  2.31340931101661 8.47127909892448  1.99193858398438 13.1125056054688  Z M 27.0703787597656 14  L 26.9359099121094 14  C 26.4336572661622 13.9954320691259  26.0158766414657 13.6124664964875  25.9677342089844 13.1125056054688  C 25.6735281220618 9.78757837962659  24.0191246312916 6.73179782330165  21.395793359375 4.66786194335938  C 21.1904752930816 4.47949674492508  21.0735906918592 4.21364081402314  21.0735906918592 3.93500672363281  C 21.0735906918592 3.38573363456971  21.5188645085931 2.94045981783577  22.0681375976563 2.94045981783577  C 22.3171074721511 2.94045981783577  22.5570225430528 3.03384022603035  22.7404818359375 3.20215150390625  C 25.7543523891837 5.58346668101619  27.6439628787469 9.10944088431159  27.9578731542969 12.9376961035156  C 28.0045492104872 13.4756172531881  27.6080239531886 13.9502459702576  27.0703787597656 14  Z " fill-rule="nonzero" fill="#a8a8a9" stroke="none" transform="matrix(1 0 0 1 316 645 )" />
  </g>
</svg>