<?xml version="1.0" encoding="utf-8"?>
<svg version="1.1" xmlns:xlink="http://www.w3.org/1999/xlink" width="40px" height="40px" xmlns="http://www.w3.org/2000/svg">
  <g transform="matrix(1 0 0 1 -10 -11 )">
    <path d="M 30 11  C 41.2 11  50 19.8  50 31  C 50 42.2  41.2 51  30 51  C 18.8 51  10 42.2  10 31  C 10 19.8  18.8 11  30 11  Z " fill-rule="nonzero" fill="#ffffff" stroke="none" />
    <path d="M 30 11.5  C 40.92 11.5  49.5 20.08  49.5 31  C 49.5 41.92  40.92 50.5  30 50.5  C 19.08 50.5  10.5 41.92  10.5 31  C 10.5 20.08  19.08 11.5  30 11.5  Z " stroke-width="1" stroke="#797979" fill="none" />
  </g>
</svg>