<?xml version="1.0" encoding="utf-8"?>
<svg version="1.1" xmlns:xlink="http://www.w3.org/1999/xlink" width="22px" height="6px" xmlns="http://www.w3.org/2000/svg">
  <g transform="matrix(1 0 0 1 -333 -29 )">
    <path d="M 4.818359375 3  C 4.818359375 4.294423828125  3.769033203125 5.34375  2.474609375 5.34375  C 1.180185546875 5.34375  0.130859375 4.294423828125  0.130859375 3  C 0.130859375 1.705576171875  1.180185546875 0.65625  2.474609375 0.65625  C 3.769033203125 0.65625  4.818359375 1.705576171875  4.818359375 3  Z M 13.34375 3  C 13.34375 4.294423828125  12.294423828125 5.34375  11 5.34375  C 9.705576171875 5.34375  8.65625 4.294423828125  8.65625 3  C 8.65625 1.705576171875  9.705576171875 0.65625  11 0.65625  C 12.294423828125 0.65625  13.34375 1.705576171875  13.34375 3  Z M 21.869140625 3  C 21.869140625 4.294423828125  20.819814453125 5.34375  19.525390625 5.34375  C 18.230966796875 5.34375  17.181640625 4.294423828125  17.181640625 3  C 17.181640625 1.705576171875  18.230966796875 0.65625  19.525390625 0.65625  C 20.819814453125 0.65625  21.869140625 1.705576171875  21.869140625 3  Z " fill-rule="nonzero" fill="#d7d7d8" stroke="none" transform="matrix(1 0 0 1 333 29 )" />
  </g>
</svg>