<?xml version="1.0" encoding="utf-8"?>
<svg version="1.1" xmlns:xlink="http://www.w3.org/1999/xlink" width="26px" height="24px" xmlns="http://www.w3.org/2000/svg">
  <g transform="matrix(1 0 0 1 -57 -476 )">
    <path d="M 3.7 19.425  C 5.875 21.825  9.025 23.25  12.325 23.25  C 14.125 23.25  23.275 22.725  24.4 22.65  C 24.925 22.65  25.3 22.275  25.45 21.825  C 25.6 21.375  25.45 20.85  25.075 20.55  C 25 20.475  24.775 20.325  24.625 20.175  C 22.825 18.9  22.225 18.3  22 18  C 23.2 16.125  23.875 13.95  23.875 11.7  C 23.875 8.4  22.45 5.25  20.05 3.075  C 17.575 0.9  14.35 -0.149999999999999  11.05 0.225000000000001  C 5.725 0.825  1.45 5.1  0.849999999999997 10.425  C 0.475000000000001 13.725  1.525 17.025  3.7 19.425  Z M 20.05 16.95  C 19.15 18.15  20.125 19.5  21.4 20.55  C 18.175 20.7  13.525 21  12.325 21  C 9.7 21  7.15 19.875  5.35 17.925  C 3.55 15.9  2.725 13.35  3.025 10.65  C 3.55 6.375  7 2.925  11.275 2.4  C 13.975 2.1  16.525 2.925  18.55 4.725  C 20.5 6.525  21.625 9  21.625 11.7  C 21.625 13.575  21.1 15.375  20.05 16.95  Z " fill-rule="nonzero" fill="#9f9fa0" stroke="none" transform="matrix(1 0 0 1 57 476 )" />
  </g>
</svg>