<?xml version="1.0" encoding="utf-8"?>
<svg version="1.1" xmlns:xlink="http://www.w3.org/1999/xlink" width="26px" height="27px" xmlns="http://www.w3.org/2000/svg">
  <g transform="matrix(1 0 0 1 -327 -477 )">
    <path d="M 26 4.67170659179688  C 25.9982721484375 2.1632773046875  23.9572559570313 0.122590878906252  21.4491264941406 0.12259087890625  L 4.5522825390625 0.12259087890625  C 2.04385325195313 0.12259087890625  0.00313685546875098 2.16330727539062  0 4.6717365625  L 0 21.5685505175781  C 0.00313688476562568 24.0769798046875  2.04385328125 26.1176962011719  4.5522825390625 26  L 21.4490965234375 26  C 23.957226015625 26.1176962011719  25.9982422070313 24.0769798046875  26 21.5685505175781  L 26 4.67170659179688  Z M 8.45155884765625 2.72209840820313  L 17.5498502148438 2.72209840820313  C 17.9084370800781 2.72209840820313  18.1997195898437 3.01371068359375  18.1997195898437 3.3719678125  L 18.1997195898437 7.92111349609375  C 18.1997195898437 8.27937059570312  17.908407109375 8.57098287109375  17.5498502148438 8.57098287109375  L 8.45155884765625 8.57098287109375  C 8.09297198242188 8.57098287109375  7.80168947265625 8.27937059570313  7.80168944335937 7.92111349609375  L 7.80168944335937 3.3719678125  C 7.80168944335937 3.01371071289063  8.09300192382812 2.7220984375  8.45155884765625 2.72209840820313  Z M 23 21.5685505175781  L 23.3987646484375 21.5685505175781  C 23.3987646484375 22.6436516113281  22.5242275878906 23.518188671875  21.4491264941406 23  L 4.5522825390625 23  C 3.4771814453125 23.518188671875  2.60264438476563 22.6436516113281  3 21.5685505175781  L 3 4.67170659179688  C 2.6026444140625 3.59660549804688  3.47718147460938 2.7220684375  4.5522825390625 2.7220684375  L 5.2675076171875 2.7220684375  C 5.22396513526868 2.93594884616196  5.20206946912574 3.15367015539282  5.20215194335938 3.3719378125  L 5.20215194335938 7.92108349609375  C 5.20215194335938 9.7126987890625  6.65994355468751 11.1704604296875  8.45152887695313 11.1704604296875  L 17.5498502148438 11.1704604296875  C 19.3414655078125 11.1704604296875  20.7992271484375 9.71266881835938  20.7992271191406 7.92108349609375  L 20.7992271191406 3.3719678125  C 20.7992271191406 3.14945866210938  20.7766824121094 2.93213602539063  20.7338714453125 2.72209840820313  L 21.4490965234375 2.72209840820313  C 22.5241976171875 2.72209840820313  23.3987346777344 3.59663546875  23 4.6717365625  L 23 21.5685505175781  Z " fill-rule="nonzero" fill="#eeeeee" stroke="none" transform="matrix(1 0 0 1 327 477 )" />
  </g>
</svg>