<?xml version="1.0" encoding="utf-8"?>
<svg version="1.1" xmlns:xlink="http://www.w3.org/1999/xlink" width="25px" height="25px" xmlns="http://www.w3.org/2000/svg">
  <g transform="matrix(1 0 0 1 -12 -575 )">
    <path d="M 24.5 575  C 31.5 575  37 580.5  37 587.5  C 37 594.5  31.5 600  24.5 600  C 17.5 600  12 594.5  12 587.5  C 12 580.5  17.5 575  24.5 575  Z " fill-rule="nonzero" fill="#ffffff" stroke="none" />
    <path d="M 24.5 575.5  C 31.22 575.5  36.5 580.78  36.5 587.5  C 36.5 594.22  31.22 599.5  24.5 599.5  C 17.78 599.5  12.5 594.22  12.5 587.5  C 12.5 580.78  17.78 575.5  24.5 575.5  Z " stroke-width="1" stroke="#797979" fill="none" />
  </g>
</svg>