<svg t="1598242884132" class="icon" viewBox="0 0 1024 1024" version="1.1" xmlns="http://www.w3.org/2000/svg" p-id="4787" width="200" height="200"><path d="M498.0736 835.1744L315.4944 685.2608c-10.4448-7.9872-18.0224-19.5584-21.4016-32.3584-3.6864-14.1312-1.9456-28.5696 5.0176-40.6528 7.4752-13.1072 21.7088-23.04 37.888-26.4192 14.0288-2.8672 27.5456-0.512 37.1712 6.7584l0.4096 0.3072 58.88 53.1456-83.0464-267.9808c-8.192-26.4192 4.1984-55.3984 28.2624-65.8432 13.5168-5.9392 28.8768-5.7344 42.1888 0.3072 10.5472 4.8128 19.0464 13.0048 24.2688 23.1424h1.024l49.7664 160.768 204.5952-42.3936 90.112 290.5088-292.5568 90.624z m-149.504-226.6112c-2.1504 0-4.3008 0.2048-6.656 0.7168-9.4208 1.9456-17.92 7.68-22.016 14.848-8.6016 14.9504-1.536 33.1776 10.24 42.1888l0.3072 0.2048 172.7488 141.824L760.832 728.6784l-76.5952-246.6816L479.744 524.288l-50.9952-164.6592h-0.2048l-2.6624-8.4992c-2.3552-7.4752-7.68-13.6192-14.848-16.896-7.168-3.2768-15.1552-3.3792-22.528-0.1024-13.0048 5.7344-19.5584 21.8112-14.9504 36.7616l90.8288 293.2736c2.2528 7.2704-0.512 14.9504-6.9632 19.1488-6.4512 4.096-14.5408 3.3792-20.2752-1.7408l-77.6192-70.0416c-2.7648-1.9456-6.5536-2.9696-10.9568-2.9696zM538.4192 226.304c-90.3168-6.144-161.3824-2.1504-211.6608 11.8784l-9.0112-36.0448-69.5296 67.3792L341.2992 295.936l-8.6016-34.4064c117.0432-33.1776 330.752 3.2768 333.0048 3.584l4.096-23.6544c-0.6144 0-59.0848-10.1376-131.3792-15.1552z" fill="" p-id="4788"></path></svg>