<?xml version="1.0" encoding="utf-8"?>
<svg version="1.1" xmlns:xlink="http://www.w3.org/1999/xlink" width="117px" height="140px" xmlns="http://www.w3.org/2000/svg">
  <g transform="matrix(1 0 0 1 -454 -458 )">
    <path d="M 116 67.095  C 116.625909003906 59.6877272851563  111.18818171875 53.6836364257813  103.755454570313 53.6836364257813  L 103.405454570313 53.6836364257813  C 100.793181855469 53.6836364257813  98.6581818554688 54.4377272851562  96.5963635742188 55.72  C 94.789090859375 50.435  90.204090859375 46.6263635742188  84.289090859375 46.6263635742188  C 81.6895454296875 46.6263635742188  79.1918181445313 47.3772727148437  77.13 48.6627272851563  C 75.325909140625 43.3777272851562  70.740909140625 39.5627272851562  64.825909140625 39.5627272851562  C 62.5190909960938 39.5627272851562  60.380909140625 40.145  58 41.1663635742187  L 58 27.560909140625  C 58.4845454296875 20.1536364257813  52.9004545703125 14.1527272851563  45.474090859375 14.1527272851563  C 38.0586211379532 14.1474507237736  32.041445641383 20.151808601683  32 27.5672727148438  L 32 79.6313635742188  L 23.8631818554687 71.4636364257813  C 18.6131818554687 66.22  9.32227271484375 66.970909140625  4.8454545703125 71.4636364257813  C 0.37181814453125 75.9563637109375  -2.56181814453125 84.9990909960937  3.84318185546875 91.4327272851562  L 41.4045454296875 128.911363574219  C 42.1745454296875 129.681363574219  43.0304545703125 130.327272714844  43.930909140625 130.877727285156  C 50.77181828125 136.487272714844  58.6245455664062 139.809090859375  75.2145454296875 139.809090859375  C 113.119545429688 139.809090859375  116.629090859375 119.264090859375  116 93.9272727148438  L 116 67.095  Z M 109.54 93.924090859375  L 109.543181855469 93.924090859375  C 109.543181855469 115.36  109.444545429688 132.742272714844  75.2081818554688 132.742272714844  C 60.7054545703125 132.742272714844  52.0031818554688 129.5  45.400909140625 122.913636425781  L 9.840909140625 87.4363635742187  C 6.69727271484375 84.2736362890625  7.49272728515625 80.239090859375  10.0636364257812 77.649090859375  C 12.6377272851562 75.059090859375  17.365909140625 74.9636362890625  19.850909140625 77.4486364257812  L 40 96.6763635742188  L 40 28.9736364257813  C 39.1061595301296 25.4663315297169  41.9508659063083 22.6258804542859  45.4581747322527 22.6258804542859  C 45.4645407372212 22.6258804542859  45.470906738601 22.6258900164097  45.4772727148438 22.625909140625  C 49.0027272851563 22.625909140625  51.405 25.4672727148438  52 28.9736364257813  L 52 72.0427272851563  L 51.475 72.0427272851563  C 51.4326716578555 72.26278286043  51.4113636425781 72.4863647799453  51.4113636425781 72.7104543708632  C 51.4113636425781 74.6627809615151  52.9940370519263 76.2454543708632  54.9463636425781 76.2454543708632  C 56.89869023323 76.2454543708632  58.4813636425781 74.6627809615151  58.4813636425781 72.7104543708632  C 58.4813636425781 72.4863647799453  58.4600556273008 72.2627828604301  58.4177272851562 72.0427272851563  L 58 72.0427272851563  L 58 54.39  C 58.4877272851563 50.8836364257813  61.03 48.035909140625  64.5522727148438 48.035909140625  C 64.5522727148438 48.035909140625  70.7822727148437 47.9563637109375  70 54.3963635742188  L 70 77.680909140625  L 70.8522727148438 77.680909140625  C 70.8099443726992 77.9009647158988  70.7886363574219 78.124546635414  70.7886363574219 78.348636226332  C 70.7886363574219 80.3009628169838  72.37130976677 81.883636226332  74.3236363574219 81.883636226332  C 76.2759629480737 81.883636226332  77.8586363574219 80.3009628169838  77.8586363574219 78.348636226332  C 77.8586363574219 78.124546635414  77.8373283421445 77.9009647158988  77.795 77.680909140625  L 77 77.680909140625  L 77 61.4536364257813  C 77.865 57.9472728515625  80.365909140625 55.1027272851562  83.8913635742187 55.1027272851562  C 83.8913635742187 55.1027272851562  90.2486362890625 55.5036364257813  90 61.46  L 90 81.9286364257813  L 90.3186364257812 81.9286364257813  C 90.2712286946831 82.161102926473  90.2473441936744 82.3977515573688  90.2473441936744 82.635002831152  C 90.2473441936744 84.5873294218038  91.8300176030226 86.170002831152  93.7823441936744 86.170002831152  C 93.7838355110749 86.170002831152  93.7853268283252 86.1700018874345  93.7868181445312 86.17  C 95.7436362890625 86.17  97.2422727148437 84.5886364257813  97.2422727148437 82.635  C 97.2413225771132 82.3981578272364  97.2200322416734 82.1618348477051  97.1786364257812 81.9286364257813  L 97 81.9286364257813  L 97 67.950909140625  C 97.235909140625 64.4477272851563  99.860909140625 61.6  103.386363574219 61.6  C 103.386363574219 61.6  109.559090859375 61.3486364257813  109 67.950909140625  L 109 93.9272727148438  L 109.54 93.9272727148438  L 109.54 93.924090859375  Z M 26.780909140625 47.5586364257812  L 27 47.565  L 27 35.7063635742187  C 25.620099836242 33.1005401668345  25.0195600148387 30.2799542554806  25.0181818554687 27.4272727148438  C 25.0181392178936 27.4102843887343  25.0181178990808 27.3932960158022  25.0181178990808 27.3763076361866  C 25.0181178990808 16.1800218933794  34.0805632441834 7.09628004991602  45.2768181445312 7.07  C 56.4761966886638 7.09188736845072  65.5434963013034 16.1769248631332  65.5434963013034 27.3763247949007  C 65.5434963013034 28.8945231567282  65.3732365982527 30.4079330749639  65.035909140625 31.8881818554688  C 67.4974930511945 31.9768918026062  69.8316143167832 33.0050437176643  71.5586364257813 34.7613635742187  C 72.2355958742757 32.3773911517545  72.5824629572015 29.911851195441  72.5895454296875 27.4336364257812  C 72.5863635742188 12.285  60.3618181445313 0  45.2863635742188 0  C 30.2045454296875 0  17.9768181445313 12.285  17.9768181445313 27.4336364257812  C 17.9688136536049 35.077825515355  21.1616414675655 42.3762121159102  26.780909140625 47.5586364257812  Z " fill-rule="nonzero" fill="#000000" stroke="none" transform="matrix(1 0 0 1 454 458 )" />
  </g>
</svg>