<?xml version="1.0" encoding="utf-8"?>
<svg version="1.1" xmlns:xlink="http://www.w3.org/1999/xlink" width="12px" height="12px" viewBox="302 696.5  12 12" xmlns="http://www.w3.org/2000/svg">
  <path d="M 308 696.5  C 311.36 696.5  314 699.14  314 702.5  C 314 705.86  311.36 708.5  308 708.5  C 304.64 708.5  302 705.86  302 702.5  C 302 699.14  304.64 696.5  308 696.5  Z " fill-rule="nonzero" fill="#ffffff" stroke="none" />
  <path d="M 308 697  C 311.08 697  313.5 699.42  313.5 702.5  C 313.5 705.58  311.08 708  308 708  C 304.92 708  302.5 705.58  302.5 702.5  C 302.5 699.42  304.92 697  308 697  Z " stroke-width="1" stroke="#797979" fill="none" />
  <path d="M 308 705.5  C 306.32 705.5  305 704.18  305 702.5  C 305 700.82  306.32 699.5  308 699.5  C 309.68 699.5  311 700.82  311 702.5  C 311 704.18  309.68 705.5  308 705.5  " fill-rule="nonzero" fill="#797979" stroke="none" />
</svg>