<?xml version="1.0" encoding="utf-8"?>
<svg version="1.1" xmlns:xlink="http://www.w3.org/1999/xlink" width="15px" height="15px" xmlns="http://www.w3.org/2000/svg">
  <g transform="matrix(1 0 0 1 -366 -283 )">
    <path d="M 14.5974576353946 13.1144067713851  L 8.98305083918167 7.5  L 14.5974576353946 1.88559322861494  C 15.0211864572299 1.46186440677966  15.0211864572299 0.826271186440678  14.5974576353946 0.402542364605402  C 14.1737288135593 -0.0211864572298737  13.5381355932203 -0.0211864572298728  13.1144067713851 0.402542364605402  L 7.5 6.01694916081833  L 1.88559322861494 0.402542364605402  C 1.46186440677966 -0.0211864572298728  0.826271186440678 -0.0211864572298728  0.402542364605402 0.402542364605402  C -0.0211864572298737 0.826271186440678  -0.0211864572298728 1.46186440677966  0.402542364605402 1.88559322861494  L 6.01694916081833 7.5  L 0.402542364605402 13.1144067713851  C -0.0211864572298728 13.5381355932203  -0.0211864572298728 14.1737288135593  0.402542364605402 14.5974576353946  C 0.61440676310911 14.8093220338983  0.826271186440678 14.9152542455641  1.14406779661017 14.9152542455641  C 1.46186440677966 14.9152542455641  1.67372880528337 14.8093220338983  1.88559322861494 14.5974576353946  L 7.5 8.98305083918167  L 13.1144067713851 14.5974576353946  C 13.3262711698888 14.8093220338983  13.6440677800583 14.9152542455641  13.8559322033898 14.9152542455641  C 14.0677966267214 14.9152542455641  14.385593212063 14.8093220338983  14.5974576353946 14.5974576353946  C 15.0211864572299 14.1737288135593  15.0211864572299 13.5381355932203  14.5974576353946 13.1144067713851  Z " fill-rule="nonzero" fill="#868686" stroke="none" transform="matrix(1 0 0 1 366 283 )" />
  </g>
</svg>